<?xml version="1.0" encoding="UTF-8"?><svg id="uuid-b5c8cbdf-c277-4c2c-9648-a7fb69c69fe1" xmlns="http://www.w3.org/2000/svg" viewBox="0 0 54.5 26.08"><defs><style>.uuid-c612c7cd-273c-49aa-b707-2f67c200c2ea{fill:none;}</style></defs><path d="M.57,1.12h.66v2.22h1.82V1.12h.66v5.21h-.66v-2.42h-1.82v2.42h-.66V1.12Z"/><path d="M5.45.96v.75h-.69v-.75h.69ZM4.79,2.52h.63v3.81h-.63v-3.81Z"/><path d="M6.22,5.59c.28.17.58.28.9.28.48,0,.72-.25.72-.54,0-.26-.13-.44-.48-.6l-.42-.19c-.54-.25-.75-.49-.75-.98,0-.63.48-1.1,1.22-1.1.31,0,.59.05.81.13l-.03.54c-.19-.09-.46-.16-.75-.16-.41,0-.63.22-.63.52s.22.48.64.64l.22.09c.46.19.75.5.75.97,0,.66-.35,1.18-1.22,1.18-.4,0-.75-.08-1.03-.22l.04-.57Z"/><path d="M10.82,6.28c-.15.05-.36.1-.53.1-.57,0-.88-.23-.88-.9v-2.45h-.6v-.51h.6v-.78l.63-.19v.96h.78v.51h-.78v2.25c0,.43.11.6.4.6.16,0,.27-.04.39-.1v.51Z"/><path d="M12.7,2.47c1.01,0,1.53.76,1.53,1.95s-.52,1.96-1.53,1.96-1.53-.76-1.53-1.96.52-1.95,1.53-1.95ZM12.7,5.87c.6,0,.87-.49.87-1.45s-.28-1.45-.87-1.45-.87.49-.87,1.45.28,1.45.87,1.45Z"/><path d="M14.95,3.34c0-.28-.02-.55-.03-.82h.6l.02.6h.01c.2-.46.52-.65,1.08-.65v.62c-.07-.02-.16-.02-.24-.02-.48,0-.83.42-.83,1.25v2.01h-.63v-2.98Z"/><path d="M18.35,7.1c-.19.65-.46.88-.93.88-.15,0-.31-.01-.43-.04l.03-.57c.1.04.21.07.34.07.18,0,.31-.08.42-.48l.15-.58-1.2-3.86h.66l.85,3.1h.01l.79-3.1h.63l-1.32,4.58Z"/><path d="M22.12,2.78c.31-.2.7-.31,1.07-.31.56,0,.9.24,1.02.36.16.16.33.4.33.93v1.98c0,.22.01.45.03.58h-.57l-.04-.51h-.01c-.17.29-.49.57-1.07.57-.63,0-1.1-.37-1.1-1.1s.48-1.28,1.79-1.28h.37v-.17c0-.28-.02-.45-.14-.61-.13-.17-.37-.24-.63-.24-.39,0-.76.16-.98.4l-.07-.59ZM23.94,4.46c-.11-.02-.27-.02-.44-.02-.74,0-1.09.35-1.09.79,0,.4.21.66.64.66.54,0,.89-.44.89-.96v-.48Z"/><path d="M25.43,3.34c0-.28-.02-.55-.03-.82h.6l.02.57h.01c.2-.43.52-.62.96-.62.66,0,1.11.38,1.11,1.22v2.64h-.63v-2.46c0-.6-.22-.87-.63-.87-.49,0-.81.34-.81,1.03v2.29h-.63v-2.98Z"/><path d="M31.76,5.63c0,.23.02.47.03.7h-.6l-.02-.56h-.01c-.16.3-.45.61-1,.61-.78,0-1.31-.64-1.31-1.96s.53-1.95,1.31-1.95c.43,0,.72.17.97.57h.01V.73h.63v4.9ZM30.29,2.98c-.58,0-.84.49-.84,1.45s.26,1.45.84,1.45.83-.49.83-1.45-.26-1.45-.83-1.45Z"/><path d="M37.59,6.22c-.31.1-.64.16-.95.16-1.65,0-2.34-1.25-2.34-2.66,0-1.63.95-2.65,2.31-2.65.37,0,.75.07.98.19v.64c-.28-.18-.61-.26-.98-.26-.85,0-1.63.68-1.63,1.95,0,1.34.54,2.23,1.67,2.23.34,0,.66-.09.93-.25v.66Z"/><path d="M41.08,5.51c0,.28.02.55.03.82h-.6l-.02-.57h-.01c-.2.43-.52.62-.96.62-.66,0-1.11-.38-1.11-1.22v-2.64h.63v2.45c0,.6.22.87.63.87.49,0,.81-.34.81-1.03v-2.29h.63v2.98Z"/><path d="M42.05.73h.63v5.6h-.63V.73Z"/><path d="M45.32,6.28c-.15.05-.36.1-.53.1-.58,0-.88-.23-.88-.9v-2.45h-.6v-.51h.6v-.78l.63-.19v.96h.78v.51h-.78v2.25c0,.43.11.6.4.6.16,0,.27-.04.39-.1v.51Z"/><path d="M48.54,5.51c0,.28.02.55.03.82h-.6l-.02-.57h-.01c-.2.43-.52.62-.96.62-.66,0-1.11-.38-1.11-1.22v-2.64h.63v2.45c0,.6.22.87.63.87.49,0,.81-.34.81-1.03v-2.29h.63v2.98Z"/><path d="M49.44,3.34c0-.28-.02-.55-.03-.82h.6l.02.6h.02c.2-.46.52-.65,1.08-.65v.62c-.07-.02-.16-.02-.24-.02-.49,0-.83.42-.83,1.25v2.01h-.63v-2.98Z"/><path d="M52.12,4.61c0,.88.34,1.29,1.04,1.29.31,0,.66-.16.87-.31l.03.57c-.3.14-.69.22-1.07.22-1.01,0-1.53-.76-1.53-1.96s.52-1.95,1.47-1.95c.86,0,1.34.69,1.34,1.81v.34h-2.15ZM53.64,4.13c0-.79-.25-1.19-.75-1.19-.4,0-.76.3-.78,1.19h1.52Z"/><path d="M2.52,10.07l1.7,5.21h-.69l-.42-1.36h-1.98l-.42,1.36H.06l1.75-5.21h.72ZM2.95,13.35l-.8-2.6h-.02l-.82,2.6h1.63Z"/><path d="M7.47,14.57c0,.23.02.47.03.7h-.6l-.02-.56h-.02c-.16.3-.45.61-1,.61-.78,0-1.31-.64-1.31-1.95s.53-1.95,1.31-1.95c.43,0,.72.17.97.57h.02v-2.31h.63v4.9ZM6.01,11.92c-.57,0-.84.49-.84,1.45s.26,1.45.84,1.45.84-.49.84-1.45-.26-1.45-.84-1.45Z"/><path d="M8.32,12.29c0-.28-.02-.55-.03-.82h.6l.02.57h.01c.2-.43.52-.62.94-.62s.7.21.9.6c.2-.37.49-.6.93-.6.66,0,1.1.38,1.1,1.22v2.64h-.63v-2.61c0-.49-.21-.71-.58-.71-.46,0-.72.28-.72.97v2.35h-.63v-2.61c0-.49-.21-.71-.58-.71-.46,0-.72.28-.72.97v2.35h-.63v-2.98Z"/><path d="M14.42,9.9v.75h-.69v-.75h.69ZM13.76,11.47h.63v3.81h-.63v-3.81Z"/><path d="M15.35,12.29c0-.28-.02-.55-.03-.82h.6l.02.57h.01c.2-.43.52-.62.96-.62.66,0,1.11.38,1.11,1.22v2.64h-.63v-2.46c0-.6-.22-.87-.63-.87-.49,0-.81.34-.81,1.03v2.29h-.63v-2.98Z"/><path d="M19.66,9.9v.75h-.69v-.75h.69ZM19.01,11.47h.63v3.81h-.63v-3.81Z"/><path d="M20.44,14.54c.28.17.58.28.9.28.48,0,.72-.25.72-.54,0-.26-.13-.44-.48-.6l-.42-.19c-.54-.25-.75-.49-.75-.98,0-.63.48-1.1,1.22-1.1.31,0,.59.05.81.13l-.03.54c-.19-.09-.46-.16-.75-.16-.41,0-.63.22-.63.52s.22.48.64.64l.22.09c.46.19.75.5.75.97,0,.66-.35,1.18-1.22,1.18-.4,0-.75-.08-1.03-.22l.04-.57Z"/><path d="M25.04,15.23c-.15.05-.36.1-.53.1-.57,0-.88-.23-.88-.9v-2.45h-.6v-.51h.6v-.78l.63-.19v.96h.78v.51h-.78v2.25c0,.43.11.6.4.6.16,0,.27-.04.39-.1v.51Z"/><path d="M25.57,12.29c0-.28-.02-.55-.03-.82h.6l.02.6h.01c.2-.46.52-.65,1.08-.65v.62c-.07-.02-.16-.02-.24-.02-.48,0-.83.42-.83,1.25v2.01h-.63v-2.98Z"/><path d="M27.92,11.73c.31-.2.7-.31,1.08-.31.56,0,.9.24,1.01.36.16.16.33.4.33.93v1.98c0,.22.01.45.03.58h-.57l-.04-.51h-.02c-.17.29-.48.57-1.07.57-.63,0-1.1-.37-1.1-1.1s.48-1.28,1.79-1.28h.37v-.17c0-.28-.02-.45-.14-.61-.13-.17-.37-.24-.63-.24-.39,0-.76.16-.98.4l-.07-.59ZM29.74,13.41c-.11-.02-.27-.02-.44-.02-.74,0-1.09.35-1.09.79,0,.4.21.66.64.66.54,0,.89-.44.89-.96v-.48Z"/><path d="M32.9,15.23c-.15.05-.36.1-.53.1-.58,0-.88-.23-.88-.9v-2.45h-.6v-.51h.6v-.78l.63-.19v.96h.78v.51h-.78v2.25c0,.43.11.6.4.6.16,0,.27-.04.39-.1v.51Z"/><path d="M34.15,9.9v.75h-.69v-.75h.69ZM33.49,11.47h.63v3.81h-.63v-3.81Z"/><path d="M36.43,11.42c1.01,0,1.53.76,1.53,1.95s-.52,1.95-1.53,1.95-1.53-.76-1.53-1.95.52-1.95,1.53-1.95ZM36.43,14.82c.6,0,.87-.49.87-1.45s-.28-1.45-.87-1.45-.87.49-.87,1.45.28,1.45.87,1.45Z"/><path d="M38.68,12.29c0-.28-.02-.55-.03-.82h.6l.02.57h.02c.2-.43.52-.62.96-.62.66,0,1.11.38,1.11,1.22v2.64h-.63v-2.46c0-.6-.22-.87-.63-.87-.49,0-.81.34-.81,1.03v2.29h-.63v-2.98Z"/><path d="M45.4,11.42c1.01,0,1.53.76,1.53,1.95s-.52,1.95-1.53,1.95-1.53-.76-1.53-1.95.52-1.95,1.53-1.95ZM45.4,14.82c.6,0,.87-.49.87-1.45s-.28-1.45-.87-1.45-.87.49-.87,1.45.28,1.45.87,1.45Z"/><path d="M47.92,11.98h-.6v-.51h.6v-.85c0-.62.28-1.03.95-1.03.17,0,.35.02.49.06v.54c-.08-.06-.21-.09-.36-.09-.35,0-.46.19-.46.57v.8h.69v.51h-.69v3.3h-.63v-3.3Z"/><path d="M.57,19.01h1.34c.55,0,.86.13,1.1.36.27.25.39.61.39.99,0,.55-.26,1.08-1.03,1.25h0c.31.07.46.22.57.52l.73,2.09h-.71l-.6-1.76c-.15-.43-.34-.6-.83-.6h-.3v2.36h-.66v-5.21ZM1.23,21.32h.51c.7,0,.97-.46.97-.92,0-.58-.38-.86-.96-.86h-.52v1.78Z"/><path d="M4.32,18.62h.63v2.31h.01c.16-.32.49-.57.93-.57.66,0,1.11.38,1.11,1.22v2.64h-.63v-2.46c0-.6-.22-.87-.63-.87-.49,0-.81.34-.81,1.03v2.29h-.63v-5.6Z"/><path d="M9.26,20.36c1.01,0,1.53.76,1.53,1.96s-.52,1.95-1.53,1.95-1.53-.76-1.53-1.95.52-1.96,1.53-1.96ZM9.26,23.76c.6,0,.87-.49.87-1.45s-.28-1.45-.87-1.45-.87.49-.87,1.45.28,1.45.87,1.45Z"/><path d="M14.25,23.52c0,.23.02.47.03.7h-.6l-.02-.56h-.02c-.16.3-.45.61-1,.61-.78,0-1.31-.64-1.31-1.95s.53-1.96,1.31-1.96c.43,0,.72.17.97.57h.02v-2.31h.63v4.89ZM12.79,20.87c-.57,0-.84.49-.84,1.45s.26,1.45.84,1.45.84-.49.84-1.45-.26-1.45-.84-1.45Z"/><path d="M15.56,22.5c0,.88.34,1.29,1.04,1.29.31,0,.66-.16.87-.31l.03.57c-.3.14-.69.22-1.07.22-1.01,0-1.53-.76-1.53-1.95s.52-1.96,1.47-1.96c.86,0,1.34.69,1.34,1.81v.34h-2.15ZM17.09,22.02c0-.79-.25-1.19-.75-1.19-.4,0-.76.3-.78,1.19h1.52Z"/><path d="M18.24,23.48c.28.17.58.28.9.28.48,0,.72-.25.72-.54,0-.26-.13-.44-.48-.6l-.42-.19c-.54-.25-.75-.49-.75-.98,0-.63.48-1.1,1.22-1.1.31,0,.59.05.81.13l-.03.54c-.19-.09-.46-.16-.75-.16-.41,0-.63.22-.63.52s.22.48.64.64l.22.09c.46.19.75.5.75.97,0,.66-.35,1.18-1.22,1.18-.4,0-.75-.08-1.03-.22l.04-.57Z"/><path d="M23.07,19.01h.66v5.21h-.66v-5.21Z"/><path d="M24.59,23.48c.28.17.58.28.9.28.48,0,.72-.25.72-.54,0-.26-.13-.44-.48-.6l-.42-.19c-.54-.25-.75-.49-.75-.98,0-.63.48-1.1,1.22-1.1.31,0,.59.05.81.13l-.03.54c-.19-.09-.46-.16-.75-.16-.41,0-.63.22-.63.52s.22.48.64.64l.22.09c.46.19.75.5.75.97,0,.66-.35,1.18-1.22,1.18-.4,0-.75-.08-1.03-.22l.04-.57Z"/><path d="M27.57,18.62h.63v5.6h-.63v-5.6Z"/><path d="M29.32,20.67c.31-.2.7-.31,1.07-.31.56,0,.9.24,1.01.36.16.16.33.39.33.93v1.98c0,.22.02.45.03.58h-.57l-.04-.51h-.01c-.17.29-.49.57-1.07.57-.63,0-1.1-.37-1.1-1.1s.49-1.28,1.79-1.28h.37v-.17c0-.28-.02-.45-.14-.61-.13-.17-.37-.24-.63-.24-.39,0-.76.16-.98.4l-.07-.59ZM31.14,22.35c-.11-.01-.27-.01-.44-.01-.74,0-1.09.35-1.09.79,0,.4.21.66.64.66.54,0,.89-.44.89-.96v-.48Z"/><path d="M32.62,21.23c0-.28-.02-.55-.03-.82h.6l.02.57h.02c.2-.43.52-.62.96-.62.66,0,1.11.38,1.11,1.22v2.64h-.63v-2.46c0-.6-.22-.87-.63-.87-.49,0-.81.34-.81,1.03v2.29h-.63v-2.98Z"/><path d="M38.95,23.52c0,.23.02.47.03.7h-.6l-.02-.56h-.01c-.16.3-.45.61-1,.61-.78,0-1.31-.64-1.31-1.95s.53-1.96,1.31-1.96c.43,0,.72.17.97.57h.01v-2.31h.63v4.89ZM37.49,20.87c-.58,0-.84.49-.84,1.45s.26,1.45.84,1.45.83-.49.83-1.45-.26-1.45-.83-1.45Z"/><rect class="uuid-c612c7cd-273c-49aa-b707-2f67c200c2ea" x="33.85" y="6.11" width="5.32" height=".11"/></svg>