<svg xmlns="http://www.w3.org/2000/svg" width="570" height="200" viewBox="0 0 570 200"><path d="M305.97 167.026c3.36-1.63 5.092-3.87 5.092-6.622 0-2.954-1.222-5.195-3.565-6.722s-5.603-2.343-9.78-2.343c-2.137 0-6.008.101-11.407.306v35.346h12.324c4.381 0 7.946-.917 10.696-2.853 2.75-1.935 4.177-4.481 4.177-7.639-.102-4.787-2.547-7.945-7.538-9.473m-12.529-10.39c1.63-.102 2.954-.102 4.074-.102 4.177 0 6.316 1.325 6.316 4.075 0 3.055-2.343 4.583-6.926 4.583-1.223 0-2.344 0-3.464-.102zm10.39 23.836c-1.426.916-3.769 1.426-6.926 1.426-.917 0-2.038-.102-3.464-.204V169.98c1.732 0 2.852-.102 3.565-.102 3.362 0 5.704.408 7.029 1.426 1.325.917 2.037 2.343 2.037 4.38-.102 2.241-.815 3.871-2.242 4.788m30.05-7.946 13.548-20.881h-7.538l-9.575 15.074-9.473-15.074h-7.64l13.548 20.88v14.466h7.13zM458 169.878c-1.222-1.019-3.158-2.037-5.806-3.159-5.093-2.24-7.64-4.277-7.64-6.315 0-1.222.409-2.24 1.325-2.954.917-.814 2.138-1.12 3.87-1.12 2.75 0 5.4.815 7.946 2.343l2.139-5.398c-2.14-1.529-5.602-2.344-10.288-2.344-3.565 0-6.52.917-8.76 2.75-2.242 1.833-3.464 4.075-3.464 6.825 0 1.427.305 2.853.815 3.973.611 1.223 1.426 2.241 2.445 3.159 1.12.917 3.158 2.036 6.213 3.36q4.584 1.986 6.112 3.667c1.528 1.68 1.528 2.242 1.528 3.463 0 2.547-2.14 3.871-6.315 3.871-2.75 0-5.5-.916-8.353-2.648l-2.649 5.602c3.056 1.732 6.417 2.547 10.187 2.547q6.416 0 10.39-2.75c2.547-1.833 3.87-4.177 3.87-7.13 0-1.63-.305-3.057-.916-4.38-.51-1.325-1.427-2.446-2.65-3.362m24.245-18.947h-3.159L462.99 186.89h7.946l2.852-7.232h13.751l2.955 7.232h7.843zm-6.418 23.938 4.788-13.14 4.787 13.14zM315.34 22.687c25.262 0 45.839 20.575 45.839 45.837s-20.577 45.838-45.839 45.838-45.838-20.575-45.838-45.838c0-25.262 20.577-45.837 45.838-45.837m0-10.187c-30.966 0-56.024 25.058-56.024 56.024s25.058 56.025 56.024 56.025 56.025-25.058 56.025-56.025S346.307 12.5 315.34 12.5"/><circle cx="315.34" cy="40.411" r="8.047"/><path d="M328.787 55.588c0-.815.101-2.342-1.121-3.565-1.121-1.12-2.75-1.12-3.565-1.12h-17.622c-.815 0-2.344-.102-3.565 1.12-1.121 1.12-1.121 2.75-1.121 3.565v22.308h5.093v26.891h16.706v-26.89h5.092c.103 0 .103-19.253.103-22.31"/><circle cx="122.565" cy="100" r="69.776" fill="none" stroke="#000" stroke-miterlimit="10" stroke-width="13.386"/><path d="M103.008 113.548c-7.03 0-10.288-5.806-10.288-13.548s2.75-13.547 10.288-13.547c2.037 0 6.112 1.12 8.454 6.213l10.187-5.297c-4.279-7.843-11.714-11.001-20.271-11.001-12.427 0-22.41 8.76-22.41 23.734 0 15.178 9.372 23.734 22.816 23.734 8.659 0 15.994-4.788 20.068-11.918l-9.473-4.787c-2.037 4.889-5.297 6.416-9.371 6.416m53.58-6.62c-2.14 5.093-5.297 6.621-9.372 6.621-7.028 0-10.288-5.806-10.288-13.548s2.75-13.547 10.288-13.547c2.037 0 6.111 1.12 8.455 6.213l10.185-5.297c-4.277-7.843-11.714-11.001-20.27-11.001-12.427 0-22.41 8.76-22.41 23.734 0 15.178 9.372 23.734 22.817 23.734 8.659 0 15.993-4.788 20.067-11.918zM467.88 22.686c25.262 0 45.838 20.576 45.838 45.838 0 25.263-20.576 45.838-45.838 45.838-25.263 0-45.838-20.575-45.838-45.838 0-25.262 20.576-45.837 45.838-45.837m0-10.187c-30.967 0-56.025 25.058-56.025 56.024s25.058 56.025 56.025 56.025 56.024-25.058 56.024-56.025S498.846 12.5 467.88 12.5"/><path d="M469.102 38.373h-1.732c-10.084.204-23.835 7.233-23.835 20.983h-4.788l10.9 12.225 10.898-12.225h-3.972c.815-5.907 6.112-9.778 12.122-9.269h.713c9.88 0 13.751 7.436 14.057 18.437.305 11.511-6.316 18.642-14.057 18.438-8.15-.204-11.307-4.075-12.428-9.984h-14.566c2.445 13.65 12.427 21.698 26.79 21.698 16.196 0 27.809-13.446 27.809-30.152 0-17.724-11.714-30.15-27.911-30.15"/></svg>