<?xml version="1.0" encoding="UTF-8"?>
<svg id="_图层_1" data-name="图层 1" xmlns="http://www.w3.org/2000/svg" viewBox="0 0 100 47.85">
  <path d="M1.05,2.07h1.2v4.07h3.34V2.07h1.2v9.54h-1.2v-4.43h-3.34v4.43h-1.2V2.07Z"/>
  <path d="M10,1.77v1.37h-1.26v-1.37h1.26ZM8.79,4.64h1.15v6.97h-1.15v-6.97Z"/>
  <path d="M11.42,10.26c.52.31,1.07.52,1.64.52.88,0,1.33-.45,1.33-.98,0-.48-.25-.81-.89-1.09l-.77-.34c-1-.45-1.37-.9-1.37-1.79,0-1.15.89-2.02,2.24-2.02.57,0,1.08.1,1.48.25l-.05.98c-.36-.16-.85-.3-1.37-.3-.75,0-1.15.41-1.15.96s.41.88,1.18,1.18l.41.16c.85.34,1.38.92,1.38,1.78,0,1.2-.64,2.16-2.24,2.16-.72,0-1.38-.15-1.89-.41l.07-1.04Z"/>
  <path d="M19.86,11.53c-.27.1-.66.18-.97.18-1.05,0-1.61-.42-1.61-1.65v-4.48h-1.11v-.93h1.11v-1.42l1.15-.34v1.76h1.44v.93h-1.44v4.12c0,.79.21,1.09.72,1.09.29,0,.49-.08.71-.18v.93Z"/>
  <path d="M23.29,4.54c1.85,0,2.8,1.39,2.8,3.58s-.96,3.58-2.8,3.58-2.8-1.39-2.8-3.58.96-3.58,2.8-3.58ZM23.29,10.78c1.09,0,1.6-.9,1.6-2.65s-.51-2.65-1.6-2.65-1.6.9-1.6,2.65.51,2.65,1.6,2.65Z"/>
  <path d="M27.42,6.14c0-.51-.04-1.01-.05-1.5h1.11l.04,1.09h.03c.37-.85.96-1.19,1.98-1.19v1.13c-.14-.03-.29-.04-.44-.04-.89,0-1.52.77-1.52,2.28v3.69h-1.15v-5.47Z"/>
  <path d="M33.66,13.03c-.34,1.19-.83,1.61-1.71,1.61-.27,0-.57-.03-.78-.08l.05-1.04c.18.08.38.14.63.14.33,0,.57-.15.77-.88l.27-1.07-2.2-7.08h1.2l1.56,5.69h.03l1.45-5.69h1.15l-2.42,8.39Z"/>
  <path d="M40.59,5.12c.57-.37,1.29-.57,1.97-.57,1.03,0,1.64.44,1.86.66.3.3.6.72.6,1.71v3.64c0,.41.03.82.05,1.07h-1.04l-.07-.94h-.03c-.31.53-.89,1.04-1.96,1.04-1.15,0-2.01-.67-2.01-2.01s.89-2.35,3.28-2.35h.67v-.31c0-.52-.04-.82-.26-1.12-.23-.31-.68-.44-1.16-.44-.71,0-1.39.29-1.79.72l-.12-1.08ZM43.93,8.19c-.21-.03-.49-.03-.81-.03-1.35,0-2,.64-2,1.45,0,.74.38,1.22,1.18,1.22,1,0,1.63-.81,1.63-1.76v-.88Z"/>
  <path d="M46.65,6.14c0-.51-.04-1.01-.05-1.5h1.11l.04,1.04h.03c.37-.79.96-1.13,1.76-1.13,1.22,0,2.04.7,2.04,2.23v4.84h-1.15v-4.5c0-1.11-.41-1.59-1.15-1.59-.9,0-1.48.63-1.48,1.89v4.2h-1.15v-5.47Z"/>
  <path d="M58.26,10.33c0,.42.04.86.05,1.29h-1.11l-.04-1.03h-.03c-.3.55-.82,1.12-1.83,1.12-1.44,0-2.41-1.18-2.41-3.58s.97-3.58,2.41-3.58c.79,0,1.31.31,1.78,1.05h.03V1.36h1.15v8.97ZM55.58,5.47c-1.05,0-1.53.9-1.53,2.65s.48,2.65,1.53,2.65,1.53-.9,1.53-2.65-.48-2.65-1.53-2.65Z"/>
  <path d="M68.95,11.42c-.57.18-1.18.29-1.74.29-3.02,0-4.29-2.3-4.29-4.88,0-2.98,1.74-4.85,4.22-4.85.68,0,1.37.12,1.8.34v1.18c-.52-.33-1.12-.48-1.79-.48-1.56,0-2.98,1.24-2.98,3.57,0,2.46.98,4.09,3.06,4.09.62,0,1.22-.16,1.71-.45v1.2Z"/>
  <path d="M75.37,10.11c0,.51.04,1.01.05,1.5h-1.11l-.04-1.04h-.03c-.37.79-.96,1.13-1.76,1.13-1.22,0-2.04-.7-2.04-2.23v-4.84h1.15v4.5c0,1.11.41,1.59,1.15,1.59.9,0,1.48-.63,1.48-1.89v-4.2h1.15v5.47Z"/>
  <path d="M77.15,1.36h1.15v10.25h-1.15V1.36Z"/>
  <path d="M83.15,11.53c-.27.1-.66.18-.97.18-1.05,0-1.61-.42-1.61-1.65v-4.48h-1.11v-.93h1.11v-1.42l1.15-.34v1.76h1.44v.93h-1.44v4.12c0,.79.21,1.09.72,1.09.29,0,.49-.08.71-.18v.93Z"/>
  <path d="M89.04,10.11c0,.51.04,1.01.05,1.5h-1.11l-.04-1.04h-.03c-.37.79-.96,1.13-1.76,1.13-1.22,0-2.04-.7-2.04-2.23v-4.84h1.15v4.5c0,1.11.41,1.59,1.15,1.59.9,0,1.48-.63,1.48-1.89v-4.2h1.15v5.47Z"/>
  <path d="M90.71,6.14c0-.51-.04-1.01-.05-1.5h1.11l.04,1.09h.03c.37-.85.96-1.19,1.98-1.19v1.13c-.14-.03-.29-.04-.44-.04-.89,0-1.52.77-1.52,2.28v3.69h-1.15v-5.47Z"/>
  <path d="M95.62,8.47c0,1.61.63,2.37,1.9,2.37.57,0,1.2-.29,1.6-.57l.05,1.04c-.55.26-1.26.41-1.96.41-1.85,0-2.8-1.39-2.8-3.58s.96-3.58,2.69-3.58c1.57,0,2.45,1.26,2.45,3.31v.62h-3.94ZM98.41,7.59c0-1.45-.45-2.17-1.37-2.17-.74,0-1.39.55-1.42,2.17h2.79Z"/>
  <path d="M4.62,18.48l3.12,9.54h-1.26l-.77-2.49h-3.64l-.77,2.49H.11l3.2-9.54h1.31ZM5.4,24.5l-1.46-4.76h-.03l-1.5,4.76h2.99Z"/>
  <path d="M13.7,26.74c0,.42.04.86.05,1.29h-1.11l-.04-1.03h-.03c-.3.55-.82,1.12-1.83,1.12-1.44,0-2.41-1.18-2.41-3.58s.97-3.58,2.41-3.58c.79,0,1.31.31,1.78,1.05h.03v-4.24h1.15v8.97ZM11.02,21.89c-1.05,0-1.53.9-1.53,2.65s.48,2.65,1.53,2.65,1.53-.9,1.53-2.65-.48-2.65-1.53-2.65Z"/>
  <path d="M15.26,22.56c0-.51-.04-1.01-.05-1.5h1.11l.04,1.04h.03c.37-.79.96-1.13,1.72-1.13s1.29.38,1.64,1.09c.37-.68.9-1.09,1.7-1.09,1.2,0,2.02.7,2.02,2.23v4.84h-1.15v-4.78c0-.89-.38-1.3-1.07-1.3-.85,0-1.31.52-1.31,1.78v4.31h-1.15v-4.78c0-.89-.38-1.3-1.07-1.3-.85,0-1.31.52-1.31,1.78v4.31h-1.15v-5.47Z"/>
  <path d="M26.45,18.18v1.37h-1.26v-1.37h1.26ZM25.25,21.05h1.15v6.97h-1.15v-6.97Z"/>
  <path d="M28.17,22.56c0-.51-.04-1.01-.05-1.5h1.11l.04,1.04h.03c.37-.79.96-1.13,1.76-1.13,1.22,0,2.04.7,2.04,2.23v4.84h-1.15v-4.5c0-1.11-.41-1.59-1.15-1.59-.9,0-1.48.63-1.48,1.89v4.2h-1.15v-5.47Z"/>
  <path d="M36.08,18.18v1.37h-1.26v-1.37h1.26ZM34.87,21.05h1.15v6.97h-1.15v-6.97Z"/>
  <path d="M42.82,26.74c0,.42.04.86.05,1.29h-1.11l-.04-1.03h-.03c-.3.55-.82,1.12-1.83,1.12-1.44,0-2.41-1.18-2.41-3.58s.97-3.58,2.41-3.58c.79,0,1.31.31,1.78,1.05h.03v-4.24h1.15v8.97ZM40.14,21.89c-1.05,0-1.53.9-1.53,2.65s.48,2.65,1.53,2.65,1.53-.9,1.53-2.65-.48-2.65-1.53-2.65Z"/>
  <path d="M44.08,26.67c.52.31,1.07.52,1.64.52.88,0,1.33-.45,1.33-.98,0-.48-.25-.81-.89-1.09l-.77-.34c-1-.45-1.37-.9-1.37-1.79,0-1.15.89-2.02,2.24-2.02.57,0,1.08.1,1.48.25l-.05.98c-.36-.16-.85-.3-1.37-.3-.75,0-1.15.41-1.15.96s.41.88,1.18,1.18l.41.16c.85.34,1.38.92,1.38,1.78,0,1.2-.64,2.16-2.24,2.16-.72,0-1.38-.15-1.89-.41l.07-1.04Z"/>
  <path d="M52.52,27.94c-.27.1-.66.18-.97.18-1.05,0-1.61-.42-1.61-1.65v-4.48h-1.11v-.93h1.11v-1.42l1.15-.34v1.76h1.44v.93h-1.44v4.11c0,.79.21,1.09.72,1.09.29,0,.49-.08.71-.18v.93Z"/>
  <path d="M53.49,22.56c0-.51-.04-1.01-.05-1.5h1.11l.04,1.09h.03c.37-.85.96-1.19,1.98-1.19v1.13c-.14-.03-.29-.04-.44-.04-.89,0-1.52.77-1.52,2.28v3.69h-1.15v-5.47Z"/>
  <path d="M57.81,21.53c.57-.37,1.29-.57,1.97-.57,1.03,0,1.64.44,1.86.66.3.3.6.72.6,1.71v3.64c0,.41.03.82.05,1.07h-1.04l-.07-.94h-.03c-.31.53-.89,1.04-1.96,1.04-1.15,0-2.01-.67-2.01-2.01s.89-2.35,3.28-2.35h.67v-.31c0-.52-.04-.82-.26-1.12-.23-.31-.68-.44-1.16-.44-.71,0-1.39.29-1.79.72l-.12-1.08ZM61.15,24.61c-.21-.03-.49-.03-.81-.03-1.35,0-2,.64-2,1.45,0,.74.38,1.22,1.18,1.22,1,0,1.63-.81,1.63-1.76v-.88Z"/>
  <path d="M66.94,27.94c-.27.1-.66.18-.97.18-1.05,0-1.61-.42-1.61-1.65v-4.48h-1.11v-.93h1.11v-1.42l1.15-.34v1.76h1.44v.93h-1.44v4.11c0,.79.21,1.09.72,1.09.29,0,.49-.08.71-.18v.93Z"/>
  <path d="M69.23,18.18v1.37h-1.26v-1.37h1.26ZM68.03,21.05h1.15v6.97h-1.15v-6.97Z"/>
  <path d="M73.41,20.96c1.85,0,2.8,1.39,2.8,3.58s-.96,3.58-2.8,3.58-2.8-1.39-2.8-3.58.96-3.58,2.8-3.58ZM73.41,27.19c1.09,0,1.6-.9,1.6-2.65s-.51-2.65-1.6-2.65-1.6.9-1.6,2.65.51,2.65,1.6,2.65Z"/>
  <path d="M77.54,22.56c0-.51-.04-1.01-.05-1.5h1.11l.04,1.04h.03c.37-.79.96-1.13,1.76-1.13,1.22,0,2.04.7,2.04,2.23v4.84h-1.15v-4.5c0-1.11-.41-1.59-1.15-1.59-.9,0-1.48.63-1.48,1.89v4.2h-1.15v-5.47Z"/>
  <path d="M89.88,20.96c1.85,0,2.8,1.39,2.8,3.58s-.96,3.58-2.8,3.58-2.8-1.39-2.8-3.58.96-3.58,2.8-3.58ZM89.88,27.19c1.09,0,1.6-.9,1.6-2.65s-.51-2.65-1.6-2.65-1.6.9-1.6,2.65.51,2.65,1.6,2.65Z"/>
  <path d="M94.5,21.98h-1.11v-.93h1.11v-1.56c0-1.13.52-1.89,1.74-1.89.31,0,.64.04.9.11v.98c-.14-.11-.38-.16-.66-.16-.64,0-.83.36-.83,1.05v1.46h1.26v.93h-1.26v6.04h-1.15v-6.04Z"/>
  <path d="M1.05,34.89h2.45c1.01,0,1.57.25,2.01.66.49.46.71,1.12.71,1.82,0,1.01-.48,1.98-1.89,2.28v.03c.57.11.85.38,1.04.93l1.34,3.83h-1.3l-1.09-3.23c-.27-.79-.62-1.09-1.52-1.09h-.55v4.32h-1.2v-9.54ZM2.26,39.13h.93c1.29,0,1.78-.85,1.78-1.68,0-1.07-.7-1.57-1.75-1.57h-.96v3.25Z"/>
  <path d="M7.93,34.18h1.15v4.24h.03c.3-.59.9-1.05,1.71-1.05,1.22,0,2.04.7,2.04,2.23v4.84h-1.15v-4.5c0-1.11-.41-1.59-1.15-1.59-.9,0-1.48.63-1.48,1.89v4.2h-1.15v-10.25Z"/>
  <path d="M16.98,37.37c1.85,0,2.8,1.39,2.8,3.58s-.96,3.58-2.8,3.58-2.8-1.39-2.8-3.58.96-3.58,2.8-3.58ZM16.98,43.6c1.09,0,1.6-.9,1.6-2.65s-.51-2.65-1.6-2.65-1.6.9-1.6,2.65.51,2.65,1.6,2.65Z"/>
  <path d="M26.13,43.15c0,.42.04.86.05,1.29h-1.11l-.04-1.03h-.03c-.3.55-.82,1.12-1.83,1.12-1.44,0-2.41-1.18-2.41-3.58s.97-3.58,2.41-3.58c.79,0,1.31.31,1.78,1.05h.03v-4.24h1.15v8.97ZM23.45,38.3c-1.05,0-1.53.9-1.53,2.65s.48,2.65,1.53,2.65,1.53-.9,1.53-2.65-.48-2.65-1.53-2.65Z"/>
  <path d="M28.56,41.29c0,1.61.63,2.37,1.9,2.37.57,0,1.2-.29,1.6-.57l.05,1.04c-.55.26-1.26.41-1.96.41-1.85,0-2.8-1.39-2.8-3.58s.96-3.58,2.69-3.58c1.57,0,2.45,1.26,2.45,3.31v.62h-3.94ZM31.34,40.42c0-1.45-.45-2.17-1.37-2.17-.74,0-1.39.55-1.42,2.17h2.79Z"/>
  <path d="M33.47,43.08c.52.31,1.07.52,1.64.52.88,0,1.33-.45,1.33-.98,0-.48-.25-.81-.89-1.09l-.77-.34c-1-.45-1.37-.9-1.37-1.79,0-1.15.89-2.02,2.24-2.02.57,0,1.08.1,1.48.25l-.05.98c-.36-.16-.85-.3-1.37-.3-.75,0-1.15.41-1.15.96s.41.88,1.18,1.18l.41.16c.85.34,1.38.92,1.38,1.78,0,1.2-.64,2.16-2.24,2.16-.72,0-1.38-.15-1.89-.41l.07-1.04Z"/>
  <path d="M42.33,34.89h1.2v9.54h-1.2v-9.54Z"/>
  <path d="M45.12,43.08c.52.31,1.07.52,1.64.52.88,0,1.33-.45,1.33-.98,0-.48-.25-.81-.89-1.09l-.77-.34c-1-.45-1.37-.9-1.37-1.79,0-1.15.89-2.02,2.24-2.02.57,0,1.08.1,1.48.25l-.05.98c-.36-.16-.85-.3-1.37-.3-.75,0-1.15.41-1.15.96s.41.88,1.18,1.18l.41.16c.85.34,1.38.92,1.38,1.78,0,1.2-.64,2.16-2.24,2.16-.72,0-1.38-.15-1.89-.41l.07-1.04Z"/>
  <path d="M50.59,34.18h1.15v10.25h-1.15v-10.25Z"/>
  <path d="M53.79,37.94c.57-.37,1.29-.57,1.97-.57,1.03,0,1.64.44,1.86.66.3.3.6.72.6,1.71v3.64c0,.41.03.82.05,1.07h-1.04l-.07-.94h-.03c-.31.53-.89,1.04-1.96,1.04-1.15,0-2.01-.67-2.01-2.01s.89-2.35,3.28-2.35h.67v-.31c0-.52-.04-.82-.26-1.12-.23-.31-.68-.44-1.16-.44-.71,0-1.39.29-1.79.72l-.12-1.08ZM57.12,41.02c-.21-.03-.49-.03-.81-.03-1.35,0-2,.64-2,1.45,0,.74.38,1.22,1.18,1.22,1,0,1.63-.81,1.63-1.76v-.88Z"/>
  <path d="M59.85,38.97c0-.51-.04-1.01-.05-1.5h1.11l.04,1.04h.03c.37-.79.96-1.13,1.76-1.13,1.22,0,2.04.7,2.04,2.23v4.84h-1.15v-4.5c0-1.11-.41-1.59-1.15-1.59-.9,0-1.48.63-1.48,1.89v4.2h-1.15v-5.47Z"/>
  <path d="M71.46,43.15c0,.42.04.86.05,1.29h-1.11l-.04-1.03h-.03c-.3.55-.82,1.12-1.83,1.12-1.44,0-2.41-1.18-2.41-3.58s.97-3.58,2.41-3.58c.79,0,1.31.31,1.78,1.05h.03v-4.24h1.15v8.97ZM68.78,38.3c-1.05,0-1.53.9-1.53,2.65s.48,2.65,1.53,2.65,1.53-.9,1.53-2.65-.48-2.65-1.53-2.65Z"/>
</svg>