<?xml version="1.0" encoding="UTF-8"?>
<svg id="Layer_1_复制" data-name="Layer 1_复制" xmlns="http://www.w3.org/2000/svg" viewBox="0 0 597.42 597.42">
  <defs>
    <style>
      .cls-1 {
        fill: #040000;
      }

      .cls-1, .cls-2 {
        stroke-width: 0px;
      }

      .cls-2 {
        fill: #fff;
      }
    </style>
  </defs>
  <g>
    <path class="cls-1" d="M298.71,596.92c-79.65,0-154.54-31.02-210.87-87.34S.5,378.36.5,298.71,31.52,144.17,87.84,87.84C144.17,31.52,219.05.5,298.71.5s154.54,31.02,210.87,87.34c56.32,56.32,87.34,131.21,87.34,210.87s-31.02,154.54-87.34,210.87-131.21,87.34-210.87,87.34Z"/>
    <path class="cls-2" d="M298.71,1c40.19,0,79.18,7.87,115.88,23.4,35.45,14.99,67.29,36.46,94.63,63.8,27.34,27.34,48.81,59.18,63.8,94.63,15.52,36.7,23.4,75.69,23.4,115.88s-7.87,79.18-23.4,115.88c-14.99,35.45-36.46,67.29-63.8,94.63-27.34,27.34-59.18,48.81-94.63,63.8-36.7,15.52-75.69,23.4-115.88,23.4s-79.18-7.87-115.88-23.4c-35.45-14.99-67.29-36.46-94.63-63.8-27.34-27.34-48.81-59.18-63.8-94.63C8.87,377.89,1,338.9,1,298.71s7.87-79.18,23.4-115.88c14.99-35.45,36.46-67.29,63.8-94.63,27.34-27.34,59.18-48.81,94.63-63.8C219.53,8.87,258.52,1,298.71,1M298.71,0C133.74,0,0,133.74,0,298.71s133.74,298.71,298.71,298.71,298.71-133.74,298.71-298.71S463.68,0,298.71,0h0Z"/>
  </g>
  <g>
    <polygon class="cls-2" points="75.92 457.82 303.66 63.36 531.41 457.82 75.92 457.82"/>
    <path class="cls-2" d="M303.66,64.36l226.88,392.96H76.78L303.66,64.36M303.66,62.36L75.05,458.32h457.22L303.66,62.36h0Z"/>
  </g>
  <path class="cls-1" d="M378.71,403.83c-9.25-9.66-22.96-16.26-27.04-28.39-1.99-2.1-2.12-4.59-1.17-6.67-.05-1.64.06-3.37.35-5.21.35-2.21,1.47-3.6,2.92-4.32-.53-4.18-.29-8.35-.76-12.52-.52-4.59-1.89-9.18-2.69-13.73-.02-.13-.02-.25-.04-.37-1.32-.76-2.39-2.04-2.92-3.94-3.98-14.26-6.72-28.81-10.11-43.21-.8-.53-1.53-1.27-2.13-2.28-3.45-5.82-4.63-15.97.65-21.16.95-.93,2.01-1.56,3.12-2.03.57-1.89,2.03-3.47,4.6-4.04,1.86-.41,4.72-.49,7.7-.68-.25-1.77.13-3.61,1.09-5.08-1.08-4.18-1.95-8.42-2.77-12.61-.7-1.06-1.11-2.3-1.06-3.62.02-.44.06-.88.11-1.31-1.66-8.8-2.73-17.7-3.17-26.64-.13,0-.25,0-.38,0-12.05.06-24.06.94-36.1,1.19-11.51.24-22.96.17-34.45,1.05-4.1.32-8.31.68-12.44.47-.45,5.69-1.88,11.22-3.05,16.81-1.26,6-2.4,12-4.26,17.83-.04,1.11-.08,2.23-.09,3.37-.01,1.61.08,3.47.4,5.29.65.54,1.15,1.22,1.53,1.96.19.08.37.16.52.23.1.04.66.24.93.39.05.03.09.06.14.09.35.22,1.13.84,1.44,1.11.09.08.16.15.24.24.13.15.27.32.41.49.66.02,1.24.15,1.79.31,3.46.44,5.32,3.18,5.55,6.09.38-.1.79-.38,1.07-.99.56-1.23,1.81-2.2,2.9-3.13.49-.42,1.3-.47,1.97-.69-.8-.12-1.6-.32-2.4-.35-1.53-.06-3.06,0-4.59-.03-.29,0-.58-.22-.87-.34.31-.22.69-.69.93-.63,2.79.73,5.57-1.81,8.35-.05.08.05.36-.07.41-.17.27-.57.49-1.15.73-1.73.6.52,1.14,1.17,1.83,1.52.46.23,1.14.04,1.72.04-.05-2.11,2.18-1.17,2.64-1.82,1.27-1.79,2.26.8,3.79-.21,1.57-1.03,4.18-.76,6.3-.59,1.99.16,4.36-2.57,6.02.65.03.06.52,0,.68-.15.51-.44.97-.95,1.45-1.43.36.59.61,1.36,1.13,1.71.29.19,1.5-.3,1.51-.5.03-1.12.84-1.89,1.48-1.3,1.32,1.22,2.2,1.13,3.35-.04.15-.15.86.26,1.3.4-.22.53-.28,1.27-.68,1.56-1.74,1.3-3.93.71-5.86.93-4.93.57-9.89.23-14.9.9-4.09.55-8.16,2.64-12.48,1.29-.14-.04-.42.35-.64.55.28.15.55.32.84.44s.6.19.9.28c-.25.25-.46.63-.76.72q-2.61.76-5.39,3.83c-.18.2-.61.16-.89.28-1.1.47-1.64,1.21-1.85,2.31.5.69.88,1.54,1.09,2.58,1.58,7.67-.84,15.35-3.31,22.58-.25.75-.51,1.49-.77,2.24,0,.14.02.27.02.41-.08,6.95-1.81,13.46-3.72,20.09-.43,1.49-.82,3-1.2,4.51.34.76.56,1.62.62,2.59.44,8.32-.62,17.5-3.82,25.24-1.44,3.48-3.55,6.23-6.09,8.97-2.08,2.24-4.67,3.98-4.63,7.25.05,3.58-2.19,5.7-4.87,6.35-.21.4-.45.78-.73,1.14-.01.08-.01.16-.03.24-.92,5.6-5.53,8.99-10.25,11.65-.13.71-.34,1.42-.67,2.09-.75,1.53-1.78,2.92-2.99,4.18-.18.75-.51,1.51-1.05,2.29-2.72,3.93-7.23,6.39-11.67,8.36-3.54,4.02-8.25,6-13.34,6.36,0,.83-.15,1.63-.46,2.37,34.51.02,69.03.02,103.54.02,26.15,0,52.3,0,78.45,0,.18-.64.39-1.27.58-1.9-1.22-.21-2.44-.83-3.54-1.98ZM349.47,250.83c.38.06.74.25.9.32-.33.8-.45,1.08-.57,1.36-.22-.29-.55-.56-.64-.89-.06-.23.24-.8.31-.79ZM345.29,250.67c.24-.03.51.3.91.57-.54.16-.97.37-1.41.39-.25,0-.51-.31-.77-.48.42-.17.83-.43,1.27-.48ZM340.84,250.55c.34.18.74.38,1.15.59-.26.17-.53.5-.77.48-.44-.05-.85-.31-1.27-.48.26-.17.52-.34.89-.59ZM336.21,250.82c.44-.04.9-.05,1.34,0,.05,0,.05.43.08.78-.53-.04-.98-.06-1.41-.14-.04,0-.02-.64,0-.64ZM259.69,251.46c-.08.02-.22-.21-.34-.32.22-.12.44-.24.66-.36.14.14.25.25.36.36-.23.11-.44.27-.68.32ZM298.09,212.92c.33.09.59.41.89.64-.28.12-.56.23-1.34.56-.07-.16-.22-.52-.38-.88.28-.12.6-.38.83-.31ZM284.94,212.9c1.39-.38,3.06.7,4.26-.79,1.28.93,2.44.98,3.7-.17.18-.17,1.31.71,2.03,1.12-6.71.41-10.3.62-12.32.72.77-.33,1.53-.67,2.33-.89ZM270.07,213.91l.36.36c-.12.21-.24.44-.36.66-.11-.11-.34-.25-.32-.34.05-.24.21-.46.32-.68ZM269.89,248.78c.24.05.46.21.68.32-.11.11-.23.23-.36.36-.21-.12-.44-.24-.66-.36.11-.11.25-.34.34-.32ZM265.99,248.59c.11.11.23.23.36.36-.12.21-.24.44-.36.66-.11-.11-.34-.25-.32-.34.05-.24.21-.46.32-.68ZM269.01,253.71c-.49-.1-1.01-.01-2.35-.01,1.79-.07,3.15-.11,4.2-.14-.57.2-1.17.29-1.85.15ZM271.19,253.42c-4.96.2-5.78.06-6.58-.08.93-.35,2.02-.5,2.74-1.1,1.03-.86,1.57-.22,2.52.06,1.08.32,2.39-1.49,3.77-.13-.84.34-1.61.89-2.45,1.25ZM273.85,253.3c-.07-.06-.14-.12-.22-.17l.45-.45c.16.2.32.4.48.59-.25.01-.48.02-.72.03ZM274,249.46c-.14-.14-.25-.25-.36-.36.23-.11.44-.27.68-.32.08-.02.22.21.34.32-.22.12-.44.24-.66.36ZM273.83,218.32c-.02-.08.21-.22.32-.34.12.22.24.44.36.66l-.36.36c-.11-.23-.27-.44-.32-.68ZM279.21,249.58c-.45-.03-.89-.2-1.34-.31.13-.22.24-.63.39-.64.45-.03.9.1,1.45.17-.23.37-.38.79-.5.78ZM279.76,213.91c-.59,0-.94,0-1.14,0,.17,0,.4.01.65.03.17.01.33.31.5.47-.26.17-.51.49-.77.5-1.32.05-2.64.06-3.96,0-.44-.02-.87-.27-1.31-.41.53-.2,1.04-.46,1.58-.57.48-.1.99-.02,1.48-.02,3.4-.34,3.82-.68,4.24-1.02.24.32.48.63.72.95-1.39.07-1.69.07-1.99.07ZM283.33,249.61c-.11-.23-.27-.44-.32-.68-.02-.08.21-.22.32-.34.12.22.24.44.36.66-.14.14-.25.25-.36.36ZM282.6,214.92c-.28-.14-.54-.34-.81-.51.17-.17.31-.41.51-.5.03-.01.05-.02.08-.03,12.35-.44,12.28-.03,12.17-.02-1.52.05-3.06-.08-4.57.08-1.23.14-2.96,1.28-3.54.82-1.56-1.25-2.6.79-3.85.16ZM289.45,251.65c-.12-.22-.24-.44-.36-.66.14-.14.25-.25.36-.36.11.23.27.44.32.68.02.08-.21.22-.32.34ZM294.52,251.62c-.45-.03-.89-.2-1.34-.31.13-.22.24-.63.39-.64.45-.03.9.1,1.45.17-.23.37-.38.79-.5.78ZM297.65,251.62c-.14,0-.26-.41-.39-.64.44-.12.89-.28,1.34-.31.12,0,.27.4.5.78-.55.08-1.01.2-1.45.17ZM300.22,249.59c-2.37.03-4.73.02-7.1.02-.68,0-1.37.11-2.02-.02-1.69-.33-3.56.82-5.11-.6,1.83-.47,3.65-1.07,5.51-1.34.46-.07.77.66,1.83.33,1.87-.59,4.12,1.5,6.13-.38.05-.04.53.31.75.54.32.33.58.71.87,1.07-.28.13-.56.38-.85.38ZM338.41,343.46c.11.11.23.23.36.36-.12.21-.24.44-.36.66-.11-.11-.34-.25-.32-.34.05-.24.21-.46.32-.68ZM334.33,343.46c.11.23.27.44.32.68.02.08-.21.22-.32.34-.11-.23-.27-.44-.32-.68-.02-.08.21-.22.32-.34ZM334.33,213.91c.12.22.24.44.36.66-.14.14-.25.25-.36.36-.11-.23-.27-.44-.32-.68-.02-.08.21-.22.32-.34ZM332.47,250.82c.08-.02.22.21.34.32-.23.11-.44.27-.68.32-.08.02-.22-.21-.34-.32.23-.11.44-.27.68-.32ZM321.92,210.02c.24.05.46.21.68.32-.11.11-.23.23-.36.36-.21-.12-.44-.24-.66-.36.11-.11.25-.34.34-.32ZM315.45,212.4c.76.34,1.48.78,2.05,1.09,0,.56.07.8-.01.88-.18.17-.5.43-.65.37-.7-.28-1.44-.57-2.02-1.03-.29-.23-.26-.85-.38-1.3.34-.01.73-.14,1.01-.01ZM312.91,209.83c.11.11.34.25.32.34-.05.24-.21.46-.32.68l-.36-.36c.12-.21.24-.44.36-.66ZM312.86,213.91c.16.2.32.4.48.59-.3-.1-.56-.19-.79-.28l.31-.31ZM311.08,212.07l1.32,1.83h-.63c-1.06-.47-1.27-.78-1.36-1.13-.04-.17.43-.47.67-.71ZM308.98,209.97l.36.36c-.23.11-.44.27-.68.32-.08.02-.22-.21-.34-.32.22-.12.44-.24.66-.36ZM306.63,212.03c.22.13.63.24.64.39.03.44-.1.9-.17,1.45-.37-.23-.79-.38-.78-.5.03-.45.2-.89.31-1.34ZM301.72,251.86c-.07-.16-.22-.52-.38-.88.28-.12.6-.38.83-.31.33.09.59.41.89.64-.28.12-.56.23-1.34.56ZM308.83,339.38c.12.22.24.44.36.66l-.36.36c-.11-.23-.27-.44-.32-.68-.02-.08.21-.22.32-.34ZM293.68,316.07c.14.14.25.25.36.36-.23.11-.44.27-.68.32-.08.02-.22-.21-.34-.32.22-.12.44-.24.66-.36ZM293.89,324.74c-.14.14-.25.25-.36.36-.11-.23-.27-.44-.32-.68-.02-.08.21-.22.32-.34.12.22.24.44.36.66ZM287.55,262c.14.14.25.25.36.36-.23.11-.44.27-.68.32-.08.02-.22-.21-.34-.32.22-.12.44-.24.66-.36ZM287.73,266.62c.02.08-.21.22-.32.34-.11-.23-.27-.44-.32-.68-.02-.08.21-.22.32-.34.11.23.27.44.32.68ZM281.54,259.84c.49-.08,1.01.06,1.49-.04.94-.2,1.62-1.94,2.84-.46.08.1.03.33,0,.49-.33,1.97-1.87.63-2.78,1.01-.5,0-1.01.05-1.5-.02-.28-.05-.53-.31-.8-.47.25-.18.48-.46.74-.51ZM285.72,264.24c-.29.22-.56.55-.89.64-.23.06-.55-.2-.83-.31.15-.36.31-.72.38-.88.78.32,1.06.44,1.34.56ZM283.5,266.12c.08-.02.22.21.34.32-.23.11-.44.27-.68.32-.08.02-.22-.21-.34-.32.23-.11.44-.27.68-.32ZM282.34,263.08c-.07-.16-.22-.52-.38-.88.28-.12.6-.38.83-.31.33.09.59.41.89.64-.28.12-.56.23-1.34.56ZM279.23,261.86c.84.81,1.66,1.65,2.49,2.49-1.53-1.15-2.44-1.85-2.99-2.29.01-.07.02-.15.03-.21,0-.01.38-.07.47,0ZM281.5,264.68c-.29.11-.76.32-.88.21-.67-.63-1.3-1.31-1.86-2.05-.11-.15-.08-.4-.05-.65,2.93,2.28,2.89,2.45,2.79,2.49ZM278.43,261.08c.16.21.21.51.31.77h-.27c-.5-.4-.57-.5-.65-.6.21-.06.57-.23.62-.17ZM276.33,264.04c.14.14.25.25.36.36-.23.11-.44.27-.68.32-.08.02-.22-.21-.34-.32.22-.12.44-.25.66-.36ZM274.15,339.38c.12.22.24.44.36.66l-.36.36c-.11-.23-.27-.44-.32-.68-.02-.08.21-.22.32-.34ZM272.11,263.89c.11.23.27.44.32.68.02.08-.21.22-.32.34-.12-.22-.24-.44-.36-.66.14-.14.25-.25.36-.36ZM254.76,354.68c.12.22.24.44.36.66-.14.14-.25.25-.36.36-.11-.23-.27-.44-.32-.68-.02-.08.21-.22.32-.34ZM254,357.02c.43.23.7.74,1.11,1.03.29.2.7.23,1.06.33-.41-2.72,4.04-.57,3.46-3.46,1.76.98,3.38-.67,5.15-.26,1.56.36,4.21-.31,5.98-.59,1.83-.28,3.57-2.51,5.66-.46.15.14,1.12-.44,1.62-.8.87-.64,3.46.69,2.6-1.67-.65-1.78-1.8.41-2.8.48-.17.01-.38.07-.5,0-3.28-1.94-6.55.69-9.82,0-.17.08-.32.13-.47.2.16.1.32.21.47.29-.54.24-1.08.47-1.61.71.24-.3.47-.57.7-.82-1.36.51-1.72.37-2.06.22.67-.2,1.33-.47,2.01-.56.1-.01.2.02.31.07,1.56-1.61,2.75-2.09,2.98-3.7.31-2.25,2.3-4.42,4.56-5.5,1.34-.64,1.86-1.38,2.47-2.64.58-1.2,1.15-1.61-.64-1.52,0-.35-.14-.78.01-1.04.67-1.09,1.45-2.11,2.12-3.21.24-.39.46-1.24.34-1.32-2.48-1.54.05-2.9.27-4.23.15-.94,1.34-1.93,2.45-.41,1.59-1.09,3.61.69,4.66-.13,1.55-1.22,3.18-.56,4.68-1.13,1.34-.51,2.72.53,2.21,1.57-.99,2.02-1.89,4.03-1.99,6.31-1.95.3-1.64,1.22-1.13,2.76.35,1.07-.54.32-1.1.17-1.89-.51-2.38-2.49-3.87-3.38-.3-.18-.45-.61-.67-.93-.12.46-.29.91-.34,1.38-.06.5-.01,1.02-.01,1.53l2.04,2.04c-1.67.31-2.35-.37-2.04-2.04-1.98,1.46-1.96,1.45-.72,2.87.3.35.48.81.72,1.21.1.07.16.12.25.19.09-.1.17-.18.22-.16.59.18,1.16.44,1.77.69-.78-.2-1.4-.36-1.9-.47,1.55,1.16,1.45,1.42,1.33,1.67-.55-.48-1.11-.96-1.66-1.43.07-.07.15-.17.22-.25-1.19-.27-1.65-.3-1.68-.2-.56,1.8-1.12,2.27-2.62.59-1.1-1.23-1.44.6-2.07,1.03-1.18.8-1.27,1.31.49,1.48,1.87.18,3.92.54,3.68,3.31-.02.2.67.65,1.06.68,1.35.08,2.71-.01,4.06.04,2.66.11,3.71,1.42,2.61,3.81-.54,1.17-1,2.15-.24,3.11.58.73.26.9-.08,1.5-.61,1.07-1.02,2.3-1.3,3.51-.22.96.24,2.52-.25,2.86-.83.57-2.18.47-3.31.48-6.6.03-13.19.09-19.79-.03-1.81-.03-2.54.38-2.21,2.23.04.24-.27.55-.42.82-1.59-1.74-3.08-.38-4.74-.14-.84.12-1.97-1.84-2.97-2.86.63-.12,1.26-.24,1.88-.35-.13-.58-.1-1.3-.43-1.71-.86-1.04-1.91-1.92-2.82-2.92-.21-.23-.17-.7-.25-1.06.46.06.98,0,1.36.21ZM291.96,344.27c-.55.08-1.01.2-1.45.17-.14,0-.26-.41-.39-.64.44-.12.89-.28,1.34-.31.12,0,.27.4.5.78ZM289.96,341.93c-.23.11-.44.27-.68.32-.08.02-.22-.21-.34-.32.22-.12.44-.24.66-.36l.36.36ZM287.13,339.59c.08-.07.18-.14.24-.21.22.37.44.74.62,1.05-.35-.34-.63-.61-.86-.84ZM287.49,341.33c-.2-.49-.43-.98-.57-1.49-.01-.05.05-.12.13-.19.69,1.19.57,1.44.44,1.68ZM283.65,344.15c.02.08-.21.22-.32.34-.11-.23-.27-.44-.32-.68-.02-.08.21-.22.32-.34.11.23.27.44.32.68ZM282.82,365.39c-.11.11-.25.34-.34.32-.24-.05-.46-.21-.68-.32l.36-.36c.21.12.44.24.66.36ZM279.6,365.56c-.28.12-.56.23-1.34.56-.07-.16-.22-.52-.38-.88.28-.12.6-.38.83-.31.33.09.59.41.89.64ZM274.47,365.57c.02.08-.21.22-.32.34-.11-.23-.27-.44-.32-.68-.02-.08.21-.22.32-.34.11.23.27.44.32.68ZM252.93,361.05c.16.21.21.51.31.77-.61-.2-.77-.4-.93-.6.21-.06.57-.23.62-.17ZM253.15,365.48c-.25-.14-.47-.28-.67-.4.06-.06.13-.13.19-.19.16.2.32.4.48.59ZM251.1,362.86c1.18-.1,1.17.74,1.1,1.55-.01.11-.11.22-.23.34-.97-.66-1.32-1.09-1.66-1.52.26-.13.52-.34.8-.37ZM251.05,367.29c-.12.21-.24.44-.36.66-.11-.11-.34-.25-.32-.34.05-.24.21-.46.32-.68.11.11.23.23.36.36ZM242.26,372.06c.24-.03.51.31.77.48-.4.21-.8.41-1.15.59-.38-.25-.64-.42-.89-.59.42-.17.83-.43,1.27-.48ZM243.03,376.65c-.18.13-.36.26-.55.41-.88-.13-1.14-.33-1.4-.53.42-.14.83-.37,1.25-.39.22-.01.47.33.7.51ZM239.47,377.93c.8.33,1.08.45,1.36.57-.29.22-.56.55-.89.64-.23.06-.8-.24-.79-.31.06-.38.25-.74.32-.9ZM238.18,380.22c.24-.03.51.3.91.57-.54.16-.97.37-1.41.39-.25,0-.51-.31-.77-.48.42-.17.83-.43,1.27-.48ZM235.67,382.27c.14-.13.8.28,1.22.44-.48.43-.96.86-1.48,1.34-.1-.06-.52-.27-.51-.31.2-.52.39-1.11.77-1.47ZM236.91,386.82c-.23.11-.44.27-.68.32-.08.02-.22-.21-.34-.32.22-.12.44-.24.66-.36l.36.36ZM233.17,384.46c.24.05.46.21.68.32-.11.11-.23.23-.36.36-.21-.12-.44-.24-.66-.36.11-.11.25-.34.34-.32ZM232.85,389.44c.09-.37.28-.71.6-1.51-.14.94-.27,1.69-.38,2.31-.08.05-.16.09-.23.14,0-.32-.06-.65.01-.95ZM232.32,390.39c.16.32.32.64.51,1.02-.3,1.34-.5,1.59-.71,1.84-.41-.48-1.22-1.04-1.14-1.41.11-.55.86-.97,1.34-1.45ZM214.98,401.61c-.11-.11-.34-.25-.32-.34.05-.24.21-.46.32-.68.11.11.23.23.36.36-.12.21-.24.44-.36.66ZM220.81,401.58c-.78-.1-1.58-.25-2.3-.56-.37-.16-.59-.68-.88-1.04.45-.14.95-.47,1.34-.36.74.2,1.43.63,2.12.99.14.07.26.18.38.29-.23.47-.46.72-.66.69ZM261.16,401.55c-.26,0-.8-.81-.73-.91.3-.43.75-.83,1.23-1.01.17-.07.59.51,1.3,1.18-.84.38-1.32.74-1.8.74ZM265.99,401.61c-.17-.42-.43-.83-.48-1.27-.03-.24.31-.51.48-.77.21.4.41.8.59,1.15-.25.38-.42.64-.59.89ZM265.48,378.66c.22-.12.44-.24.66-.36.14.14.25.25.36.36-.23.11-.44.27-.68.32-.08.02-.22-.21-.34-.32ZM270.07,400.59c-.12-.22-.25-.44-.36-.66.14-.14.25-.25.36-.36.11.23.27.44.32.68.02.08-.21.22-.32.34ZM273.98,401.45c-.12-.28-.38-.6-.31-.83.09-.33.41-.59.64-.89.12.28.23.56.56,1.34-.16.07-.52.22-.88.38ZM292.97,376.08c-1.28-1.67-2.51.18-3.76.05-1.34-.14-2.72.06-4.06-.08-.47-.05-.88-.63-1.32-.97-.34-.34-.68-.68-1.02-1.02l-1.02-1.02c-3.34-2.52-3.33-2.5-6.14,1.13-.32.42-.9.73-1.43.89-1.37.41-2.76.92-4.16.97-1.06.04-1.93,1.36-3.33.2-.56-.46-2.37.45-3.52.94-.41.18-.69.96-.78,1.5-.69,3.98-1.16,7.98-2.61,11.83-.83,2.21-1.02,4.67-1.5,7.02.32,0,.65-.06.95.01.37.09.71.28,1.51.6-.71-.11-1.28-.16-1.74-.18.63.47.29.62,0,.53-.19-.06-.33-.29-.46-.53-1.43.05-1.31.64-1.1,1.24.13.38.44.7.66,1.05-.57,0-1.15.06-1.69-.05-.75-.15-1.47-.43-2.2-.65-.08.9-.31,2.83-1.13,1.9-1.54-1.77-3,.23-4.55-.68-1.38-.81-3.6-.3-5.44-.17-2.73.2-5.63-.86-8.17.98-.11.08-.34-.02-.5.01-1.86.4-3.46-.47-5.13-1.02-1.25,1.68-3.06.99-4.62.96-1-.02-1.99-.57-2.99-.91.28-1.62,1.48-1.07,2.2-.99.77.09,1.37,1.36,2.3.02.22-.32,1.28-.08,1.95-.09-.07-.58-.41-1.34-.16-1.7.3-.43,1.17-.42,1.65-.78.92-.69,2.84-.93,3.9-.36.35.19.72.35,1.08.52.08-.31.33-.75.21-.9-2.19-2.79-.41-4.8,1.35-6.74,1.25-1.38,2.86-2.56.98-4.56.39-.26.8-.76,1.17-.72.62.06,1.55,2.13,1.61-.34.05-1.95,1.13-3.28,2.32-4.65.47-.54.51-1.46.75-2.21-.1,0-.18-.02-.27-.03,1.65-.55,2.91-.74,1.42-2.56-.67-.82-.05-1.92,1.48-2.81,4.19-2.43,9.03-2.77,13.28-4.8,2.6,1.8,5.17-.28,7.8-.08,4.21.32,8.47.02,12.7.1,4.1.08,8.05-.52,11.94-1.85.83-.28,2.59,1.09,2.96.72,2.36-2.3,3.1.3,4.33,1.27.11.08-.26,1.02-.61,1.36-.89.88-.83.02-1.02-.58-.12-.37-.51-.76-.88-.91-1.12-.47-1.64,2.23-2.97.65-1.26-1.5-1.74,1.34-2.83.42-.57.78-1.1,1.04-1.84.11-.17-.22-.88,0-1.33,0,.15.36.24.76.47,1.07.3.4.76.69,1.05,1.1.53.75.93.65,1.47-.02.38-.47,1.27-1.21,1.37-1.13.88.73.33,1.34-.21,2.07-.27.37-.22,1.27.06,1.67.57.82,1.41,1.46,2.1,2.2.17.18.22.47.32.71-.3.1-.8.36-.86.28ZM295.31,343.72c.32-.06.64-.14.96-.19-.1.79-.44.82-.78.83-.06,0-.12-.42-.17-.64ZM293.44,372.96c-.14-.42-.37-.83-.39-1.25-.01-.22.33-.47.51-.7.18.24.36.49.57.77-.4.8-.55,1-.69,1.18ZM294.04,370.51c.48-.46.95-.93,1.25-1.22-.27.6-.49,1.08-.68,1.49-.19-.09-.38-.18-.57-.27ZM298.67,371.9c-.24.41-1.06.91-1.33.78-.8-.38-1.47-1.04-2.19-1.58,1.73-1.4,2.74-1.18,3.69-.81.15.06.1,1.17-.16,1.61ZM300.71,344.44c-1.2-.49-2.47-.88-3.58-1.53-.48-.28-.63-1.11-1-1.83.11.79.16,1.38.17,1.84-1.38-1.32-1.88-1.2-2.28-.92-1.18.81-1.15-.71-1.8-.87.44-.24.86-.5,1.31-.71.57-.26,1.14-.57,1.74-.68.55-.1,1.3-.18,1.7.1.82.57,1.58,1.31,2.15,2.13.56.81,2.16.97,1.61,2.49ZM299.69,340.37c-.14,0-.26-.41-.39-.64.44-.12.89-.28,1.34-.31.12,0,.27.4.5.78-.55.08-1.01.2-1.45.17ZM301.95,342.41c-.25,0-.51-.31-.77-.48.42-.17.83-.43,1.27-.48.24-.03.51.3.91.57-.54.16-.97.37-1.41.39ZM303.38,339.73c.44-.12.89-.28,1.34-.31.12,0,.27.4.5.78-.55.08-1.01.2-1.45.17-.14,0-.26-.41-.39-.64ZM304.59,345.34c-.12-.44-.28-.89-.31-1.34,0-.12.4-.27.78-.5.08.55.2,1.01.17,1.45,0,.14-.41.26-.64.39ZM306.79,342.44c-.11-.11-.23-.23-.36-.36.12-.21.24-.44.36-.66.11.11.34.25.32.34-.05.24-.21.46-.32.68ZM308.99,345.34c-.22-.29-.55-.56-.64-.89-.06-.23.2-.55.31-.83.36.15.72.31.88.38-.32.78-.44,1.06-.56,1.34ZM312.74,344.29c-.08.02-.22-.21-.34-.32.23-.11.44-.27.68-.32.08-.02.22.21.34.32-.23.11-.44.27-.68.32ZM314.43,250.08c-2.31-.94-2.97-.53-3.27,1.28-.24-.04-.56,0-.7-.14-1.97-1.93-4.47-1.57-6.87-1.63-.44-.01-.88-.28-1.32-.42.38-.19.78-.59,1.13-.54,2,.27,3.78-.49,5.61-1.05.51,1.49,2.21-3.12,2.51.49.04.43,1.92.68,2.91,1.1.12.05.07.6,0,.92ZM315.16,251.6c-.22-.07-.38-.37-.53-.65,1.25.56.84.75.53.65ZM318.5,250.15s-.02.09-.05.14c-1.2-.55-1.53-.94-1.84-1.32.26-.13.52-.34.8-.36,1.18-.1,1.17.74,1.1,1.55ZM318.82,212.11c.69.15,1.43.26,2.03.61.55.31.97.87,1.39,1.37.12.14.06.45.08.67-.37.07-.74.25-.97.15-.55-.26-1.05-.64-1.55-1-.44-.31-.9-.61-1.25-1.01-.1-.11.23-.8.27-.79ZM321.43,223.75c-.14.14-.25.25-.36.36-.11-.23-.27-.44-.32-.68-.02-.08.21-.22.32-.34.12.22.25.44.36.66ZM319.24,251.6c-.21-.07-.35-.33-.5-.59,1.19.51.8.69.5.59ZM320.05,216.97c-.11-.23-.27-.44-.32-.68-.02-.08.21-.22.32-.34.12.22.24.44.36.66-.14.14-.25.25-.36.36ZM322.09,253.69c-.11-.11-.34-.25-.32-.34.05-.24.21-.46.32-.68.11.11.23.23.36.36-.12.21-.24.44-.36.66ZM322.06,249.58c-.45-.03-.89-.2-1.34-.31.13-.22.24-.63.39-.64.45-.03.9.1,1.45.17-.23.37-.38.79-.5.78ZM323.96,260.64c-.08.02-.22-.21-.34-.32.23-.11.44-.27.68-.32.08-.02.22.21.34.32-.23.11-.44.27-.68.32ZM323.87,251.62c-.44-.05-.85-.31-1.27-.48.26-.17.52-.34.89-.59.34.18.74.38,1.15.59-.26.17-.53.5-.77.48ZM326.17,253.69c-.11-.23-.27-.44-.32-.68-.02-.08.21-.22.32-.34.11.23.27.44.32.68.02.08-.21.22-.32.34ZM325.3,215.08c-.82-.82-1.74-1.74-2.67-2.67.24-.18.65-.56.71-.51,1.09.86,2.13,1.77,3.19,2.67-.29.12-.58.24-1.23.51ZM328.21,342.44c-.12-.22-.24-.44-.36-.66.14-.14.25-.25.36-.36.11.23.27.44.32.68.02.08-.21.22-.32.34ZM328.36,251.5c-.21-.12-.44-.24-.66-.36.11-.11.25-.34.34-.32.24.05.46.21.68.32-.11.11-.23.23-.36.36ZM327.73,212.61c-.06-.08.31-.48.48-.74l2.65,2.65c-.59.21-1.03.48-1.12.39-.72-.72-1.38-1.49-2-2.29ZM329.79,344.37c-.04-.17.43-.47.67-.71.37.51.74,1.03,1.11,1.54-1.61-.38-1.73-.6-1.79-.84ZM335.84,347.15c-.7-.63-2.15-.42-3.25-.64-.29-.06-.54-.33-.8-.5.08-.08.15-.18.23-.28,2.94.41,4.96.71,6.33.93-.71.5-1.34,1.55-2.51.49ZM339.53,346.59c-.06-.03-.12-.05-.18-.08-.23-.11-.44-.11-.64-.05-2.56-.39-4.39-.7-5.68-.95,2.8-.03,5.59-.04,8.39.03.24,0,.46.74.87,1.44-1.01-.15-1.91-.28-2.76-.41ZM345.55,347.54c-.44-.58-.89-1.15-1.33-1.73.28-.1.57-.21,1.25-.45.19.46.47.92.56,1.42.04.22-.3.51-.48.76ZM349.32,346.86c-.02-.08.21-.22.32-.34.12.22.24.44.36.66l-.36.36c-.11-.23-.27-.44-.32-.68Z"/>
  <g>
    <g>
      <g>
        <polygon class="cls-1" points="154.47 440.84 98.77 440.84 96.51 444.76 154.47 444.76 154.47 440.84"/>
        <polygon class="cls-1" points="134.91 433.02 128.53 421.96 122.15 433.02 134.91 433.02"/>
      </g>
      <g>
        <polygon class="cls-1" points="308.74 102.77 302.36 91.72 295.98 102.77 308.74 102.77"/>
        <g>
          <g>
            <rect class="cls-1" x="292.41" y="112.99" width=".68" height="8.9" transform="translate(113.04 376.66) rotate(-77.13)"/>
            <rect class="cls-1" x="262.78" y="164.31" width=".68" height="8.9" transform="translate(39.97 387.65) rotate(-77.12)"/>
            <polygon class="cls-1" points="269.03 167.23 260.35 165.25 260.5 164.58 269.18 166.57 269.03 167.23"/>
            <rect class="cls-1" x="266.07" y="158.61" width=".68" height="8.9" transform="translate(48.09 386.44) rotate(-77.12)"/>
            <polygon class="cls-1" points="272.32 161.53 263.65 159.54 263.8 158.88 272.47 160.86 272.32 161.53"/>
            <rect class="cls-1" x="269.36" y="152.9" width=".68" height="8.9" transform="translate(56.21 385.22) rotate(-77.13)"/>
            <rect class="cls-1" x="271.01" y="150.05" width=".68" height="8.9" transform="translate(60.27 384.6) rotate(-77.12)"/>
            <rect class="cls-1" x="272.66" y="147.2" width=".68" height="8.9" transform="translate(64.33 383.99) rotate(-77.12)"/>
            <polygon class="cls-1" points="278.9 150.12 270.23 148.14 270.38 147.48 279.05 149.46 278.9 150.12"/>
            <rect class="cls-1" x="275.95" y="141.5" width=".68" height="8.9" transform="translate(72.44 382.77) rotate(-77.12)"/>
            <polygon class="cls-1" points="282.2 144.42 273.52 142.44 273.67 141.77 282.35 143.76 282.2 144.42"/>
            <rect class="cls-1" x="279.24" y="135.8" width=".68" height="8.9" transform="translate(80.57 381.55) rotate(-77.13)"/>
            <rect class="cls-1" x="280.89" y="132.95" width=".68" height="8.9" transform="translate(84.6 380.92) rotate(-77.12)"/>
            <rect class="cls-1" x="282.53" y="130.1" width=".68" height="8.9" transform="translate(88.68 380.32) rotate(-77.12)"/>
            <rect class="cls-1" x="284.18" y="127.24" width=".68" height="8.9" transform="translate(92.76 379.73) rotate(-77.13)"/>
            <rect class="cls-1" x="285.82" y="124.39" width=".68" height="8.9" transform="translate(96.79 379.1) rotate(-77.12)"/>
            <rect class="cls-1" x="287.47" y="121.54" width=".68" height="8.9" transform="translate(100.87 378.5) rotate(-77.13)"/>
            <rect class="cls-1" x="289.12" y="118.69" width=".68" height="8.9" transform="translate(104.93 377.89) rotate(-77.13)"/>
            <rect class="cls-1" x="290.76" y="115.84" width=".68" height="8.9" transform="translate(108.99 377.28) rotate(-77.13)"/>
          </g>
          <g>
            <rect class="cls-1" x="309.7" y="117.1" width="8.9" height=".68" transform="translate(-18.27 72.94) rotate(-12.87)"/>
            <rect class="cls-1" x="339.33" y="168.42" width="8.9" height=".68" transform="translate(-28.96 80.86) rotate(-12.88)"/>
            <polygon class="cls-1" points="337.87 167.23 346.55 165.25 346.4 164.58 337.72 166.57 337.87 167.23"/>
            <rect class="cls-1" x="336.04" y="162.71" width="8.9" height=".68" transform="translate(-27.77 79.96) rotate(-12.87)"/>
            <rect class="cls-1" x="334.39" y="159.86" width="8.9" height=".68" transform="translate(-27.18 79.55) rotate(-12.88)"/>
            <rect class="cls-1" x="332.75" y="157.01" width="8.9" height=".68" transform="translate(-26.58 79.09) rotate(-12.87)"/>
            <rect class="cls-1" x="331.1" y="154.16" width="8.9" height=".68" transform="translate(-25.99 78.67) rotate(-12.88)"/>
            <rect class="cls-1" x="329.45" y="151.31" width="8.9" height=".68" transform="translate(-25.4 78.23) rotate(-12.88)"/>
            <polygon class="cls-1" points="327.99 150.12 336.67 148.14 336.52 147.48 327.84 149.46 327.99 150.12"/>
            <rect class="cls-1" x="326.16" y="145.61" width="8.9" height=".68" transform="translate(-24.21 77.33) rotate(-12.87)"/>
            <rect class="cls-1" x="324.51" y="142.76" width="8.9" height=".68" transform="translate(-23.61 76.89) rotate(-12.87)"/>
            <rect class="cls-1" x="322.87" y="139.91" width="8.9" height=".68" transform="translate(-23.02 76.45) rotate(-12.87)"/>
            <rect class="cls-1" x="321.22" y="137.05" width="8.9" height=".68" transform="translate(-22.44 76.07) rotate(-12.88)"/>
            <rect class="cls-1" x="319.58" y="134.2" width="8.9" height=".68" transform="translate(-21.84 75.6) rotate(-12.88)"/>
            <rect class="cls-1" x="317.93" y="131.35" width="8.9" height=".68" transform="translate(-21.23 75.11) rotate(-12.87)"/>
            <rect class="cls-1" x="316.28" y="128.5" width="8.9" height=".68" transform="translate(-20.64 74.7) rotate(-12.87)"/>
            <rect class="cls-1" x="314.64" y="125.65" width="8.9" height=".68" transform="translate(-20.05 74.24) rotate(-12.87)"/>
            <rect class="cls-1" x="312.99" y="122.8" width="8.9" height=".68" transform="translate(-19.45 73.8) rotate(-12.87)"/>
            <rect class="cls-1" x="311.34" y="119.95" width="8.9" height=".68" transform="translate(-18.86 73.36) rotate(-12.87)"/>
          </g>
        </g>
      </g>
      <g>
        <g>
          <polygon class="cls-1" points="451.82 440.84 507.53 440.84 509.79 444.76 451.82 444.76 451.82 440.84"/>
          <polygon class="cls-1" points="471.38 433.02 477.76 421.96 484.15 433.02 471.38 433.02"/>
        </g>
        <g>
          <rect class="cls-1" x="495.58" y="431.31" width="8.9" height=".68" transform="translate(-83.65 122.34) rotate(-12.88)"/>
          <polygon class="cls-1" points="494.12 430.13 502.79 428.15 502.64 427.48 493.97 429.46 494.12 430.13"/>
          <rect class="cls-1" x="492.28" y="425.61" width="8.9" height=".68" transform="translate(-82.44 121.42) rotate(-12.88)"/>
          <rect class="cls-1" x="490.64" y="422.76" width="8.9" height=".68" transform="translate(-81.84 120.98) rotate(-12.88)"/>
        </g>
      </g>
    </g>
    <path class="cls-1" d="M403.26,400.24l-20.16-27.2-22-4.64-23.64-106.29c10.72-.59,17.96-.78,17.96-1.74l-.34-5.76,7.23-.26-9.27-72.14c0-1.6-7.87-2.94-19.91-3.83l-.94,26.46c-4.88-.52-11.74-.46-17.54-.69l-1.86-27.64c-3.14-.06-17.33-.02-20.41.05l-2.35,27.6c-5.79.23-11.22.62-16.1,1.14l-1.1-27.01c-12.04.89-19.83,2.31-19.83,3.91l-9.97,72.19,7.37.35v4.98c0,.93,6.39,1.77,16.57,2.36.17-.04.31-.1.45-.16-.08-.76-.05-1.54.1-2.29-.29-.58-.53-1.2-.66-1.84-.08,0-.16-.01-.23-.02,0-.43-.02-.86-.03-1.28.03,0,.06,0,.1,0,0,0,0,0,0-.01-5.04-1.75-6.1-10.85.51-13.28,1.74-.64,3.5-1.17,5.27-1.65.1-.21.21-.42.33-.63-1.94-.68-3.52-2.16-3.88-4.43-.05-.32-.09-.65-.13-.97-1.99-.62-3.66-2.08-4.22-4.38-2.16-3.84-.49-7.65,2.7-10.2.54-.63,1.15-1.17,1.83-1.6-1.61-4.08.39-9.62,6.02-9.41,18.9.71,37.81,1.06,56.72,1.08,8.38,0,8.74,12.43,1.11,13.53-.1,3.34-2.28,6.82-6.49,7.27-5.57.59-11.11,1.53-16.69,2.1.3.79.46,1.62.49,2.46,1.09-.07,2.18-.13,3.27-.22,5.71-.47,7.64,5.16,5.89,9.33,3.53-.81,7.08-1.56,10.61-2.36,1.67-.37,3.14-.17,4.38.4,1.09-1.49,2.83-2.53,5.24-2.53.15,0,.28.01.42.02.81-.35,1.74-.56,2.81-.56,1.99,0,3.53.71,4.61,1.79,5.77,2.59,4.81,13.03-2.86,13.03-1.33,0-2.46-.32-3.39-.85-.5.11-1.02.18-1.6.18-.92,0-1.73-.16-2.45-.42-.79.96-1.96,1.71-3.55,2.06-1.48.33-2.96.66-4.44.98.57,2.57-.12,5.45-2.82,7.35-5.33,3.76-12.23,3.95-18.51,4.43-9.59.73-19.19.81-28.81.81-1.99,0-3.52-.7-4.61-1.78-.13,0-.24.03-.37.03-1.97,0-3.49-.69-4.57-1.76-.64-.59-1.14-1.31-1.49-2.09-.29.37-.58.75-.88,1.17l-23.55,103.04-22.01,4.64-20.16,27.2-40.75,7.51h283.33l-40.75-7.51ZM342.62,352.32c-5.35-.08-10.93-1.24-16.23-.24-1.94.37-3.89.04-5.45-.9,0,.06-.01.12-.02.18-1.17,6.44-5.42,11.06-10.3,14.96,7.39,8-2.82,16.21-10.35,19.3-1.99.82-4.06,1.49-6.17,2.08.05,0,.1-.02.14-.02,3.1-.62,5.55.72,7.02,2.74,3.07-.18,6.12-.45,9.14-.86,8.58-1.16,12.26,11.96,3.62,13.13-6.87.93-13.71,1.46-20.64,1.56-5.5.08-11.72-1.21-17.06.32-3.02.87-5.41-.26-6.86-2.16-.36.19-.68.41-.91.68-3.13,3.77-7.5,2.41-9.78-.69-2.61.07-5.24.15-7.84.43-.82.09-1.82.37-2.63.37-.26,0-.48.03-.68.09-.88.92-1.08.65-.67.32-3,1.99-6.95,1.12-9.23-1.1-2.02,2.26-4.78,3.62-8.55,4.1-1.18.15-2.3-.16-3.29-.76-2.32-.24-3.93-1.51-4.84-3.17-.36.03-.7,0-1.01-.12-.33.03-.66.07-.99.11-.35.04-.7.08-1.06.12-.16.02-.32.04-.48.06-.02,0-.02,0-.04,0-.02,0-.03,0-.06,0-.69.1-1.37.21-2.05.34-1.12.22-2.15-.31-2.51-1.43-.32-1,.38-2.3,1.43-2.51,1.95-.38,3.92-.6,5.89-.81.24-3.05,2.26-5.93,6.06-6.16.22-.47.48-.9.84-1.29.32-.49.73-.89,1.18-1.24.27-.23.52-.47.78-.71.13-.33.27-.66.43-.98,1.38-2.87,4.6-4.96,5.37-8.04.58-2.32,1.98-3.73,3.66-4.4.46-.55.98-1.05,1.62-1.47.76-.49,1.61-.78,2.49-.88-.16-.11-.32-.23-.49-.33.6-.25,1.22-.53,1.85-.83.52-.57,1.07-1.13,1.63-1.67.77-.73,1.45-1.31,2.06-1.83-.11-2.55-.63-5.16-.86-7.61-.34-3.68,3.39-6.81,6.81-6.81.31,0,.61.04.9.08.21-2.67,1.78-5.2,4.7-5.95.39-.59.79-1.16,1.22-1.73-.17-.94-.26-1.93-.22-2.97.26-5.88,3.6-9.8,8.05-12.4,1.72-5.34,5.39-10.21,10.02-13.08,2.33-2.13,4.91-3.49,7.56-4.23.07-.19.14-.38.22-.57-.47-3.7,1.69-7.8,6.5-7.8.6,0,1.15.07,1.67.18,3.92-1.26,8.44-.55,12.23,3,3.61,3.39,6.12,8.03,8.01,12.86.81.13,1.59.37,2.26.76,3.4,1.99,3.96,5.97,2.44,9.31-.1.21-.16.44-.24.66.43-.08.88-.13,1.37-.13,4.12,0,6.31,3.01,6.55,6.2,5.27-.4,10.41.19,15.8.27,8.77.13,8.76,13.74,0,13.61Z"/>
  </g>
  <g>
    <path class="cls-1" d="M162.43,424.59c0-6.57,0-7.75-.08-9.1-.08-1.43-.4-2.11-1.71-2.4-.32-.08-.99-.13-1.35-.13-.16,0-.32-.08-.32-.25,0-.25.2-.34.64-.34,1.79,0,4.29.13,4.49.13.44,0,3.45-.13,4.69-.13,2.5,0,5.16.25,7.27,1.85.99.76,2.74,2.82,2.74,5.73,0,3.12-1.23,6.23-4.8,9.73,3.26,4.42,5.96,8.17,8.26,10.78,2.14,2.4,3.85,2.86,4.84,3.03.75.13,1.31.13,1.55.13.2,0,.36.13.36.25,0,.25-.24.34-.95.34h-2.82c-2.22,0-3.22-.21-4.25-.8-1.71-.97-3.1-3.03-5.36-6.19-1.67-2.32-3.53-5.14-4.33-6.23-.16-.17-.28-.25-.52-.25l-4.88-.08c-.2,0-.28.13-.28.34v1.01c0,4.04,0,7.37.2,9.14.12,1.22.36,2.15,1.55,2.32.56.08,1.43.17,1.79.17.24,0,.32.13.32.25,0,.21-.2.34-.64.34-2.18,0-4.69-.13-4.88-.13-.04,0-2.54.13-3.73.13-.44,0-.64-.08-.64-.34,0-.13.08-.25.32-.25.36,0,.83-.08,1.19-.17.79-.17.99-1.09,1.15-2.32.2-1.77.2-5.1.2-9.14v-7.41ZM165.61,428.25c0,.21.08.38.28.51.6.38,2.42.67,4.17.67.95,0,2.06-.13,2.98-.8,1.39-1.01,2.42-3.28,2.42-6.49,0-5.26-2.62-8.42-6.87-8.42-1.19,0-2.26.13-2.66.25-.2.08-.32.25-.32.51v13.77Z"/>
    <path class="cls-1" d="M210.4,432c0,4.04,0,7.37.2,9.14.12,1.22.36,2.15,1.55,2.32.56.08,1.43.17,1.79.17.24,0,.32.13.32.25,0,.21-.2.34-.64.34-2.18,0-4.69-.13-4.88-.13s-2.7.13-3.89.13c-.44,0-.64-.08-.64-.34,0-.13.08-.25.32-.25.36,0,.83-.08,1.19-.17.79-.17.99-1.09,1.15-2.32.2-1.77.2-5.1.2-9.14v-4.42c0-.17-.12-.25-.24-.25h-16.84c-.12,0-.24.04-.24.25v4.42c0,4.04,0,7.37.2,9.14.12,1.22.36,2.15,1.55,2.32.56.08,1.43.17,1.79.17.24,0,.32.13.32.25,0,.21-.2.34-.64.34-2.18,0-4.69-.13-4.88-.13s-2.7.13-3.89.13c-.44,0-.64-.08-.64-.34,0-.13.08-.25.32-.25.36,0,.83-.08,1.19-.17.79-.17.99-1.09,1.15-2.32.2-1.77.2-5.1.2-9.14v-7.41c0-6.57,0-7.75-.08-9.1-.08-1.43-.4-2.11-1.71-2.4-.32-.08-.99-.13-1.35-.13-.16,0-.32-.08-.32-.25,0-.25.2-.34.64-.34,1.79,0,4.29.13,4.49.13s2.7-.13,3.89-.13c.44,0,.64.08.64.34,0,.17-.16.25-.32.25-.28,0-.52.04-.99.13-1.07.21-1.39.93-1.47,2.4-.08,1.35-.08,2.53-.08,9.1v.88c0,.21.12.25.24.25h16.84c.12,0,.24-.04.24-.25v-.88c0-6.57,0-7.75-.08-9.1-.08-1.43-.4-2.11-1.71-2.4-.32-.08-.99-.13-1.35-.13-.16,0-.32-.08-.32-.25,0-.25.2-.34.64-.34,1.79,0,4.29.13,4.49.13s2.7-.13,3.89-.13c.44,0,.64.08.64.34,0,.17-.16.25-.32.25-.28,0-.52.04-.99.13-1.07.21-1.39.93-1.47,2.4-.08,1.35-.08,2.53-.08,9.1v7.41Z"/>
    <path class="cls-1" d="M228.71,411.79c8.93,0,15.6,5.98,15.6,15.79s-6.27,17.23-15.84,17.23c-10.88,0-15.41-8.97-15.41-16.55,0-6.82,4.69-16.47,15.64-16.47ZM229.54,443.2c3.57,0,10.96-2.19,10.96-14.45,0-10.11-5.8-15.54-12.07-15.54-6.63,0-11.59,4.63-11.59,13.86,0,9.81,5.56,16.13,12.71,16.13Z"/>
    <path class="cls-1" d="M246.78,424.59c0-6.57,0-7.75-.08-9.1-.08-1.43-.4-2.11-1.71-2.4-.32-.08-.99-.13-1.35-.13-.16,0-.32-.08-.32-.25,0-.25.2-.34.64-.34,1.79,0,4.29.13,4.49.13.48,0,2.98-.13,5.36-.13,3.93,0,11.2-.38,15.92,4.8,1.99,2.19,3.85,5.69,3.85,10.7,0,5.31-2.06,9.39-4.29,11.88-1.71,1.89-5.28,4.84-12.03,4.84-1.71,0-3.81-.13-5.52-.25-1.75-.13-3.1-.25-3.3-.25-.08,0-.75,0-1.59.04-.79,0-1.71.08-2.3.08-.44,0-.64-.08-.64-.34,0-.13.08-.25.32-.25.36,0,.83-.08,1.19-.17.79-.17.99-1.09,1.15-2.32.2-1.77.2-5.1.2-9.14v-7.41ZM250.11,429.14c0,4.46.04,8.34.08,9.14.04,1.05.12,2.74.44,3.2.52.8,2.06,1.69,6.75,1.69,3.69,0,7.11-1.43,9.45-3.92,2.06-2.15,3.18-6.19,3.18-10.07,0-5.35-2.18-8.8-3.81-10.61-3.73-4.17-8.26-4.76-12.98-4.76-.79,0-2.26.13-2.58.3-.36.17-.48.38-.48.84-.04,1.43-.04,5.73-.04,8.97v5.22Z"/>
    <path class="cls-1" d="M276.84,424.59c0-6.57,0-7.75-.08-9.1-.08-1.43-.4-2.11-1.71-2.4-.32-.08-.99-.13-1.35-.13-.16,0-.32-.08-.32-.25,0-.25.2-.34.64-.34.91,0,1.99,0,2.86.04l1.63.08c.28,0,8.18,0,9.09-.04.75-.04,1.39-.13,1.71-.21.2-.04.36-.21.56-.21.12,0,.16.17.16.38,0,.29-.2.8-.32,1.98-.04.42-.12,2.27-.2,2.78-.04.21-.12.46-.28.46-.24,0-.32-.21-.32-.55,0-.29-.04-1.01-.24-1.52-.28-.67-.68-1.18-2.82-1.43-.68-.08-5-.13-5.44-.13-.16,0-.24.13-.24.42v11.62c0,.29.04.42.24.42.52,0,5.4,0,6.31-.08.95-.08,1.51-.17,1.87-.59.28-.34.44-.55.6-.55.12,0,.2.08.2.34s-.2.97-.32,2.36c-.08.84-.16,2.4-.16,2.7,0,.34,0,.8-.28.8-.2,0-.28-.17-.28-.38,0-.42,0-.84-.16-1.39-.16-.59-.52-1.31-2.06-1.47-1.07-.13-5-.21-5.68-.21-.2,0-.28.13-.28.3v3.71c0,1.43-.04,6.32,0,7.2.12,2.91.71,3.45,4.61,3.45,1.03,0,2.78,0,3.81-.46,1.03-.46,1.51-1.31,1.79-3.03.08-.46.16-.63.36-.63.24,0,.24.34.24.63,0,.34-.32,3.2-.52,4.08-.28,1.09-.6,1.09-2.14,1.09-2.98,0-5.16-.08-6.71-.13-1.55-.08-2.5-.13-3.1-.13-.08,0-.75,0-1.59.04-.79,0-1.71.08-2.3.08-.44,0-.64-.08-.64-.34,0-.13.08-.25.32-.25.36,0,.83-.08,1.19-.17.79-.17.99-1.09,1.15-2.32.2-1.77.2-5.1.2-9.14v-7.41Z"/>
    <path class="cls-1" d="M292.56,443.67c-.56-.3-.6-.46-.6-1.6,0-2.11.16-3.79.2-4.46.04-.46.12-.67.32-.67.24,0,.28.13.28.46,0,.38,0,.97.12,1.56.6,3.12,3.22,4.3,5.88,4.3,3.81,0,5.68-2.91,5.68-5.6,0-2.91-1.15-4.59-4.57-7.58l-1.79-1.56c-4.21-3.66-5.16-6.28-5.16-9.14,0-4.51,3.18-7.58,8.22-7.58,1.55,0,2.7.17,3.69.42.75.17,1.07.21,1.39.21s.4.08.4.29-.16,1.6-.16,4.46c0,.67-.08.97-.28.97-.24,0-.28-.21-.32-.55-.04-.51-.28-1.64-.52-2.11-.24-.46-1.31-2.23-4.96-2.23-2.74,0-4.88,1.81-4.88,4.89,0,2.4,1.03,3.92,4.84,7.08l1.11.93c4.69,3.92,5.8,6.53,5.8,9.9,0,1.73-.64,4.93-3.38,6.99-1.71,1.26-3.85,1.77-6,1.77-1.87,0-3.69-.3-5.32-1.14Z"/>
    <path class="cls-1" d="M322.07,432c0,4.04,0,7.37.2,9.14.12,1.22.36,2.15,1.55,2.32.56.08,1.43.17,1.79.17.24,0,.32.13.32.25,0,.21-.2.34-.64.34-2.18,0-4.68-.13-4.88-.13s-2.7.13-3.89.13c-.44,0-.64-.08-.64-.34,0-.13.08-.25.32-.25.36,0,.83-.08,1.19-.17.79-.17.99-1.09,1.15-2.32.2-1.77.2-5.1.2-9.14v-7.41c0-6.57,0-7.75-.08-9.1-.08-1.43-.48-2.15-1.35-2.36-.44-.13-.95-.17-1.23-.17-.16,0-.32-.08-.32-.25,0-.25.2-.34.64-.34,1.31,0,3.81.13,4.01.13s2.7-.13,3.89-.13c.44,0,.64.08.64.34,0,.17-.16.25-.32.25-.28,0-.52.04-.99.13-1.07.21-1.39.93-1.47,2.4-.08,1.35-.08,2.53-.08,9.1v7.41Z"/>
    <path class="cls-1" d="M327.7,443.67c-.56-.3-.6-.46-.6-1.6,0-2.11.16-3.79.2-4.46.04-.46.12-.67.32-.67.24,0,.28.13.28.46,0,.38,0,.97.12,1.56.6,3.12,3.22,4.3,5.88,4.3,3.81,0,5.68-2.91,5.68-5.6,0-2.91-1.15-4.59-4.57-7.58l-1.79-1.56c-4.21-3.66-5.16-6.28-5.16-9.14,0-4.51,3.18-7.58,8.22-7.58,1.55,0,2.7.17,3.69.42.75.17,1.07.21,1.39.21s.4.08.4.29-.16,1.6-.16,4.46c0,.67-.08.97-.28.97-.24,0-.28-.21-.32-.55-.04-.51-.28-1.64-.52-2.11-.24-.46-1.31-2.23-4.96-2.23-2.74,0-4.88,1.81-4.88,4.89,0,2.4,1.03,3.92,4.84,7.08l1.11.93c4.69,3.92,5.8,6.53,5.8,9.9,0,1.73-.64,4.93-3.38,6.99-1.71,1.26-3.85,1.77-6,1.77-1.87,0-3.69-.3-5.32-1.14Z"/>
    <path class="cls-1" d="M350.26,432.09c0,6.19.16,8.89.87,9.64.64.67,1.67.97,4.76.97,2.1,0,3.85-.04,4.8-1.26.52-.67.91-1.73,1.03-2.53.04-.34.12-.55.36-.55.2,0,.24.17.24.63s-.28,2.99-.6,4.21c-.28.97-.4,1.14-2.5,1.14-2.86,0-4.92-.08-6.59-.13-1.67-.08-2.9-.13-4.05-.13-.16,0-.83.04-1.63.04-.79.04-1.67.08-2.26.08-.44,0-.64-.08-.64-.34,0-.13.08-.25.32-.25.36,0,.83-.08,1.19-.17.79-.17.99-1.09,1.15-2.32.2-1.77.2-5.1.2-9.14v-7.41c0-6.57,0-7.75-.08-9.1-.08-1.43-.4-2.11-1.71-2.4-.32-.08-.99-.13-1.35-.13-.16,0-.32-.08-.32-.25,0-.25.2-.34.64-.34,1.79,0,4.29.13,4.49.13s3.1-.13,4.29-.13c.44,0,.64.08.64.34,0,.17-.16.25-.32.25-.28,0-.83.04-1.31.13-1.15.21-1.47.93-1.55,2.4-.08,1.35-.08,2.53-.08,9.1v7.5Z"/>
    <path class="cls-1" d="M370.59,413.43c.48-1.39.64-1.64.87-1.64s.4.21.87,1.52c.6,1.6,6.83,18.99,9.25,25.4,1.43,3.75,2.58,4.42,3.42,4.67.6.21,1.19.25,1.59.25.24,0,.4.04.4.25,0,.25-.36.34-.79.34-.6,0-3.49,0-6.23-.08-.75-.04-1.19-.04-1.19-.29,0-.17.12-.25.28-.3.24-.08.48-.46.24-1.14l-3.69-10.36c-.08-.17-.16-.25-.36-.25h-8.54c-.2,0-.32.13-.4.34l-2.38,7.45c-.36,1.05-.56,2.06-.56,2.82,0,.84.83,1.22,1.51,1.22h.4c.28,0,.4.08.4.25,0,.25-.24.34-.6.34-.95,0-2.66-.13-3.1-.13s-2.62.13-4.49.13c-.52,0-.75-.08-.75-.34,0-.17.16-.25.36-.25.28,0,.83-.04,1.15-.08,1.83-.25,2.62-1.85,3.34-3.96l9.01-26.15ZM374.72,430.27c.2,0,.2-.13.16-.3l-3.77-11.37c-.2-.63-.4-.63-.6,0l-3.49,11.37c-.08.21,0,.3.12.3h7.58Z"/>
    <path class="cls-1" d="M387.78,438.49c.08,3.45.48,4.55,1.55,4.89.75.21,1.63.25,1.99.25.2,0,.32.08.32.25,0,.25-.24.34-.71.34-2.26,0-3.85-.13-4.21-.13s-2.03.13-3.81.13c-.4,0-.64-.04-.64-.34,0-.17.12-.25.32-.25.32,0,1.03-.04,1.63-.25.99-.3,1.19-1.52,1.19-5.35l.04-24.13c0-1.64.12-2.11.44-2.11s.99.93,1.39,1.35c.6.72,6.51,7.5,12.63,14.45,3.93,4.46,8.26,9.6,9.53,10.99l-.44-21.39c-.04-2.74-.32-3.66-1.55-4-.71-.17-1.63-.21-1.95-.21-.28,0-.32-.13-.32-.3,0-.25.32-.29.79-.29,1.79,0,3.69.13,4.13.13s1.75-.13,3.38-.13c.44,0,.71.04.71.29,0,.17-.16.3-.44.3-.2,0-.48,0-.95.13-1.31.3-1.47,1.22-1.47,3.75l-.08,24.68c0,2.78-.08,2.99-.36,2.99-.32,0-.79-.46-2.9-2.7-.44-.42-6.15-6.61-10.36-11.41-4.61-5.26-9.09-10.57-10.36-12.09l.52,20.17Z"/>
    <path class="cls-1" d="M418.36,424.59c0-6.57,0-7.75-.08-9.1-.08-1.43-.4-2.11-1.71-2.4-.32-.08-.99-.13-1.35-.13-.16,0-.32-.08-.32-.25,0-.25.2-.34.64-.34,1.79,0,4.29.13,4.49.13.48,0,2.98-.13,5.36-.13,3.93,0,11.2-.38,15.92,4.8,1.99,2.19,3.85,5.69,3.85,10.7,0,5.31-2.06,9.39-4.29,11.88-1.71,1.89-5.28,4.84-12.03,4.84-1.71,0-3.81-.13-5.52-.25-1.75-.13-3.1-.25-3.3-.25-.08,0-.75,0-1.59.04-.79,0-1.71.08-2.3.08-.44,0-.64-.08-.64-.34,0-.13.08-.25.32-.25.36,0,.83-.08,1.19-.17.79-.17.99-1.09,1.15-2.32.2-1.77.2-5.1.2-9.14v-7.41ZM421.7,429.14c0,4.46.04,8.34.08,9.14.04,1.05.12,2.74.44,3.2.52.8,2.06,1.69,6.75,1.69,3.69,0,7.11-1.43,9.45-3.92,2.06-2.15,3.18-6.19,3.18-10.07,0-5.35-2.18-8.8-3.81-10.61-3.73-4.17-8.26-4.76-12.98-4.76-.79,0-2.26.13-2.58.3-.36.17-.48.38-.48.84-.04,1.43-.04,5.73-.04,8.97v5.22Z"/>
  </g>
  <g>
    <path class="cls-1" d="M108.88,428.02c-.11-.09-.15-.17-.11-.23.03-.06.09-.08.33-.07l5.06.32-2.89-4.22c-.08-.12-.12-.19-.08-.25.04-.06.13-.07.29,0l4.71,1.84c.48.19.73.24.92.06.18-.17.27-.31.32-.4.04-.06.07-.11.12-.08.06.03.03.13-.03.23-.1.18-.68,1.15-.86,1.42-.11.15-.15.19-.2.16-.04-.02-.04-.06-.03-.12,0-.05-.07-.12-.29-.21l-3.33-1.34-.02.03,2.28,3.36c.24.36.28.43.25.49-.04.06-.22.05-.5.04-.42-.02-1.83-.08-2.08-.11-.19-.02-1.27-.08-1.94-.13l-.02.03,2.56,1.96c.12.09.21.15.32.21.14.08.25.02.35-.08.1-.11.17-.21.21-.28.03-.06.07-.1.11-.08.06.04.04.11-.02.22-.17.3-.37.61-.45.73-.08.13-.25.49-.38.71-.04.07-.09.12-.15.08-.04-.02-.02-.07.02-.14.03-.06.06-.11.1-.23.07-.22-.17-.44-.39-.61l-4.17-3.32Z"/>
    <path class="cls-1" d="M117.06,421.8s-.02.06.02.1l.75.94c.14.17.29.31.37.35.13.07.26.06.38-.16l.06-.11c.05-.09.07-.1.12-.07.06.03.05.08,0,.16-.13.23-.33.52-.45.74-.04.08-.25.48-.46.85-.05.09-.09.13-.15.09-.04-.03-.04-.06,0-.12.04-.06.09-.17.11-.23.14-.35-.02-.62-.29-.97l-3.38-4.3c-.16-.2-.21-.29-.17-.36.04-.06.12-.07.33-.05.49.05,3.98.54,5.32.71.79.1,1.01-.05,1.13-.18.08-.09.15-.2.2-.28.03-.06.06-.09.11-.06.06.03.03.1-.12.37-.15.26-.44.77-.78,1.33-.08.12-.13.21-.18.18-.04-.03-.04-.06,0-.14.01-.06-.02-.14-.13-.16l-1.79-.27s-.07,0-.09.04l-.91,1.58ZM117.53,420.15s0-.06-.02-.06l-2.11-.36s-.07-.02-.08,0c-.01.02.02.06.04.08l1.36,1.65s.05.03.07,0l.75-1.31Z"/>
    <path class="cls-1" d="M120.24,416.18c-.38-.22-.58-.24-.84-.26-.14-.02-2.25.04-2.76.08-.36.03-.64.1-.8.19-.1.06-.21.16-.26.25-.03.06-.08.1-.12.07-.04-.02-.04-.09.01-.17.07-.13.4-.65.53-.88.09-.15.23-.45.41-.77.04-.07.08-.09.13-.07.04.03.02.08-.01.2-.02.07.01.14.07.17.06.03.16.05.29.05.27.02,2.55,0,2.81,0-.13-.17-1.18-1.96-1.34-2.18-.12-.16-.22-.26-.31-.31-.07-.04-.17-.06-.26.05-.05.06-.1.11-.14.09-.05-.03-.04-.07,0-.16.13-.23.29-.45.4-.66.09-.16.33-.64.41-.77.04-.08.09-.12.13-.1.05.03.04.1,0,.18-.04.07-.09.22-.09.36-.01.19.03.32.13.58.15.4,1.25,2.35,1.48,2.65.19.25.41.38.65.51l.58.33c.11.06.41.24.72.38.21.1.41.13.56-.07.07-.09.18-.24.23-.34.04-.08.09-.1.12-.08.05.03.04.1-.01.19-.26.45-.53.88-.64,1.07-.1.18-.34.64-.49.9-.06.1-.1.15-.16.12-.04-.02-.04-.07,0-.15.06-.1.09-.19.11-.27.05-.16-.07-.31-.26-.44-.29-.19-.58-.36-.7-.43l-.58-.33Z"/>
    <path class="cls-1" d="M122.26,409.24c-1.08-.62-1.28-.73-1.51-.85-.25-.12-.41-.12-.54.01-.07.07-.13.15-.18.24-.04.07-.08.11-.14.07-.04-.03-.02-.09.04-.2.15-.27.43-.7.55-.91.1-.18.32-.61.47-.88.05-.09.1-.14.14-.12.06.03.05.08,0,.15-.04.07-.07.13-.1.22-.07.21.01.34.25.49.22.14.42.26,1.5.88l1.25.72c.69.39,1.25.71,1.57.86.2.09.36.11.51-.09.07-.09.18-.24.24-.34.04-.08.09-.1.12-.08.05.03.04.1,0,.18-.27.47-.55.9-.66,1.1-.09.16-.33.62-.49.91-.05.09-.1.13-.15.1-.04-.02-.04-.06,0-.15.06-.11.1-.2.12-.27.05-.16-.04-.27-.24-.41-.28-.21-.84-.53-1.53-.92l-1.25-.72Z"/>
    <path class="cls-1" d="M125.32,403.9c-1.08-.62-1.28-.73-1.51-.85-.25-.12-.4-.13-.58.07-.05.05-.12.17-.18.27-.04.08-.08.11-.13.08-.05-.03-.04-.09.03-.19.11-.19.23-.39.34-.57.11-.18.21-.34.27-.44.13-.23.94-1.64,1.01-1.78.06-.14.12-.26.13-.33.01-.04.02-.09.04-.13.02-.04.05-.03.09,0,.05.03.12.11.43.32.07.05.37.24.45.3.03.03.07.07.04.12-.03.05-.07.04-.14,0-.05-.03-.17-.09-.28-.1-.16-.02-.28,0-.53.33-.08.11-.53.85-.61.99-.02.03,0,.06.04.09l1.8,1.03c.05.03.08.04.11,0,.09-.16.56-.97.64-1.14.08-.18.12-.3.09-.4-.03-.08-.05-.13-.03-.17.02-.03.04-.04.09-.02.04.02.14.12.49.35.14.09.41.27.46.3.06.03.13.08.1.14-.03.05-.07.05-.1.03-.07-.03-.17-.09-.27-.12-.16-.05-.32,0-.5.24-.09.13-.5.83-.6,1-.02.04,0,.06.05.08l.56.32c.24.14.89.52,1.1.63.5.27.67.21,1.08-.51.11-.18.28-.48.3-.72.02-.23-.08-.4-.34-.62-.07-.06-.09-.09-.06-.14.03-.06.09-.03.16.02.16.09.62.43.74.54.16.15.12.22-.03.49-.31.53-.54.91-.72,1.22-.19.3-.32.51-.44.73-.04.08-.13.23-.22.41-.09.16-.19.36-.27.5-.05.09-.1.13-.15.1-.04-.02-.04-.06,0-.15.06-.11.1-.2.12-.27.05-.16-.08-.28-.27-.43-.28-.21-.84-.53-1.49-.9l-1.25-.72Z"/>
    <path class="cls-1" d="M130.55,400.21c.56.3.8.32.93.2.11-.1.2-.23.26-.34.04-.08.08-.11.13-.09.06.03.03.1-.02.2-.26.46-.45.73-.53.87-.04.06-.21.41-.42.78-.05.09-.1.15-.16.12-.04-.03-.03-.08,0-.15.05-.09.12-.22.15-.34.05-.22-.14-.36-.75-.72l-4.14-2.46c-.14-.08-.23-.16-.19-.23.04-.08.17-.09.37-.14.14-.03,1.9-.46,3.52-.91.76-.21,2.33-.58,2.51-.63l.02-.04-3.23-1.75c-.44-.24-.61-.26-.78-.12-.1.08-.2.25-.26.35-.05.08-.09.1-.13.08-.06-.03-.02-.11.04-.22.21-.37.43-.7.51-.85.04-.08.18-.36.38-.71.05-.09.1-.16.16-.13.04.02.04.08,0,.16-.04.07-.07.13-.1.23-.06.23.06.37.45.61l4.43,2.64c.16.09.2.15.17.22-.04.08-.17.12-.29.15-.68.2-2.13.58-3.29.9-1.21.33-2.53.63-2.74.68v.02s2.99,1.62,2.99,1.62Z"/>
    <path class="cls-1" d="M131.93,392.37c-1.08-.62-1.28-.73-1.51-.85-.25-.12-.4-.13-.58.07-.05.05-.12.17-.18.27-.04.08-.08.11-.13.08-.05-.03-.04-.09.02-.19.22-.38.49-.81.6-1,.1-.17.33-.63.49-.91.06-.1.1-.14.15-.11.05.03.04.08,0,.16-.04.08-.06.12-.1.22-.07.21.01.34.25.49.22.14.42.26,1.5.88l1.31.75c.3.18.66.35,1.01.55.4.23.84.52,1.16.89.35.4.62,1.05.65,1.98,0,.12,0,.27-.02.46,0,.07-.02.13-.04.17-.02.03-.05.04-.09.02-.04-.02-.04-.07-.04-.23,0-.12-.01-.27-.08-.5-.24-.85-.95-1.25-2.34-2.05l-2.04-1.17Z"/>
    <path class="cls-1" d="M133.83,390.51c-1.21-.7-2.32-2.4-1.1-4.52,1.01-1.77,2.67-2.28,4.3-1.35,1.63.93,2.26,2.8,1.23,4.61-1.17,2.04-3.16,1.99-4.42,1.27ZM136.72,385.78c-1.59-.91-3.1-.56-3.77.6-.47.82-.55,2.01,1.22,3.02,1.48.85,3.11.7,3.89-.66.28-.5.7-1.79-1.35-2.96Z"/>
    <path class="cls-1" d="M139.36,382.82c-.38-.22-.58-.24-.84-.26-.14-.02-2.25.04-2.76.08-.36.03-.64.1-.8.19-.1.07-.21.16-.26.25-.03.06-.08.1-.12.07-.04-.02-.04-.09.01-.17.07-.13.4-.65.53-.88.09-.15.23-.45.41-.77.04-.07.08-.09.13-.07s.02.08-.01.2c-.02.07.01.14.07.17.06.03.16.05.29.05.27.02,2.55,0,2.81,0-.13-.17-1.18-1.96-1.34-2.18-.12-.16-.22-.26-.31-.31-.07-.04-.17-.06-.26.05-.05.06-.1.11-.14.09-.05-.03-.04-.07,0-.16.13-.23.29-.45.4-.65.09-.16.34-.64.41-.77.04-.08.09-.12.13-.1.05.03.04.1,0,.18-.04.07-.09.22-.09.36-.01.19.03.32.13.58.15.4,1.25,2.35,1.48,2.65.19.25.41.38.65.51l.58.33c.11.06.41.24.72.39.21.1.41.13.56-.07.07-.09.18-.24.23-.34.04-.08.09-.1.12-.08.05.03.04.1-.01.19-.26.45-.53.88-.64,1.07-.1.18-.34.64-.49.9-.06.1-.1.15-.16.12-.04-.02-.04-.07,0-.15.06-.1.09-.19.11-.27.05-.16-.07-.31-.26-.44-.29-.19-.58-.36-.7-.43l-.58-.33Z"/>
    <path class="cls-1" d="M139.56,374.49c-.11-.09-.15-.17-.11-.23.03-.06.09-.08.33-.07l5.06.32-2.89-4.22c-.08-.12-.12-.19-.08-.25.04-.06.13-.07.29,0l4.71,1.84c.49.19.73.24.92.06.18-.17.27-.31.32-.4.04-.06.07-.11.12-.08.06.03.03.13-.03.23-.1.18-.68,1.15-.86,1.42-.11.16-.15.19-.2.16-.04-.02-.04-.06-.03-.12,0-.05-.07-.13-.29-.21l-3.33-1.34-.02.03,2.28,3.36c.24.35.28.43.25.49-.04.06-.22.05-.5.04-.42-.02-1.83-.08-2.08-.11-.19-.02-1.27-.08-1.94-.13l-.02.03,2.56,1.96c.12.09.21.15.32.21.14.08.25.02.35-.08.1-.11.17-.21.21-.28.03-.06.07-.1.11-.08.06.04.04.11-.02.21-.17.3-.38.61-.45.73-.08.14-.25.49-.38.71-.04.07-.09.12-.15.08-.04-.02-.02-.07.02-.14.03-.06.06-.11.1-.23.07-.22-.17-.44-.39-.61l-4.17-3.32Z"/>
    <path class="cls-1" d="M147.57,368.49c-.38-.22-.58-.24-.84-.26-.14-.02-2.25.04-2.76.08-.36.03-.64.1-.8.19-.1.06-.21.16-.26.25-.03.06-.08.1-.12.07-.04-.02-.04-.09.01-.17.07-.13.4-.65.53-.88.09-.15.23-.45.41-.77.04-.07.08-.09.13-.07s.02.08-.01.2c-.02.07.01.14.07.17.06.03.16.05.29.05.27.02,2.55,0,2.81,0-.13-.17-1.18-1.96-1.34-2.18-.12-.16-.22-.26-.31-.31-.07-.04-.17-.06-.26.05-.05.06-.1.11-.14.09-.05-.03-.04-.07,0-.16.13-.23.29-.45.4-.66.09-.16.34-.64.41-.77.04-.08.09-.12.13-.1.05.03.04.1,0,.18-.04.07-.09.22-.09.36-.01.19.03.32.13.58.15.4,1.25,2.35,1.48,2.65.19.25.41.38.65.51l.58.33c.11.06.41.23.72.38.21.1.41.13.56-.07.07-.09.18-.24.23-.34.04-.08.09-.1.12-.08.05.03.04.1-.01.19-.26.45-.53.88-.64,1.07-.1.18-.34.64-.49.9-.06.1-.1.15-.16.12-.04-.02-.04-.07,0-.15.06-.1.09-.19.11-.27.05-.16-.07-.31-.26-.44-.29-.19-.58-.36-.7-.43l-.58-.33Z"/>
    <path class="cls-1" d="M151.35,361.38c.91.52,1.4.8,1.61.73.18-.06.33-.22.65-.77.22-.38.37-.66.28-.94-.04-.14-.19-.34-.32-.43-.06-.04-.09-.08-.06-.14.03-.05.07-.04.15.01.08.05.58.4.76.57.13.13.15.19-.07.56-.29.51-.52.87-.71,1.19-.2.31-.35.56-.52.85-.04.08-.13.23-.22.41-.09.16-.19.36-.27.5-.05.09-.1.13-.15.1-.04-.02-.04-.06,0-.15.06-.11.1-.2.12-.27.05-.16-.08-.28-.27-.43-.28-.21-.84-.53-1.49-.9l-1.25-.72c-1.08-.62-1.28-.73-1.51-.85-.25-.12-.4-.13-.58.07-.05.05-.1.13-.16.22-.04.08-.08.11-.13.08-.05-.03-.04-.09.03-.19.19-.33.47-.77.58-.96.1-.17.37-.7.53-.98.06-.1.1-.14.15-.11.05.03.04.08-.01.16-.04.08-.1.2-.14.29-.07.21.01.34.25.5.22.14.42.26,1.5.88l1.25.72Z"/>
    <path class="cls-1" d="M152.18,357.05c-1.08-.62-1.28-.73-1.51-.85-.25-.12-.41-.12-.54.01-.07.07-.13.15-.18.24-.04.07-.08.11-.14.07-.04-.03-.02-.09.04-.2.15-.27.43-.71.55-.91.1-.18.32-.61.47-.88.05-.09.1-.14.14-.12.06.03.05.08,0,.15-.04.07-.07.13-.1.22-.07.21.01.34.25.5.22.14.42.26,1.5.88l1.25.72c.69.39,1.25.72,1.57.86.2.09.36.11.51-.08.07-.09.18-.24.24-.35.04-.08.09-.1.12-.08.05.03.04.1,0,.17-.27.47-.55.9-.66,1.1-.09.16-.33.62-.49.91-.05.09-.1.13-.15.1-.04-.02-.04-.06,0-.15.06-.11.1-.2.12-.27.05-.16-.04-.27-.24-.41-.28-.21-.84-.53-1.53-.92l-1.25-.72Z"/>
    <path class="cls-1" d="M155.85,353.54c.68.39,1.21.7,1.53.83.22.1.4.14.55-.05.07-.09.18-.24.23-.34.05-.09.09-.11.13-.09.05.03.04.09-.02.2-.26.45-.53.88-.64,1.07-.11.18-.34.64-.5.91-.06.1-.1.14-.16.11-.04-.02-.04-.06,0-.14.06-.11.1-.2.12-.27.05-.16-.08-.28-.27-.43-.28-.21-.81-.51-1.49-.9l-1.25-.72c-1.08-.62-1.28-.73-1.51-.85-.25-.12-.39-.13-.58.07-.05.05-.12.17-.18.27-.04.07-.08.11-.13.09-.06-.03-.04-.1.02-.2.11-.18.23-.39.34-.57.11-.18.21-.34.27-.44.15-.27.98-1.71,1.06-1.88.07-.14.12-.22.14-.31,0-.05,0-.1.02-.14.02-.03.06-.03.09-.01.05.03.12.11.29.24.07.05.48.3.56.37.05.04.09.08.06.13-.03.05-.07.04-.16,0-.06-.03-.17-.1-.29-.11-.13,0-.32.08-.48.35l-.65,1.08s-.02.08.06.12l1.77,1.02s.07.03.09-.01l.51-.91c.07-.12.13-.22.18-.32.07-.14.1-.25.05-.38-.02-.06-.04-.09-.02-.13.02-.03.05-.03.09,0,.04.02.2.16.41.31.13.1.45.3.5.33.06.04.13.08.09.15-.02.04-.08.03-.13,0-.05-.03-.14-.06-.25-.08-.12-.02-.31.01-.46.22-.12.17-.56.92-.62,1.04-.02.04-.01.06.04.09l.57.33Z"/>
    <path class="cls-1" d="M156.7,349.16c-1.08-.62-1.28-.73-1.51-.85-.25-.12-.4-.13-.58.07-.05.05-.12.17-.18.27-.04.08-.08.11-.13.08-.05-.03-.04-.09.03-.19.11-.19.23-.39.34-.57.11-.18.21-.34.27-.44.13-.23.94-1.64,1.01-1.78.06-.14.12-.26.13-.33.01-.04.02-.09.04-.13.02-.04.05-.03.09,0,.05.03.12.11.43.32.07.05.37.24.45.3.03.03.07.07.04.12-.03.05-.07.04-.14,0-.05-.03-.17-.09-.28-.1-.16-.02-.28,0-.53.33-.08.11-.53.85-.61.99-.02.04,0,.06.04.09l1.8,1.03c.05.03.08.04.11,0,.09-.16.56-.97.64-1.14.09-.18.12-.3.09-.4-.03-.08-.05-.13-.03-.17.02-.03.04-.04.09-.02.04.03.14.12.49.35.14.09.41.27.46.3.06.03.13.08.1.14-.03.05-.07.05-.1.03-.07-.03-.17-.09-.27-.12-.16-.05-.33,0-.5.24-.09.13-.5.83-.6,1-.02.04,0,.06.05.08l.56.32c.24.14.89.52,1.1.63.5.27.67.21,1.08-.51.11-.18.28-.48.3-.72.02-.23-.08-.4-.34-.62-.07-.06-.09-.09-.06-.14.03-.06.09-.03.16.02.16.09.62.43.74.54.16.15.12.22-.03.49-.31.53-.54.91-.72,1.22-.19.3-.32.51-.44.73-.04.08-.13.23-.22.41-.09.16-.18.36-.27.5-.05.09-.1.13-.15.1-.04-.02-.04-.06,0-.15.06-.11.1-.2.12-.27.05-.16-.08-.28-.27-.43-.28-.21-.84-.53-1.49-.9l-1.25-.72Z"/>
    <path class="cls-1" d="M162.15,343.12s-.02.06.02.1l.75.94c.14.17.29.31.37.35.13.07.26.06.38-.16l.06-.11c.05-.09.07-.1.12-.07.06.03.05.08,0,.16-.13.23-.33.52-.45.74-.04.08-.25.48-.46.85-.05.09-.09.13-.15.09-.04-.03-.04-.06,0-.12.04-.06.09-.17.11-.23.14-.35-.02-.62-.29-.97l-3.38-4.3c-.16-.2-.21-.29-.17-.36.04-.06.12-.07.33-.05.49.05,3.98.54,5.32.71.79.1,1.01-.05,1.13-.18.08-.09.15-.2.2-.28.03-.06.06-.09.11-.06.06.03.03.1-.12.37-.15.26-.44.77-.78,1.33-.08.12-.13.21-.18.18-.04-.03-.04-.06,0-.14.01-.06-.02-.14-.13-.16l-1.79-.27s-.07,0-.09.04l-.91,1.58ZM162.62,341.46s0-.06-.02-.06l-2.11-.36s-.07-.02-.08,0c-.01.02.01.06.04.08l1.36,1.65s.05.03.07,0l.75-1.31Z"/>
    <path class="cls-1" d="M166.24,337.93c.56.3.8.32.93.2.11-.1.2-.23.26-.34.04-.08.08-.11.13-.09.06.03.03.1-.02.2-.27.46-.45.73-.53.87-.04.06-.21.41-.42.78-.05.09-.1.15-.16.12-.04-.03-.03-.08,0-.15.05-.09.12-.22.15-.34.05-.22-.14-.36-.75-.72l-4.14-2.46c-.14-.08-.23-.16-.19-.23.04-.08.17-.09.37-.14.14-.03,1.9-.46,3.52-.91.76-.21,2.33-.58,2.51-.63l.02-.04-3.23-1.75c-.44-.24-.61-.25-.78-.12-.1.08-.2.25-.26.35-.05.08-.09.1-.13.08-.06-.03-.02-.11.04-.22.21-.37.43-.7.51-.85.04-.08.18-.36.38-.71.05-.09.1-.16.16-.13.04.02.04.08,0,.16-.04.07-.07.13-.1.23-.06.23.06.37.45.61l4.43,2.64c.16.09.2.15.17.22-.04.08-.17.12-.29.15-.68.2-2.13.58-3.29.9-1.21.33-2.53.63-2.74.68v.02s2.99,1.62,2.99,1.62Z"/>
    <path class="cls-1" d="M167.62,330.09c-1.08-.62-1.28-.73-1.51-.85-.25-.12-.4-.13-.58.07-.05.05-.12.17-.18.27-.04.08-.08.11-.13.08-.05-.03-.04-.09.02-.19.22-.38.49-.81.61-1.01.13-.22.36-.68.6-1.11.51-.89,1.19-2.07,2.44-2.38.57-.14,1.35-.14,2.2.35.89.51,1.36,1.28,1.54,1.91.15.52.23,1.54-.52,2.86-.15.26-.33.54-.51.79-.18.26-.34.49-.44.67-.04.08-.13.23-.23.41-.09.16-.18.36-.27.5-.05.09-.1.13-.15.1-.04-.02-.04-.06,0-.15.06-.11.1-.2.12-.27.05-.16-.08-.28-.27-.43-.28-.21-.84-.53-1.49-.9l-1.25-.72ZM168.91,329.65c.75.43,1.3.74,1.44.81.18.09.47.24.58.23.19-.01.5-.21.82-.77.41-.72.55-1.29.43-1.92-.13-.68-.69-1.19-1.43-1.61-.9-.52-1.7-.47-2.16-.34-1,.3-1.55,1.06-1.86,1.61-.08.14-.21.42-.21.49,0,.08.01.12.09.17.24.15.86.5,1.42.82l.89.51Z"/>
    <path class="cls-1" d="M172.65,321.32c-1.08-.62-1.28-.73-1.51-.85-.25-.12-.4-.13-.58.07-.05.05-.12.16-.18.27-.04.08-.08.11-.13.08-.05-.03-.04-.09.03-.19.22-.38.49-.81.61-1.01.17-.29.38-.71.57-1.04.51-.89.99-1.04,1.16-1.09.24-.07.67-.09,1.05.13,1.01.58,1.29,1.72.72,2.73-.02.04-.07.11-.09.15-.03.03-.06.08-.11.05-.06-.03-.05-.09.04-.24.23-.4.1-1.21-.63-1.62-.23-.13-.72-.39-1.3-.19-.38.12-.59.39-.68.55-.06.11-.12.22-.13.29,0,.04.02.09.1.13l2.84,1.63c.65.37,1.21.7,1.54.83.21.09.39.14.54-.06.07-.09.18-.24.24-.35.04-.08.09-.1.12-.08.05.03.04.1,0,.17-.27.47-.55.9-.65,1.09-.09.16-.33.62-.49.91-.05.09-.1.13-.15.1-.04-.02-.04-.06,0-.15.06-.11.1-.2.12-.27.05-.16-.08-.28-.27-.43-.28-.21-.84-.53-1.49-.9l-1.25-.72Z"/>
    <path class="cls-1" d="M175.29,316.71c-1.08-.62-1.28-.73-1.51-.85-.25-.12-.4-.13-.58.07-.05.05-.12.17-.18.27-.04.08-.08.11-.13.08-.05-.03-.04-.09.02-.19.22-.38.49-.81.58-.96.14-.24.42-.79.55-1.01.26-.45.57-.9,1.05-1.13.25-.12.77-.2,1.25.07.52.3.88.8,1.05,1.85,1.16-.18,2.07-.3,2.75-.47.64-.16.86-.42.94-.52.06-.07.1-.13.14-.19.03-.06.07-.07.11-.05.06.03.04.09,0,.17l-.39.67c-.23.4-.37.56-.57.68-.34.21-.83.29-1.6.37-.55.06-1.22.11-1.38.14-.06.01-.09.05-.12.1l-.37.61s-.02.07.03.09l.1.06c.66.38,1.22.7,1.54.83.22.1.4.14.55-.05.08-.1.18-.25.23-.33.03-.06.07-.07.1-.05.05.03.04.09,0,.18-.24.41-.56.92-.62,1.03-.08.14-.31.59-.47.88-.05.09-.1.13-.15.1-.04-.02-.04-.06,0-.15.06-.11.1-.2.12-.27.05-.16-.08-.28-.27-.43-.28-.21-.84-.53-1.49-.9l-1.25-.72ZM176.33,316.19c.08.04.11.05.16,0,.13-.12.28-.32.38-.5.16-.28.19-.39.17-.57-.03-.3-.24-.69-.82-1.03-1.01-.58-1.68-.08-1.92.34-.1.18-.17.31-.19.39-.01.06,0,.09.06.12l2.16,1.24Z"/>
    <path class="cls-1" d="M180.64,310.85s-.02.06.02.1l.75.94c.14.17.29.31.37.36.13.07.26.06.38-.16l.06-.11c.05-.09.07-.1.12-.07.06.03.05.08,0,.16-.13.23-.33.52-.45.74-.04.08-.25.48-.46.85-.05.09-.09.13-.15.1-.04-.03-.04-.06,0-.12.04-.06.09-.17.11-.23.14-.35-.02-.62-.29-.97l-3.38-4.3c-.16-.2-.21-.29-.17-.36.04-.06.12-.07.33-.05.49.05,3.98.54,5.32.71.79.1,1.01-.05,1.13-.18.08-.09.15-.2.2-.28.03-.06.06-.09.11-.06.06.03.03.1-.12.37-.15.26-.44.77-.78,1.33-.08.12-.13.21-.18.18-.04-.03-.04-.06,0-.14.01-.06-.02-.14-.13-.16l-1.79-.27s-.07,0-.09.04l-.91,1.58ZM181.12,309.2s0-.05-.02-.06l-2.11-.36s-.07-.02-.08,0c-.01.02.02.06.04.08l1.36,1.65s.05.03.07,0l.75-1.31Z"/>
    <path class="cls-1" d="M184.52,306.72c-1.01.35-1.91.07-2.6-.32-.48-.28-1.23-.91-1.47-1.94-.18-.78-.07-1.62.53-2.67.25-.44.43-.69.66-.99.19-.25.38-.44.53-.64.05-.07.1-.08.15-.06.06.03.13.1.37.26.23.15.62.37.76.46.1.07.15.11.11.18-.03.06-.1.04-.2-.02-.22-.12-.52-.17-.81-.1-.38.09-.89.54-1.27,1.19-.35.62-.43,1.11-.32,1.59.18.79.78,1.31,1.46,1.71,1.69.97,3.26.16,3.81-.79.36-.63.51-1.05.35-1.53-.07-.2-.22-.41-.33-.51-.1-.09-.12-.12-.09-.17.03-.05.09-.04.14,0,.08.05.65.49.85.7.1.1.12.15.1.3-.05.35-.31.92-.57,1.37-.56.97-1.24,1.67-2.17,1.99Z"/>
    <path class="cls-1" d="M184.14,297.42l-.58,1.07c-.22.42-.28.61-.19.81.07.13.13.22.18.26.05.05.07.09.04.13-.03.05-.07.04-.15,0-.11-.06-.68-.57-.73-.62-.08-.07-.11-.12-.09-.16.03-.06.14-.09.26-.26.14-.19.31-.46.44-.69l1.61-2.81c.13-.23.2-.39.25-.51.04-.12.06-.18.07-.21.03-.05.07-.03.18.03.15.09.63.39.81.49.07.05.1.09.08.13-.03.06-.08.05-.19,0l-.08-.04c-.19-.09-.5-.01-.88.61l-.53.88,2.91,1.67c.65.37,1.21.69,1.54.83.21.09.39.14.54-.06.07-.09.18-.24.24-.35.04-.08.09-.1.12-.08.05.03.04.1,0,.17-.27.47-.55.9-.66,1.1-.09.16-.33.62-.49.91-.05.09-.1.13-.15.1-.04-.02-.04-.06,0-.15.06-.11.1-.2.12-.27.05-.16-.08-.29-.27-.43-.28-.21-.84-.53-1.49-.9l-2.91-1.67Z"/>
    <path class="cls-1" d="M188.29,294.03c-1.08-.62-1.28-.73-1.51-.85-.25-.12-.41-.12-.54.01-.07.07-.13.15-.18.24-.04.07-.08.1-.14.07-.04-.03-.02-.09.04-.2.15-.27.43-.7.55-.91.1-.18.32-.61.47-.88.05-.09.1-.14.14-.12.06.03.05.08,0,.15-.04.07-.07.13-.1.22-.07.21.01.34.25.49.22.14.42.26,1.5.88l1.25.71c.69.39,1.25.72,1.57.86.2.09.36.11.51-.08.07-.09.18-.24.24-.35.04-.08.09-.1.12-.08.05.03.04.1,0,.17-.27.47-.55.9-.66,1.09-.09.16-.33.62-.49.91-.05.09-.1.13-.15.1-.04-.02-.04-.06,0-.15.06-.11.1-.2.12-.27.05-.16-.04-.27-.24-.41-.28-.21-.84-.53-1.53-.92l-1.25-.72Z"/>
    <path class="cls-1" d="M192.8,292.26c-1.01.35-1.91.07-2.6-.32-.48-.28-1.23-.91-1.47-1.94-.18-.78-.07-1.62.53-2.67.25-.44.43-.69.66-.99.19-.25.38-.44.53-.64.05-.07.1-.08.15-.06.06.03.13.1.37.26.23.15.62.37.75.46.1.07.15.11.11.18-.03.06-.1.04-.2-.02-.22-.12-.53-.17-.81-.1-.38.09-.89.54-1.27,1.19-.35.62-.43,1.11-.32,1.59.18.79.78,1.31,1.46,1.71,1.69.97,3.26.16,3.81-.79.36-.63.51-1.06.35-1.53-.07-.2-.22-.41-.33-.51-.1-.09-.12-.12-.09-.17.03-.05.09-.03.14,0,.08.05.65.49.85.7.1.1.12.15.1.3-.05.35-.31.92-.57,1.37-.56.97-1.24,1.67-2.17,1.99Z"/>
    <path class="cls-1" d="M193.47,285c-1.08-.62-1.28-.73-1.51-.85-.25-.12-.39-.13-.58.07-.05.05-.12.17-.18.27-.04.08-.08.11-.13.08-.05-.03-.04-.09.03-.19.11-.19.23-.39.34-.57.11-.18.22-.34.27-.44.13-.23.94-1.64,1.01-1.78.06-.14.12-.26.13-.33.01-.04.02-.1.04-.13.02-.04.05-.03.09,0,.05.03.12.11.43.32.07.05.37.24.45.3.03.03.07.07.04.12s-.07.04-.14,0c-.05-.03-.17-.09-.28-.1-.16-.02-.28,0-.53.33-.08.11-.52.85-.61.99-.02.03,0,.06.04.09l1.8,1.03c.05.03.08.04.11,0,.09-.16.56-.97.64-1.14.08-.18.12-.3.09-.4-.03-.08-.05-.13-.03-.17.02-.03.04-.04.09-.02.04.03.14.12.49.35.14.09.41.27.46.3.06.03.13.08.1.14-.03.05-.07.05-.1.03-.07-.03-.17-.09-.27-.12-.16-.05-.32,0-.5.24-.09.13-.5.83-.6,1-.02.04,0,.06.05.08l.56.32c.24.14.89.52,1.1.63.5.27.67.21,1.08-.51.11-.18.28-.48.3-.72.02-.23-.08-.4-.34-.62-.07-.06-.09-.09-.06-.14.03-.06.09-.03.16.02.16.09.62.43.74.54.16.16.12.22-.03.49-.31.53-.54.91-.73,1.22-.19.3-.32.51-.44.73-.04.08-.13.23-.22.41-.09.16-.19.36-.27.5-.05.09-.1.13-.15.1-.04-.02-.04-.06,0-.15.06-.11.1-.2.12-.27.05-.16-.08-.28-.27-.43-.28-.21-.84-.53-1.49-.9l-1.25-.72Z"/>
    <path class="cls-1" d="M195.43,276.99c-.11-.09-.15-.17-.11-.23.03-.06.09-.08.33-.07l5.06.32-2.89-4.22c-.08-.12-.12-.19-.08-.25.04-.06.13-.07.29,0l4.71,1.84c.48.19.73.24.92.06.18-.17.27-.31.32-.4.04-.06.07-.11.12-.09.06.03.03.13-.03.23-.1.18-.68,1.15-.86,1.42-.11.16-.15.19-.2.16-.04-.02-.04-.06-.03-.12,0-.05-.07-.13-.29-.21l-3.33-1.34-.02.03,2.28,3.36c.24.36.28.43.25.49-.04.06-.22.05-.5.04-.42-.02-1.83-.08-2.08-.11-.19-.02-1.27-.08-1.94-.13l-.02.03,2.56,1.96c.12.09.21.15.32.21.14.08.25.02.35-.08.1-.11.17-.21.21-.28.03-.06.07-.1.11-.08.06.04.04.11-.02.21-.17.3-.38.61-.45.73-.08.13-.25.49-.38.71-.04.07-.09.12-.15.08-.04-.02-.02-.07.02-.14.03-.06.06-.11.1-.23.07-.22-.17-.44-.39-.61l-4.17-3.32Z"/>
    <path class="cls-1" d="M203.45,270.99c-.38-.22-.58-.24-.84-.26-.14-.02-2.25.04-2.76.08-.36.03-.64.1-.8.19-.1.06-.21.16-.26.25-.03.06-.08.1-.12.07-.04-.02-.04-.09.01-.17.07-.13.4-.65.53-.88.09-.15.23-.45.41-.77.04-.07.08-.09.13-.07.04.02.02.08-.01.2-.02.07.01.14.07.17.06.03.16.05.29.05.27.02,2.55,0,2.81,0-.13-.17-1.18-1.96-1.34-2.18-.12-.16-.22-.26-.31-.31-.07-.04-.17-.06-.26.05-.05.05-.1.11-.14.09-.05-.03-.04-.07,0-.16.13-.23.29-.45.4-.66.09-.16.33-.64.41-.77.04-.08.09-.12.13-.1.05.03.04.1,0,.18-.04.07-.09.22-.1.36-.01.19.03.32.13.58.15.4,1.25,2.35,1.48,2.65.19.25.41.38.65.51l.58.33c.11.06.41.24.72.38.21.1.41.13.56-.07.07-.09.18-.24.23-.34.04-.08.09-.1.12-.08.05.03.04.1-.01.19-.26.45-.53.88-.64,1.07-.1.18-.34.64-.49.9-.06.1-.1.15-.16.12-.04-.02-.04-.07,0-.15.06-.1.09-.19.11-.27.05-.16-.07-.31-.26-.44-.29-.19-.58-.36-.7-.43l-.58-.33Z"/>
    <path class="cls-1" d="M207.13,264.63s-.02.06.02.1l.75.94c.14.17.29.31.37.36.13.07.26.06.38-.16l.06-.11c.05-.09.07-.1.12-.07.06.03.05.08,0,.16-.13.23-.33.52-.45.74-.04.08-.25.48-.46.85-.05.09-.09.13-.15.1-.04-.03-.04-.06,0-.12.04-.06.09-.17.11-.23.14-.35-.02-.62-.29-.97l-3.38-4.3c-.16-.2-.21-.29-.17-.36.04-.06.12-.07.33-.05.49.05,3.98.54,5.32.71.79.1,1.01-.05,1.13-.18.08-.09.15-.2.2-.28.03-.06.06-.09.11-.06.06.03.03.1-.12.37-.15.26-.44.77-.78,1.33-.08.12-.13.21-.18.18-.04-.03-.04-.06,0-.14.01-.06-.02-.14-.13-.16l-1.79-.27s-.07,0-.09.04l-.91,1.58ZM207.6,262.98s0-.05-.02-.06l-2.11-.36s-.07-.02-.08,0c-.01.02.02.06.04.08l1.36,1.65s.05.03.07,0l.75-1.31Z"/>
    <path class="cls-1" d="M208.6,258.59c-1.08-.62-1.28-.73-1.51-.85-.25-.12-.4-.13-.58.07-.05.05-.12.17-.18.27-.04.08-.08.11-.13.08-.05-.03-.04-.09.03-.19.22-.38.49-.81.58-.96.14-.24.43-.79.55-1.01.26-.45.57-.9,1.05-1.13.25-.12.77-.2,1.25.07.52.3.88.8,1.05,1.85,1.16-.18,2.07-.3,2.75-.47.64-.16.86-.43.94-.52.06-.07.1-.13.14-.19.03-.06.07-.07.1-.05.06.03.04.09,0,.18l-.39.67c-.23.4-.37.56-.57.68-.34.21-.83.29-1.6.37-.55.06-1.22.11-1.38.14-.06.01-.09.05-.12.1l-.37.61s-.02.07.03.09l.1.06c.66.38,1.22.7,1.54.83.22.1.4.14.55-.05.08-.1.18-.25.23-.33.03-.06.07-.07.11-.05.05.03.04.09,0,.18-.24.41-.56.92-.62,1.03-.08.13-.31.59-.48.88-.05.09-.1.13-.15.1-.04-.02-.04-.06,0-.15.06-.11.1-.2.12-.27.05-.16-.08-.28-.27-.43-.28-.21-.84-.53-1.49-.9l-1.25-.72ZM209.64,258.08c.08.04.12.05.16,0,.13-.12.28-.32.38-.5.16-.28.19-.39.17-.57-.03-.3-.24-.69-.82-1.03-1.01-.58-1.68-.08-1.92.34-.1.18-.17.31-.19.39-.01.06,0,.09.06.12l2.16,1.24Z"/>
    <path class="cls-1" d="M210.66,251.15l-.58,1.07c-.22.42-.28.61-.19.81.07.13.13.22.18.26.05.05.07.08.04.13-.03.05-.07.04-.15,0-.11-.06-.68-.57-.73-.62-.08-.07-.11-.12-.09-.16.03-.06.14-.09.26-.26.14-.19.31-.45.44-.69l1.61-2.81c.13-.23.2-.4.25-.51.04-.12.06-.18.07-.21.03-.05.08-.03.18.03.15.09.63.39.81.49.07.05.1.09.08.13-.03.06-.08.05-.19,0l-.08-.04c-.19-.09-.5-.01-.88.61l-.54.88,2.91,1.67c.65.37,1.21.7,1.54.83.21.09.39.14.54-.06.07-.09.18-.24.24-.35.04-.08.09-.1.12-.08.05.03.04.1,0,.18-.27.47-.55.9-.66,1.1-.09.16-.33.62-.49.91-.05.09-.1.13-.15.1-.04-.02-.04-.06,0-.15.06-.11.1-.2.12-.27.05-.16-.08-.29-.27-.43-.28-.21-.84-.53-1.49-.9l-2.91-1.67Z"/>
  </g>
  <g>
    <path class="cls-1" d="M391.93,249.46c1.11-.65,1.31-.77,1.53-.92.24-.16.32-.29.23-.56-.02-.07-.09-.19-.15-.3-.05-.08-.06-.13,0-.16.05-.03.1.01.16.12.23.39.48.86.57,1.01.15.25.49.79.63,1.01.27.46.51.97.48,1.52-.02.29-.22.79-.7,1.08-.54.32-1.17.38-2.2,0-.43,1.13-.78,2.01-.98,2.71-.18.66-.06.98-.01,1.11.03.09.06.16.1.22.03.06.03.1,0,.12-.06.03-.1,0-.15-.1l-.41-.69c-.24-.41-.31-.61-.32-.86-.02-.41.16-.89.48-1.63.23-.53.52-1.15.58-1.31.02-.06,0-.11-.03-.16l-.36-.64s-.05-.05-.09-.02l-.1.06c-.68.4-1.25.74-1.53.95-.2.15-.33.28-.23.52.05.12.13.29.18.37.03.06.03.1,0,.12-.05.03-.1,0-.16-.1-.25-.42-.54-.97-.61-1.08-.08-.14-.37-.58-.55-.87-.06-.09-.06-.16-.01-.19.04-.02.08,0,.13.08.06.11.13.19.18.24.11.13.3.07.52-.03.33-.14.9-.48,1.57-.88l1.28-.75ZM391.86,250.66c-.08.05-.1.08-.09.14.04.18.15.41.25.6.17.29.26.37.43.44.29.12.75.14,1.34-.21,1.03-.61.93-1.47.67-1.9-.11-.18-.19-.31-.26-.37-.04-.04-.08-.04-.14,0l-2.21,1.3Z"/>
    <path class="cls-1" d="M395.45,255.42c1.11-.65,1.31-.77,1.53-.92.24-.16.32-.29.23-.56-.02-.07-.09-.19-.15-.3-.05-.08-.06-.13,0-.16.05-.03.1.01.16.12.12.2.23.41.34.59.1.19.2.37.26.47.14.23.99,1.68,1.08,1.81.1.13.18.24.23.29.03.03.08.06.1.1.02.04,0,.06-.04.08-.05.03-.16.05-.51.22-.08.04-.41.21-.5.25-.04.01-.09.03-.12-.03-.03-.05,0-.09.06-.13.05-.03.17-.11.24-.2.1-.13.14-.25-.03-.64-.06-.13-.49-.9-.58-1.05-.02-.04-.05-.04-.1,0l-1.84,1.09c-.05.03-.08.05-.05.1.09.16.59,1,.7,1.15.12.17.2.26.32.28.09.02.14.02.16.06.02.03.02.06-.03.09s-.18.07-.57.26c-.15.08-.45.23-.5.26-.06.03-.14.08-.18.02-.03-.05,0-.08.03-.1.07-.05.16-.11.24-.18.12-.12.17-.29.04-.57-.07-.15-.48-.87-.59-1.05-.02-.04-.05-.03-.1,0l-.57.34c-.25.15-.92.53-1.13.67-.49.31-.53.49-.1,1.23.11.19.29.49.49.63.2.14.4.14.73,0,.09-.03.13-.04.16.02.03.06-.02.09-.1.14-.17.1-.7.33-.86.38-.22.06-.26,0-.42-.28-.32-.55-.54-.95-.72-1.27-.17-.32-.3-.55-.42-.77-.05-.08-.14-.24-.25-.41-.1-.17-.23-.35-.31-.49-.06-.09-.06-.16-.01-.19.04-.02.08,0,.13.08.06.11.13.19.18.24.11.13.3.07.52-.03.33-.14.9-.48,1.57-.88l1.28-.75Z"/>
    <path class="cls-1" d="M394.53,261.4c-.02-.15,0-.19.17-.28.4-.24.85-.46.97-.53.11-.06.21-.08.24-.02.04.07-.02.11-.08.15-.09.06-.23.17-.33.28-.44.48-.39,1.02-.12,1.47.39.65,1.02.71,1.4.49.36-.21.63-.52.74-1.4l.06-.49c.15-1.17.5-1.75,1.09-2.09.8-.47,1.77-.14,2.37.87.28.47.39.82.45,1.04.02.07.02.12-.03.15-.09.06-.32.15-.89.49-.16.09-.23.11-.27.05-.03-.05,0-.1.09-.15.07-.04.27-.21.37-.47.07-.19.17-.53-.11-1-.32-.54-.82-.68-1.26-.42-.33.2-.49.51-.59,1.39l-.03.29c-.14,1.27-.46,1.88-1.15,2.29-.42.25-1.02.38-1.67.06-.45-.23-.75-.59-.98-.98-.25-.42-.39-.78-.44-1.17Z"/>
    <path class="cls-1" d="M400.46,263.91c1.11-.65,1.31-.77,1.53-.92.24-.16.32-.29.23-.56-.02-.07-.09-.19-.15-.3-.05-.08-.06-.13,0-.16.05-.03.1.01.16.12.23.39.48.86.6,1.06.18.3.45.71.64,1.04.54.91.42,1.42.38,1.6-.06.25-.27.65-.65.87-1.03.61-2.21.28-2.81-.75-.02-.04-.07-.12-.08-.16-.01-.04-.04-.1.01-.13.06-.03.11,0,.2.16.24.41,1.03.7,1.77.27.24-.14.71-.45.84-1.07.09-.4-.05-.73-.15-.89-.06-.11-.14-.21-.2-.27-.04-.03-.09-.02-.17.02l-2.91,1.72c-.67.39-1.24.73-1.53.95-.19.14-.33.28-.23.52.05.11.13.28.19.39.05.08.05.13.01.15-.05.03-.11-.02-.15-.1-.28-.48-.53-.95-.64-1.14-.1-.17-.39-.61-.56-.9-.06-.09-.06-.16-.01-.19.04-.02.08,0,.13.08.06.11.13.19.18.24.11.13.3.07.52-.03.33-.14.9-.48,1.57-.88l1.28-.75Z"/>
    <path class="cls-1" d="M403.11,268.4c1.11-.65,1.31-.77,1.53-.92.24-.16.32-.29.23-.56-.02-.07-.09-.19-.15-.3-.05-.08-.06-.13,0-.16.05-.03.1.01.16.12.12.2.23.41.34.59.1.19.2.37.26.47.14.23.99,1.68,1.08,1.81.1.13.18.24.23.29.03.03.08.06.1.1.02.04,0,.06-.04.08-.05.03-.16.05-.51.22-.08.04-.41.21-.5.25-.04.01-.09.03-.12-.03s0-.09.06-.13c.05-.03.17-.11.24-.2.1-.13.14-.25-.03-.64-.06-.13-.49-.9-.58-1.05-.02-.04-.05-.04-.1,0l-1.84,1.09c-.05.03-.08.05-.05.1.09.16.59,1,.7,1.15.12.17.2.26.32.28.09.02.14.02.16.06.02.03.02.06-.03.09-.04.03-.18.07-.57.26-.15.08-.45.23-.5.26-.06.03-.14.08-.18.02-.03-.05,0-.08.03-.1.07-.05.16-.11.24-.18.12-.12.17-.29.04-.57-.07-.15-.48-.87-.59-1.05-.02-.04-.05-.03-.1,0l-.57.34c-.25.15-.92.53-1.13.67-.49.31-.53.49-.1,1.23.11.19.29.49.49.63.2.14.4.14.73,0,.09-.03.13-.04.16.02.03.06-.02.09-.1.14-.17.1-.7.33-.86.38-.22.06-.26,0-.42-.28-.32-.55-.54-.95-.72-1.27-.17-.32-.3-.55-.42-.77-.05-.08-.14-.24-.25-.41-.1-.17-.23-.35-.31-.49-.06-.09-.06-.16-.01-.19.04-.02.08,0,.13.08.06.11.13.19.18.24.11.13.3.07.52-.03.33-.14.9-.48,1.57-.88l1.28-.75Z"/>
    <path class="cls-1" d="M403.11,274.57c.2-1.08.91-1.75,1.61-2.17.49-.29,1.44-.65,2.49-.32.79.24,1.49.76,2.13,1.84.27.45.4.74.55,1.1.13.3.2.57.31.8.04.08.02.14-.02.16-.06.03-.16.06-.42.2-.25.13-.64.37-.8.44-.11.06-.18.08-.22.01-.03-.06.02-.11.12-.17.22-.14.42-.38.5-.68.11-.39-.02-1.07-.42-1.74-.37-.63-.78-.95-1.26-1.1-.8-.24-1.57.03-2.28.44-1.73,1.02-1.81,2.84-1.24,3.82.38.65.69,1,1.19,1.09.21.04.48.01.63-.04.13-.05.17-.05.2,0,.03.05-.01.1-.07.13-.09.05-.77.34-1.06.41-.15.04-.2.03-.32-.06-.29-.22-.67-.74-.94-1.21-.59-1-.86-1.96-.68-2.96Z"/>
    <path class="cls-1" d="M411.53,278.79l-.67-1.07c-.26-.41-.4-.57-.63-.58-.15,0-.26,0-.33.03s-.11.01-.13-.03c-.03-.05,0-.09.08-.13.12-.07.86-.32.93-.34.11-.03.16-.04.19,0,.03.06,0,.17.1.36.1.22.25.51.39.75l1.7,2.88c.14.23.25.38.33.48.09.1.14.15.15.17.03.05,0,.08-.12.15-.15.09-.67.36-.86.48-.08.04-.13.05-.15,0-.03-.06,0-.09.1-.17l.08-.05c.18-.13.27-.44-.1-1.1l-.52-.93-2.98,1.76c-.67.39-1.24.73-1.53.95-.19.14-.33.28-.23.52.05.11.13.28.19.39.05.08.05.13.01.15-.05.03-.11-.02-.15-.1-.28-.48-.53-.95-.65-1.15-.1-.17-.39-.61-.56-.9-.06-.09-.06-.16-.01-.19.04-.02.08,0,.13.08.06.11.13.19.18.24.11.13.3.08.52-.03.33-.14.9-.48,1.57-.88l2.98-1.76Z"/>
    <path class="cls-1" d="M412.36,284.08c1.11-.65,1.31-.77,1.53-.92.24-.16.32-.29.23-.56-.02-.07-.09-.19-.15-.3-.05-.08-.06-.13,0-.16s.1.01.16.12c.12.2.23.41.34.59.1.19.2.37.26.47.14.23.99,1.68,1.08,1.81.1.13.18.24.23.29.03.03.08.06.1.1.02.04,0,.06-.04.08-.05.03-.16.05-.51.22-.08.04-.41.21-.5.25-.04.01-.09.03-.12-.03-.03-.05,0-.09.06-.13.05-.03.17-.11.24-.2.1-.13.14-.25-.03-.64-.06-.13-.49-.9-.58-1.05-.02-.04-.05-.04-.1,0l-1.84,1.09c-.05.03-.08.05-.05.1.09.16.59,1,.7,1.15.12.17.2.26.32.28.09.02.14.02.16.06.02.03.02.06-.03.09s-.18.07-.57.26c-.15.08-.45.23-.5.26-.06.03-.14.08-.18.02-.03-.05,0-.08.03-.1.07-.05.16-.11.24-.18.12-.12.17-.29.04-.57-.07-.15-.48-.87-.59-1.05-.02-.04-.05-.03-.1,0l-.57.34c-.25.15-.92.53-1.13.67-.49.31-.53.49-.1,1.23.11.19.29.49.49.63.2.14.4.13.73,0,.09-.03.13-.04.16.02.03.06-.02.09-.1.14-.17.1-.7.33-.86.38-.22.06-.26,0-.42-.28-.32-.55-.54-.95-.72-1.27-.17-.32-.3-.55-.42-.77-.05-.08-.14-.24-.25-.41-.1-.17-.23-.35-.31-.49-.06-.09-.06-.16-.01-.19.04-.02.08,0,.13.08.06.11.13.19.18.24.11.13.3.07.52-.03.33-.14.9-.48,1.57-.88l1.28-.76Z"/>
    <path class="cls-1" d="M414.98,288.52c1.11-.65,1.31-.77,1.53-.92.24-.16.32-.29.23-.56-.02-.07-.09-.19-.15-.3-.05-.08-.06-.13,0-.16.05-.03.1.01.16.12.23.39.48.86.6,1.06.13.23.43.67.68,1.11.54.91,1.25,2.12.89,3.4-.16.59-.57,1.28-1.43,1.8-.92.54-1.84.57-2.5.4-.54-.13-1.5-.58-2.3-1.93-.15-.26-.31-.57-.45-.86-.14-.29-.27-.56-.38-.74-.05-.08-.14-.24-.25-.41-.1-.17-.23-.35-.31-.49-.06-.09-.06-.16-.01-.19.04-.02.08,0,.13.08.06.11.13.19.18.24.11.13.3.07.52-.03.33-.14.9-.48,1.57-.88l1.28-.75ZM414.71,289.9c-.77.45-1.33.79-1.46.88-.18.11-.46.3-.51.41-.08.18-.07.55.27,1.12.44.74.87,1.15,1.51,1.36.67.23,1.42-.02,2.17-.46.92-.55,1.29-1.28,1.41-1.77.25-1.05-.16-1.93-.49-2.49-.09-.15-.27-.4-.33-.44-.07-.05-.12-.05-.2,0-.25.14-.88.51-1.46.85l-.92.54Z"/>
    <path class="cls-1" d="M420.28,297.51c1.11-.65,1.31-.77,1.53-.92.24-.16.32-.29.23-.56-.02-.07-.09-.19-.15-.3-.05-.08-.06-.13,0-.16.05-.03.1.01.16.12.23.39.48.86.56,1,.21.36.4.63.55.87.78,1.32.21,1.97-.18,2.19-.6.35-1.15.22-1.71,0,.15.72.06,1.75-.79,2.25-.78.46-1.94.33-2.73-1.01-.05-.09-.16-.31-.28-.52-.11-.23-.24-.45-.3-.56-.05-.08-.14-.24-.25-.41-.1-.17-.23-.35-.31-.49-.06-.09-.06-.16-.01-.19.04-.02.08,0,.13.08.06.11.13.19.18.24.11.13.3.07.52-.03.33-.14.9-.48,1.57-.88l1.28-.75ZM420.67,298.46c-.06.03-.06.06-.05.1.02.07.08.19.18.35.14.24.27.38.45.44.26.1.59.05.95-.16.49-.29.96-.95.59-1.57-.06-.1-.1-.17-.16-.23-.04-.04-.08-.04-.16,0l-1.8,1.06ZM420.66,299.76c.02-.22-.03-.41-.18-.71-.07-.14-.11-.21-.18-.32-.02-.03-.04-.03-.08-.01l-1.72,1.02c-.48.28-.59.38-.55.67.04.24.13.42.23.58.19.33.69.78,1.45.33.45-.27.97-.78,1.03-1.56Z"/>
    <path class="cls-1" d="M422.17,304.15c.39-.23.51-.4.66-.62.09-.12,1.11-2.04,1.34-2.52.16-.34.24-.63.23-.81,0-.12-.03-.27-.09-.36-.03-.06-.05-.12,0-.15.04-.03.1.01.15.1.08.13.38.69.52.93.09.15.29.44.48.76.04.07.04.12,0,.15-.04.03-.08-.02-.17-.11-.05-.06-.13-.06-.19-.02-.06.03-.12.12-.2.23-.16.23-1.31,2.28-1.45,2.52.22-.03,2.36-.06,2.64-.09.2-.02.34-.07.44-.12.07-.04.14-.12.09-.26-.02-.07-.05-.15,0-.17.05-.03.09,0,.14.08.14.24.26.49.38.7.09.16.4.63.48.76.05.08.06.14.02.16-.05.03-.11-.02-.15-.1-.04-.07-.15-.19-.28-.27-.16-.11-.3-.14-.59-.18-.43-.07-2.74-.08-3.13-.02-.33.05-.55.18-.79.32l-.6.35c-.12.07-.42.25-.71.45-.2.14-.32.3-.22.53.05.11.13.28.19.38.05.08.05.13.01.15-.05.03-.11-.01-.16-.11-.27-.46-.52-.93-.63-1.13-.11-.18-.4-.63-.56-.9-.06-.1-.08-.17-.02-.2.04-.02.08,0,.13.08.06.1.13.18.18.24.11.13.31.1.53-.01.32-.16.62-.34.74-.41l.6-.35Z"/>
    <path class="cls-1" d="M426,310.7s-.04-.04-.1-.03l-1.23.2c-.22.03-.42.1-.51.15-.13.08-.19.2-.05.42l.06.11c.05.09.05.12,0,.14-.06.03-.1,0-.15-.08-.14-.23-.3-.56-.43-.78-.05-.08-.31-.47-.53-.84-.06-.09-.07-.15,0-.18.04-.03.08,0,.11.05.04.07.11.16.15.22.24.31.57.3,1.02.23l5.58-.83c.26-.04.37-.04.41.03.04.07,0,.15-.13.32-.3.41-2.52,3.29-3.35,4.41-.49.66-.47.93-.42,1.11.04.12.1.24.15.32.03.06.05.1,0,.13-.06.03-.11-.02-.27-.29-.15-.26-.47-.79-.8-1.38-.07-.14-.12-.22-.07-.25.04-.03.08,0,.13.06.04.04.14.05.21-.03l1.15-1.47s.03-.07,0-.1l-.96-1.62ZM427.24,311.97s.05.03.07.01l1.4-1.71s.06-.05.04-.07-.06-.02-.09,0l-2.18.38s-.05.03-.03.06l.79,1.34Z"/>
    <path class="cls-1" d="M429.82,316.59c-.93.55-1.43.85-1.47,1.08-.04.19.02.41.36.97.23.39.4.66.71.73.15.03.4,0,.55-.07.07-.03.12-.04.16.02.03.05,0,.08-.09.13-.08.05-.66.32-.9.38-.19.05-.24.04-.47-.34-.31-.52-.52-.91-.7-1.24-.18-.34-.33-.6-.5-.9-.05-.08-.14-.24-.25-.41-.1-.17-.23-.35-.31-.49-.06-.09-.06-.16-.01-.19.04-.02.08,0,.13.08.06.11.13.19.18.24.11.13.3.07.52-.03.33-.14.9-.48,1.57-.88l1.28-.75c1.11-.65,1.31-.77,1.53-.92.24-.16.32-.29.23-.56-.02-.07-.06-.16-.12-.25-.05-.08-.06-.13,0-.16.05-.03.1.01.16.12.2.34.45.81.57,1.01.1.17.44.69.61.98.06.1.08.16.02.19-.05.03-.09,0-.14-.09-.05-.08-.12-.19-.19-.27-.15-.17-.31-.16-.57-.02-.24.12-.44.24-1.55.9l-1.28.76Z"/>
    <path class="cls-1" d="M432.42,321c-.93.55-1.43.85-1.47,1.08-.04.19.02.41.36.97.23.39.4.66.71.73.15.03.4,0,.55-.07.07-.03.12-.04.16.02.03.05,0,.08-.09.13-.08.05-.66.32-.9.38-.19.05-.24.04-.47-.34-.31-.52-.52-.91-.7-1.24-.18-.34-.33-.6-.5-.9-.05-.08-.14-.24-.25-.41-.1-.17-.23-.35-.31-.49-.06-.09-.06-.16-.01-.19.04-.02.08,0,.13.08.06.11.13.19.18.24.11.13.3.07.52-.03.33-.14.9-.48,1.57-.88l1.28-.75c1.11-.65,1.31-.77,1.53-.92.24-.16.32-.29.23-.56-.02-.07-.06-.16-.12-.25-.05-.08-.06-.13,0-.16.05-.03.1.01.16.12.2.34.45.81.57,1.01.1.17.44.69.61.98.06.1.08.16.02.19-.05.03-.09,0-.14-.09-.05-.08-.12-.19-.19-.27-.15-.17-.31-.16-.57-.02-.24.12-.44.24-1.55.9l-1.28.76Z"/>
    <path class="cls-1" d="M439.23,325c.14-.05.23-.05.26.01.03.06.02.12-.11.33l-2.87,4.37,5.26-.44c.15-.01.23,0,.27.06.04.07,0,.15-.15.26l-4.06,3.29c-.42.34-.59.53-.52.79.06.25.14.4.19.49.04.07.06.12.02.15-.06.03-.13-.04-.19-.14-.11-.18-.69-1.19-.83-1.5-.08-.18-.09-.23-.04-.26.04-.02.08,0,.13.03.04.03.15,0,.33-.15l2.91-2.3-.02-.03-4.18.33c-.44.03-.53.04-.57-.03-.04-.07.06-.22.21-.47.23-.37,1-1.6,1.16-1.81.11-.16.71-1.1,1.11-1.67l-.02-.03-3.06,1.3c-.14.06-.24.11-.35.18-.14.08-.15.21-.1.36.05.15.1.25.14.33.03.06.05.12.01.14-.07.04-.12-.02-.18-.13-.18-.31-.35-.65-.43-.78-.08-.14-.31-.47-.45-.71-.04-.07-.06-.14,0-.18.04-.02.08.01.12.09.03.06.06.11.15.21.16.18.48.07.75-.04l5.11-2.04Z"/>
    <path class="cls-1" d="M441.61,333.65c1.11-.65,1.31-.77,1.53-.92.24-.16.32-.29.23-.56-.02-.07-.09-.19-.15-.3-.05-.08-.06-.13,0-.16.05-.03.1.01.16.12.12.2.23.41.34.59.1.19.2.37.26.47.14.23.99,1.68,1.08,1.81.1.13.18.24.23.29.03.03.08.06.1.1.02.04,0,.06-.04.08-.05.03-.16.05-.51.22-.08.04-.41.21-.5.25-.04.01-.09.03-.12-.03-.03-.05,0-.09.06-.13.05-.03.17-.11.24-.2.1-.13.14-.25-.03-.64-.06-.13-.49-.9-.58-1.05-.02-.04-.05-.04-.1,0l-1.84,1.09c-.05.03-.08.05-.05.1.09.16.59,1,.7,1.15.12.17.2.26.32.28.09.02.14.02.16.06.02.03.02.06-.03.09s-.18.07-.57.26c-.15.08-.45.23-.5.26-.06.03-.14.08-.18.02-.03-.05,0-.08.03-.1.07-.05.16-.11.24-.18.12-.12.17-.29.04-.57-.07-.15-.48-.87-.59-1.05-.02-.04-.05-.03-.1,0l-.57.34c-.25.15-.92.53-1.13.67-.49.31-.53.49-.1,1.23.11.19.29.49.49.63.2.14.4.14.73,0,.09-.03.13-.04.16.02.03.06-.02.09-.1.14-.17.1-.7.33-.86.38-.22.06-.26,0-.42-.28-.32-.55-.54-.95-.72-1.27-.17-.32-.3-.55-.42-.77-.05-.08-.14-.24-.25-.41-.1-.17-.23-.35-.31-.49-.06-.09-.06-.16-.01-.19.04-.02.08,0,.13.08.06.11.13.19.18.24.11.13.3.07.52-.03.33-.14.9-.48,1.57-.88l1.28-.75Z"/>
    <path class="cls-1" d="M442.13,340.02c-.56.35-.69.56-.66.73.03.15.1.29.17.41.05.08.06.13.01.16-.06.03-.11-.02-.17-.12-.28-.47-.43-.78-.51-.91-.04-.07-.26-.39-.49-.77-.06-.09-.09-.16-.02-.2.04-.03.08,0,.13.08.06.09.14.22.23.31.17.15.4.06,1.03-.31l4.32-2.46c.15-.09.26-.12.3-.05.05.08,0,.2-.07.4-.04.14-.55,1.93-.98,3.62-.2.79-.67,2.39-.71,2.58l.02.04,3.22-2c.44-.27.54-.42.51-.63-.02-.14-.12-.31-.18-.41-.05-.09-.05-.13,0-.15.06-.03.11.04.18.15.22.38.41.74.5.89.05.08.23.34.44.7.06.09.09.17.03.21-.04.03-.09,0-.14-.09-.04-.07-.08-.13-.15-.2-.18-.17-.37-.14-.78.1l-4.64,2.63c-.16.09-.24.1-.28.04-.05-.08-.02-.21.01-.34.17-.72.57-2.21.87-3.41.32-1.26.73-2.59.79-2.8v-.02s-3,1.87-3,1.87Z"/>
    <path class="cls-1" d="M448.28,348.46s-.04-.04-.1-.03l-1.23.2c-.22.03-.42.1-.51.15-.13.08-.19.2-.05.42l.06.11c.05.09.05.12,0,.14-.06.03-.1,0-.15-.08-.14-.23-.3-.56-.43-.78-.05-.08-.31-.47-.53-.85-.06-.09-.07-.15,0-.18.04-.03.08,0,.11.05.04.07.11.16.15.22.24.31.57.3,1.02.23l5.58-.84c.26-.04.37-.04.41.03.04.07,0,.15-.13.32-.3.41-2.52,3.29-3.35,4.41-.49.66-.47.93-.42,1.11.04.12.1.24.15.32.03.06.05.1,0,.13-.06.03-.11-.02-.27-.29-.15-.26-.47-.79-.8-1.38-.07-.14-.12-.22-.07-.25.04-.03.08,0,.13.06.04.04.14.05.21-.03l1.15-1.47s.03-.07,0-.1l-.96-1.62ZM449.52,349.73s.05.03.07.01l1.4-1.71s.06-.05.04-.07c-.01-.02-.06-.02-.09,0l-2.18.38s-.05.03-.03.06l.79,1.34Z"/>
    <path class="cls-1" d="M450.75,354.62c-.56.35-.69.55-.66.73.03.15.1.29.17.41.05.08.06.13.01.16-.06.03-.11-.02-.17-.12-.28-.47-.43-.78-.51-.91-.04-.07-.26-.39-.49-.77-.06-.09-.09-.16-.02-.2.04-.03.08,0,.13.08.06.09.14.22.23.31.17.15.4.06,1.03-.31l4.32-2.46c.15-.09.26-.12.3-.05.05.08,0,.2-.07.4-.04.14-.55,1.93-.98,3.62-.2.79-.67,2.39-.71,2.58l.02.04,3.22-2c.44-.27.54-.42.51-.63-.02-.14-.12-.31-.18-.41-.05-.09-.05-.13,0-.15.06-.03.11.04.18.15.22.38.41.74.5.89.05.08.23.34.44.7.06.09.09.17.03.21-.04.03-.09,0-.14-.09-.04-.07-.08-.13-.15-.2-.18-.17-.37-.14-.78.1l-4.64,2.63c-.16.09-.24.1-.28.04-.05-.08-.02-.21.01-.34.17-.72.57-2.21.87-3.41.32-1.26.73-2.59.79-2.8v-.02s-3,1.87-3,1.87Z"/>
    <path class="cls-1" d="M456.95,359.64c1.11-.65,1.31-.77,1.53-.92.24-.16.32-.29.23-.56-.02-.07-.09-.19-.15-.3-.05-.08-.06-.13,0-.16s.1.01.16.12c.23.39.48.86.6,1.06.13.23.43.67.68,1.11.54.91,1.25,2.12.89,3.4-.16.59-.57,1.28-1.43,1.8-.92.54-1.84.57-2.5.4-.54-.13-1.5-.58-2.3-1.93-.15-.26-.31-.57-.45-.86-.14-.29-.27-.56-.38-.74-.05-.08-.14-.24-.25-.41-.1-.17-.23-.35-.31-.49-.06-.09-.06-.16-.01-.19.04-.02.08,0,.13.08.06.11.13.19.18.24.11.13.3.07.52-.03.33-.14.9-.48,1.57-.88l1.28-.75ZM456.68,361.03c-.77.45-1.33.79-1.46.88-.18.11-.46.3-.51.41-.08.18-.07.55.27,1.12.44.74.87,1.15,1.51,1.36.67.23,1.42-.02,2.17-.46.92-.55,1.29-1.28,1.41-1.77.25-1.05-.16-1.93-.49-2.49-.09-.15-.27-.4-.33-.44-.07-.05-.12-.05-.2,0-.25.14-.88.51-1.46.85l-.92.54Z"/>
    <path class="cls-1" d="M462.25,368.64c1.11-.65,1.31-.77,1.53-.92.24-.16.32-.31.26-.49-.03-.09-.07-.19-.13-.28-.04-.07-.05-.12,0-.16.04-.03.09.02.16.14.16.28.41.75.54.96.11.18.38.6.55.87.06.09.08.16.03.19-.06.03-.1,0-.14-.07-.04-.07-.08-.13-.15-.21-.15-.17-.31-.16-.57-.02-.24.12-.44.24-1.55.9l-1.28.75c-.71.42-1.28.76-1.58.97-.18.14-.28.27-.18.5.05.11.13.28.19.39.05.08.05.13.01.15-.05.03-.11-.01-.15-.1-.28-.48-.53-.95-.65-1.15-.1-.17-.39-.61-.56-.9-.06-.09-.06-.16-.01-.19.04-.02.08,0,.13.08.06.11.13.19.18.24.11.13.26.1.49,0,.33-.14.9-.48,1.61-.9l1.28-.75Z"/>
    <path class="cls-1" d="M462.05,373.77c-.56.35-.69.55-.66.73.03.15.1.29.17.41.05.08.06.13.01.16-.06.03-.11-.02-.17-.12-.28-.47-.43-.78-.51-.91-.04-.07-.26-.39-.49-.77-.06-.09-.09-.16-.02-.2.04-.03.08,0,.13.08.06.09.14.22.23.31.17.15.4.06,1.03-.31l4.32-2.46c.15-.09.26-.12.3-.05.05.08,0,.2-.07.4-.04.14-.55,1.93-.98,3.62-.2.79-.67,2.39-.71,2.58l.02.04,3.22-2c.44-.27.54-.42.51-.63-.02-.14-.12-.31-.18-.41-.05-.09-.05-.13,0-.15.06-.03.11.04.18.15.22.38.41.74.5.89.05.08.23.34.44.7.06.09.09.17.03.21-.04.03-.09,0-.14-.09-.04-.07-.08-.13-.15-.2-.18-.17-.37-.14-.78.1l-4.64,2.63c-.16.09-.24.1-.28.04-.05-.08-.02-.21.01-.34.17-.72.57-2.21.87-3.41.32-1.26.73-2.59.79-2.8v-.02s-3,1.87-3,1.87Z"/>
    <path class="cls-1" d="M468.2,382.22s-.04-.04-.1-.03l-1.23.2c-.22.03-.42.1-.51.15-.13.08-.19.2-.05.42l.06.11c.05.09.05.12,0,.14-.06.03-.1,0-.15-.08-.14-.23-.3-.56-.43-.78-.05-.08-.31-.47-.53-.84-.06-.09-.07-.15,0-.18.04-.03.08,0,.11.05.04.07.11.16.15.22.24.31.57.3,1.02.23l5.58-.83c.26-.04.37-.04.41.03.04.07,0,.15-.13.32-.3.41-2.52,3.29-3.35,4.41-.49.66-.47.93-.42,1.11.04.12.1.24.15.32.03.06.05.1,0,.13-.06.03-.11-.02-.27-.29-.15-.26-.47-.79-.8-1.38-.07-.14-.12-.22-.07-.25.04-.03.08,0,.13.06.04.04.14.05.21-.03l1.15-1.47s.03-.07,0-.1l-.96-1.62ZM469.44,383.48s.05.03.07.01l1.4-1.71s.06-.05.04-.07c-.01-.02-.06-.02-.09,0l-2.18.38s-.05.03-.03.06l.79,1.34Z"/>
    <path class="cls-1" d="M472.02,388.1c-.93.55-1.43.85-1.47,1.08-.04.19.02.41.36.97.23.39.4.66.71.73.15.03.4,0,.55-.07.07-.03.12-.04.16.02.03.05,0,.08-.09.13-.08.05-.66.32-.9.38-.19.05-.24.04-.47-.34-.31-.52-.52-.91-.7-1.24-.18-.34-.33-.6-.5-.9-.05-.08-.14-.24-.25-.41-.1-.17-.23-.35-.31-.49-.06-.09-.06-.16-.01-.19.04-.02.08,0,.13.08.06.11.13.19.18.24.11.13.3.07.52-.03.33-.14.9-.48,1.57-.88l1.28-.75c1.11-.65,1.31-.77,1.53-.92.24-.16.32-.29.23-.56-.02-.07-.06-.16-.12-.25-.05-.08-.06-.13,0-.16s.1.01.16.12c.2.34.45.81.57,1.01.1.17.44.69.61.98.06.1.08.16.02.19s-.09,0-.14-.09c-.05-.08-.12-.19-.19-.27-.15-.17-.31-.16-.57-.02-.24.12-.44.24-1.55.9l-1.28.75Z"/>
    <path class="cls-1" d="M474.62,392.52c-.93.55-1.43.85-1.47,1.08-.04.19.02.41.36.97.23.39.4.66.71.73.15.03.4,0,.55-.07.07-.03.12-.04.16.02.03.05,0,.08-.09.13-.08.05-.66.32-.9.38-.19.05-.24.04-.47-.34-.31-.52-.52-.91-.7-1.24-.18-.34-.33-.6-.5-.9-.05-.08-.14-.24-.25-.41-.1-.17-.23-.35-.31-.49-.06-.09-.06-.16-.01-.19.04-.02.08,0,.13.08.06.11.13.19.18.24.11.13.3.07.52-.03.33-.14.9-.48,1.57-.88l1.28-.75c1.11-.65,1.31-.77,1.53-.92.24-.16.32-.29.23-.56-.02-.07-.06-.16-.12-.25-.05-.08-.06-.13,0-.16.05-.03.1.01.16.12.2.34.45.81.57,1.01.1.17.44.69.61.98.06.1.08.16.02.19-.05.03-.09,0-.14-.09-.05-.08-.12-.19-.19-.27-.15-.17-.31-.16-.57-.02-.24.12-.44.24-1.55.9l-1.28.75Z"/>
    <path class="cls-1" d="M481.52,397.4l-.67-1.07c-.26-.41-.4-.57-.63-.58-.15,0-.26,0-.33.03-.07.02-.11.01-.13-.03-.03-.05,0-.09.08-.13.12-.07.86-.32.93-.34.11-.03.16-.04.19,0,.03.06,0,.17.1.36.1.22.25.51.39.75l1.7,2.88c.14.23.25.38.33.48.09.1.14.15.15.17.03.05,0,.08-.12.15-.15.09-.67.36-.86.48-.08.04-.13.05-.15,0-.03-.06,0-.09.1-.17l.08-.05c.18-.13.27-.44-.1-1.1l-.52-.93-2.98,1.76c-.67.39-1.24.73-1.53.95-.19.14-.33.28-.23.52.05.11.13.28.19.39.05.08.05.13.01.15-.05.03-.11-.02-.15-.1-.28-.48-.53-.95-.65-1.15-.1-.17-.39-.61-.56-.9-.06-.09-.06-.16-.01-.19.04-.02.08,0,.13.08.06.11.13.19.18.24.11.13.3.08.52-.03.33-.14.9-.48,1.57-.88l2.98-1.76Z"/>
    <path class="cls-1" d="M482.32,402.65c1.11-.65,1.31-.77,1.53-.92.24-.16.32-.31.26-.49-.03-.09-.07-.19-.13-.28-.04-.07-.05-.12,0-.16.04-.03.09.02.16.14.16.28.41.75.54.96.11.18.38.6.55.87.06.09.08.16.03.19-.06.03-.1,0-.14-.07-.04-.07-.08-.13-.15-.21-.15-.17-.31-.16-.57-.02-.24.12-.44.24-1.55.9l-1.28.76c-.71.42-1.28.76-1.58.97-.18.14-.28.27-.18.5.05.11.13.28.19.39.05.08.05.13.01.15-.05.03-.11-.02-.15-.1-.28-.48-.53-.95-.65-1.15-.1-.17-.39-.61-.56-.9-.06-.09-.06-.16-.01-.19.04-.02.08,0,.13.08.06.11.13.19.18.24.11.13.26.1.49,0,.33-.14.9-.48,1.61-.9l1.28-.75Z"/>
    <path class="cls-1" d="M486.53,405.15c.14-.05.23-.05.26.01.03.06.02.12-.11.33l-2.87,4.37,5.26-.44c.15-.01.23,0,.27.06.04.07,0,.15-.15.26l-4.06,3.29c-.42.34-.59.53-.52.79.06.25.14.4.19.49.04.07.06.12.02.15-.06.03-.13-.04-.19-.14-.11-.18-.69-1.19-.83-1.5-.08-.18-.09-.23-.04-.26.04-.02.08,0,.13.03.04.03.15,0,.33-.15l2.91-2.3-.02-.03-4.18.33c-.44.03-.53.04-.57-.03-.04-.07.06-.22.21-.47.23-.37,1-1.6,1.16-1.81.11-.16.71-1.1,1.11-1.67l-.02-.03-3.06,1.3c-.14.06-.24.11-.35.18-.14.08-.15.21-.1.36.05.15.1.25.14.33.03.06.05.12.01.14-.07.04-.12-.02-.18-.13-.18-.31-.35-.65-.43-.78-.08-.14-.31-.47-.45-.71-.04-.07-.06-.14,0-.18.04-.02.08.01.12.09.03.06.06.11.15.21.16.18.48.07.75-.04l5.11-2.04Z"/>
    <path class="cls-1" d="M488.91,413.8c1.11-.65,1.31-.77,1.53-.92.24-.16.32-.29.23-.56-.02-.07-.09-.19-.15-.3-.05-.08-.06-.13,0-.16.05-.03.1.01.16.12.12.2.23.41.34.59.1.19.2.37.26.47.14.23.99,1.68,1.08,1.81.1.13.18.24.23.29.03.03.08.06.1.1.02.04,0,.06-.04.08-.05.03-.16.05-.51.22-.08.04-.41.21-.5.25-.04.01-.09.03-.12-.03-.03-.05,0-.09.06-.13.05-.03.17-.11.24-.2.1-.13.14-.25-.03-.64-.06-.13-.49-.9-.58-1.05-.02-.04-.05-.04-.1,0l-1.84,1.09c-.05.03-.08.05-.05.1.09.16.59,1,.7,1.15.12.17.2.26.32.28.09.02.14.02.16.06.02.03.02.06-.03.09-.04.03-.18.07-.57.26-.15.08-.45.23-.5.26-.06.03-.14.08-.18.02-.03-.05,0-.08.03-.1.07-.05.16-.11.24-.18.12-.12.17-.29.04-.57-.07-.15-.48-.87-.59-1.05-.02-.04-.05-.03-.1,0l-.57.34c-.25.15-.92.53-1.13.67-.49.31-.53.49-.1,1.23.11.19.29.49.49.63.2.14.4.14.73,0,.09-.03.13-.04.16.02.03.06-.02.09-.1.14-.17.1-.7.33-.86.38-.22.06-.26,0-.42-.28-.32-.55-.54-.95-.72-1.27-.17-.32-.3-.55-.42-.77-.05-.08-.14-.24-.25-.41-.1-.17-.23-.35-.31-.49-.06-.09-.06-.16-.01-.19.04-.02.08,0,.13.08.06.11.13.19.18.24.11.13.3.07.52-.03.33-.14.9-.48,1.57-.88l1.28-.75Z"/>
    <path class="cls-1" d="M487.98,419.78c-.02-.15,0-.19.17-.28.4-.24.85-.46.97-.53.11-.06.21-.08.24-.02.04.07-.02.11-.08.15-.09.06-.23.17-.33.28-.44.48-.39,1.02-.12,1.47.39.65,1.02.71,1.4.49.36-.21.63-.52.74-1.4l.06-.49c.15-1.17.5-1.75,1.09-2.09.8-.47,1.77-.14,2.37.87.28.47.39.82.45,1.04.02.07.02.12-.03.15-.09.06-.32.15-.89.49-.16.09-.23.11-.27.05-.03-.05,0-.1.09-.15.07-.04.27-.21.37-.47.07-.19.17-.53-.11-1-.32-.54-.82-.68-1.26-.42-.33.2-.49.51-.59,1.39l-.03.29c-.14,1.27-.46,1.88-1.15,2.29-.42.25-1.02.38-1.67.06-.45-.23-.75-.59-.98-.98-.25-.42-.39-.78-.44-1.17Z"/>
  </g>
</svg>