<?xml version="1.0" encoding="UTF-8"?>
<svg id="_图层_1" data-name="图层 1" xmlns="http://www.w3.org/2000/svg" xmlns:xlink="http://www.w3.org/1999/xlink" viewBox="0 0 90.07 29.78">
  <defs>
    <style>
      .cls-1 {
        fill: #fff;
      }

      .cls-2 {
        fill: none;
      }

      .cls-3 {
        clip-path: url(#clippath-1);
      }

      .cls-4 {
        font-family: Frutiger-Cn, 'Frutiger 57 Condensed';
        font-size: 8px;
      }

      .cls-5 {
        fill: #040000;
      }

      .cls-6 {
        clip-path: url(#clippath);
      }
    </style>
    <clipPath id="clippath">
      <rect class="cls-2" y="0" width="34.71" height="29.78"/>
    </clipPath>
    <clipPath id="clippath-1">
      <rect class="cls-2" y="0" width="34.71" height="29.78"/>
    </clipPath>
  </defs>
  <text class="cls-4" transform="translate(30.3 7.8)"><tspan x="0" y="0">History and Culture</tspan><tspan x="0" y="9.6">Administration of</tspan><tspan x="0" y="19.2">Rhodes Island</tspan></text>
  <g class="cls-6">
    <g class="cls-3">
      <path class="cls-5" d="M17.19,26.59c-3.12,0-6.06-1.22-8.27-3.42-2.21-2.21-3.42-5.14-3.42-8.27s1.22-6.06,3.42-8.27c2.21-2.21,5.14-3.42,8.27-3.42s6.06,1.22,8.27,3.42c2.21,2.21,3.42,5.14,3.42,8.27s-1.22,6.06-3.42,8.27c-2.21,2.21-5.14,3.42-8.27,3.42"/>
      <path class="cls-1" d="M17.19,3.23c1.58,0,3.1.31,4.54.92,1.39.59,2.64,1.43,3.71,2.5,1.07,1.07,1.91,2.32,2.5,3.71.61,1.44.92,2.97.92,4.54s-.31,3.1-.92,4.54c-.59,1.39-1.43,2.64-2.5,3.71-1.07,1.07-2.32,1.91-3.71,2.5-1.44.61-2.97.92-4.54.92s-3.1-.31-4.54-.92c-1.39-.59-2.64-1.43-3.71-2.5-1.07-1.07-1.91-2.32-2.5-3.71-.61-1.44-.92-2.97-.92-4.54s.31-3.1.92-4.54c.59-1.39,1.43-2.64,2.5-3.71,1.07-1.07,2.32-1.91,3.71-2.5,1.44-.61,2.97-.92,4.54-.92M17.19,3.19c-6.47,0-11.71,5.24-11.71,11.71s5.24,11.71,11.71,11.71,11.71-5.24,11.71-11.71S23.66,3.19,17.19,3.19"/>
      <polygon class="cls-1" points="8.46 21.14 17.38 5.67 26.31 21.14 8.46 21.14"/>
      <path class="cls-1" d="M17.38,5.71l8.89,15.4H8.49l8.89-15.4ZM17.38,5.64l-8.96,15.52h17.92l-8.96-15.52Z"/>
      <path class="cls-5" d="M20.33,19.02c-.36-.38-.9-.64-1.06-1.11-.08-.08-.08-.18-.05-.26,0-.06,0-.13.01-.2.01-.09.06-.14.11-.17-.02-.16-.01-.33-.03-.49-.02-.18-.07-.36-.11-.54,0,0,0,0,0-.01-.05-.03-.09-.08-.11-.15-.16-.56-.26-1.13-.4-1.69-.03-.02-.06-.05-.08-.09-.14-.23-.18-.63.03-.83.04-.04.08-.06.12-.08.02-.07.08-.14.18-.16.07-.02.19-.02.3-.03,0-.07,0-.14.04-.2-.04-.16-.08-.33-.11-.49-.03-.04-.04-.09-.04-.14,0-.02,0-.03,0-.05-.06-.35-.11-.69-.12-1.04,0,0,0,0-.01,0-.47,0-.94.04-1.42.05-.45,0-.9,0-1.35.04-.16.01-.33.03-.49.02-.02.22-.07.44-.12.66-.05.24-.09.47-.17.7,0,.04,0,.09,0,.13,0,.06,0,.14.02.21.03.02.05.05.06.08,0,0,.01,0,.02,0,0,0,.03,0,.04.02,0,0,0,0,0,0,.01,0,.04.03.06.04,0,0,0,0,0,0,0,0,.01.01.02.02.03,0,.05,0,.07.01.14.02.21.12.22.24.01,0,.03-.01.04-.04.02-.05.07-.09.11-.12.02-.02.05-.02.08-.03-.03,0-.06-.01-.09-.01-.06,0-.12,0-.18,0-.01,0-.02,0-.03-.01.01,0,.03-.03.04-.02.11.03.22-.07.33,0,0,0,.01,0,.02,0,.01-.02.02-.05.03-.07.02.02.04.05.07.06.02,0,.04,0,.07,0,0-.08.09-.05.1-.07.05-.07.09.03.15,0,.06-.04.16-.03.25-.02.08,0,.17-.1.24.03,0,0,.02,0,.03,0,.02-.02.04-.04.06-.06.01.02.02.05.04.07.01,0,.06-.01.06-.02,0-.04.03-.07.06-.05.05.05.09.04.13,0,0,0,.03.01.05.02,0,.02-.01.05-.03.06-.07.05-.15.03-.23.04-.19.02-.39,0-.58.04-.16.02-.32.1-.49.05,0,0-.02.01-.03.02.01,0,.02.01.03.02.01,0,.02,0,.04.01,0,0-.02.02-.03.03q-.1.03-.21.15s-.02,0-.04.01c-.04.02-.06.05-.07.09.02.03.03.06.04.1.06.3-.03.6-.13.89,0,.03-.02.06-.03.09,0,0,0,.01,0,.02,0,.27-.07.53-.15.79-.02.06-.03.12-.05.18.01.03.02.06.02.1.02.33-.02.69-.15.99-.06.14-.14.24-.24.35-.08.09-.18.16-.18.28,0,.14-.09.22-.19.25,0,.02-.02.03-.03.04,0,0,0,0,0,0-.04.22-.22.35-.4.46,0,.03-.01.06-.03.08-.03.06-.07.11-.12.16,0,.03-.02.06-.04.09-.11.15-.28.25-.46.33-.14.16-.32.24-.52.25,0,.03,0,.06-.02.09,1.35,0,2.71,0,4.06,0,1.02,0,2.05,0,3.07,0,0-.03.02-.05.02-.07-.05,0-.1-.03-.14-.08M19.18,13.02s.03,0,.04.01c-.01.03-.02.04-.02.05,0-.01-.02-.02-.03-.03,0,0,0-.03.01-.03M19.02,13.02s.02.01.04.02c-.02,0-.04.01-.06.02,0,0-.02-.01-.03-.02.02,0,.03-.02.05-.02M18.84,13.01s.03.02.04.02c-.01,0-.02.02-.03.02-.02,0-.03-.01-.05-.02.01,0,.02-.01.04-.02M18.66,13.02s.04,0,.05,0c0,0,0,.02,0,.03-.02,0-.04,0-.06,0,0,0,0-.02,0-.02M15.66,13.05s0,0-.01-.01c0,0,.02,0,.03-.01,0,0,0,0,.01.01,0,0-.02.01-.03.01M17.17,11.54s.02.02.03.02c-.01,0-.02,0-.05.02,0,0,0-.02-.01-.03.01,0,.02-.01.03-.01M16.65,11.54c.05-.01.12.03.17-.03.05.04.1.04.15,0,0,0,.05.03.08.04-.26.02-.4.02-.48.03.03-.01.06-.03.09-.03M16.07,11.58s0,0,.01.01c0,0,0,.02-.01.03,0,0-.01,0-.01-.01,0,0,0-.02.01-.03M16.06,12.94s.02,0,.03.01c0,0,0,0-.01.01,0,0-.02,0-.03-.01,0,0,0-.01.01-.01M15.91,12.94h.01s0,.03-.01.04c0,0-.01,0-.01-.01,0,0,0-.02.01-.03M16.03,13.14s-.04,0-.09,0c.07,0,.12,0,.16,0-.02,0-.05.01-.07,0M16.11,13.12c-.19,0-.23,0-.26,0,.04-.01.08-.02.11-.04.04-.03.06,0,.1,0,.04.01.09-.06.15,0-.03.01-.06.03-.1.05M16.22,13.12s0,0,0,0l.02-.02s.01.02.02.02c0,0-.02,0-.03,0M16.22,12.97s0,0-.01-.01c0,0,.02-.01.03-.01,0,0,0,0,.01.01,0,0-.02,0-.03.01M16.22,11.75s0,0,.01-.01c0,0,0,.02.01.03h-.01s-.01,0-.01-.01M16.43,12.97s-.03,0-.05-.01c0,0,0-.02.02-.03.02,0,.04,0,.06,0,0,.01-.02.03-.02.03M16.45,11.58s-.04,0-.04,0c0,0,.02,0,.03,0,0,0,.01.01.02.02,0,0-.02.02-.03.02-.05,0-.1,0-.16,0-.02,0-.03-.01-.05-.02.02,0,.04-.02.06-.02.02,0,.04,0,.06,0,.13-.01.15-.03.17-.04,0,.01.02.02.03.04-.05,0-.07,0-.08,0M16.59,12.98s-.01-.02-.01-.03c0,0,0,0,.01-.01,0,0,0,.02.01.03,0,0,0,0-.01.01M16.56,11.62s-.02-.01-.03-.02c0,0,.01-.02.02-.02,0,0,0,0,0,0,.48-.02.48,0,.48,0-.06,0-.12,0-.18,0-.05,0-.12.05-.14.03-.06-.05-.1.03-.15,0M16.83,13.06s0-.02-.01-.03c0,0,0,0,.01-.01,0,0,.01.02.01.03,0,0,0,0-.01.01M17.03,13.05s-.03,0-.05-.01c0,0,0-.02.02-.03.02,0,.04,0,.06,0,0,.01-.01.03-.02.03M17.15,13.05s-.01-.02-.02-.03c.02,0,.03-.01.05-.01,0,0,.01.02.02.03-.02,0-.04,0-.06,0M17.25,12.97c-.09,0-.19,0-.28,0-.03,0-.05,0-.08,0-.07-.01-.14.03-.2-.02.07-.02.14-.04.22-.05.02,0,.03.03.07.01.07-.02.16.06.24-.02,0,0,.02.01.03.02.01.01.02.03.03.04-.01,0-.02.01-.03.02M18.75,16.65s0,0,.01.01c0,0,0,.02-.01.03,0,0-.01,0-.01-.01,0,0,0-.02.01-.03M18.59,16.65s.01.02.01.03c0,0,0,0-.01.01,0,0-.01-.02-.01-.03,0,0,0,0,.01-.01M18.59,11.58s0,.02.01.03c0,0,0,0-.01.01,0,0-.01-.02-.01-.03,0,0,0,0,.01-.01M18.51,13.02s0,0,.01.01c0,0-.02.01-.03.01,0,0,0,0-.01-.01,0,0,.02-.01.03-.01M18.1,11.42s.02,0,.03.01c0,0,0,0-.01.01,0,0-.02,0-.03-.01,0,0,0-.01.01-.01M17.85,11.52s.06.03.08.04c0,.02,0,.03,0,.03,0,0-.02.02-.03.01-.03-.01-.06-.02-.08-.04-.01,0-.01-.03-.01-.05.01,0,.03,0,.04,0M17.75,11.42s.01,0,.01.01c0,0,0,.02-.01.03h-.01s0-.03.01-.04M17.74,11.58s.01.02.02.02c-.01,0-.02,0-.03-.01h.01ZM17.68,11.5l.05.07h-.02s-.05-.03-.05-.04c0,0,.02-.02.03-.03M17.59,11.42h.01s-.02.02-.03.03c0,0,0,0-.01-.01,0,0,.02,0,.03-.01M17.5,11.5s.02,0,.03.02c0,.02,0,.04,0,.06-.01,0-.03-.01-.03-.02,0-.02,0-.03.01-.05M17.31,13.06s0-.02-.01-.03c.01,0,.02-.01.03-.01.01,0,.02.02.03.02-.01,0-.02,0-.05.02M17.59,16.49s0,.02.01.03h-.01s-.01,0-.01-.01c0,0,0,0,.01-.01M16.99,15.58s0,0,.01.01c0,0-.02.01-.03.01,0,0,0,0-.01-.01,0,0,.02,0,.03-.01M17,15.92s0,0-.01.01c0,0-.01-.02-.01-.03,0,0,0,0,.01-.01,0,0,0,.02.01.03M16.75,13.46s0,0,.01.01c0,0-.02.01-.03.01,0,0,0,0-.01-.01,0,0,.02,0,.03-.01M16.76,13.64s0,0-.01.01c0,0-.01-.02-.01-.03,0,0,0,0,.01-.01,0,0,.01.02.01.03M16.52,13.38s.04,0,.06,0c.04,0,.06-.08.11-.02,0,0,0,.01,0,.02-.01.08-.07.02-.11.04-.02,0-.04,0-.06,0-.01,0-.02-.01-.03-.02,0,0,.02-.02.03-.02M16.68,13.55s-.02.02-.03.03c0,0-.02,0-.03-.01,0-.01.01-.03.01-.03.03.01.04.02.05.02M16.59,13.62s0,0,.01.01c0,0-.02.01-.03.01,0,0,0,0-.01-.01,0,0,.02-.01.03-.01M16.55,13.5s0-.02-.01-.03c.01,0,.02-.01.03-.01.01,0,.02.02.03.03-.01,0-.02,0-.05.02M16.43,13.46s.07.06.1.1c-.06-.05-.1-.07-.12-.09,0,0,0,0,0,0,0,0,.02,0,.02,0M16.52,13.57s-.03.01-.03,0c-.03-.02-.05-.05-.07-.08,0,0,0-.02,0-.03.11.09.11.1.11.1M16.4,13.42s0,.02.01.03h-.01s-.02-.02-.03-.02c0,0,.02,0,.02,0M16.31,13.54s0,0,.01.01c0,0-.02.01-.03.01,0,0,0,0-.01-.01,0,0,.02,0,.03-.01M16.23,16.49s0,.02.01.03h-.01s-.01,0-.01-.01c0,0,0,0,.01-.01M16.15,13.54s.01.02.01.03c0,0,0,0-.01.01,0,0,0-.02-.01-.03,0,0,0,0,.01-.01M15.47,17.09s0,.02.01.03c0,0,0,0-.01.01,0,0-.01-.02-.01-.03,0,0,0,0,.01-.01M15.44,17.19s.03.03.04.04c.01,0,.03,0,.04.01-.02-.11.16-.02.14-.14.07.04.13-.03.2-.01.06.01.16-.01.23-.02.07-.01.14-.1.22-.02,0,0,.04-.02.06-.03.03-.02.14.03.1-.07-.03-.07-.07.02-.11.02,0,0-.01,0-.02,0-.13-.08-.26.03-.38,0,0,0-.01,0-.02,0,0,0,.01,0,.02.01-.02,0-.04.02-.06.03,0-.01.02-.02.03-.03-.05.02-.07.01-.08,0,.03,0,.05-.02.08-.02,0,0,0,0,.01,0,.06-.06.11-.08.12-.15.01-.09.09-.17.18-.22.05-.03.07-.05.1-.1.02-.05.04-.06-.03-.06,0-.01,0-.03,0-.04.03-.04.06-.08.08-.13,0-.02.02-.05.01-.05-.1-.06,0-.11.01-.17,0-.04.05-.08.1-.02.06-.04.14.03.18,0,.06-.05.12-.02.18-.04.05-.02.11.02.09.06-.04.08-.07.16-.08.25-.08.01-.06.05-.04.11.01.04-.02.01-.04,0-.07-.02-.09-.1-.15-.13-.01,0-.02-.02-.03-.04,0,.02-.01.04-.01.05,0,.02,0,.04,0,.06l.08.08c-.07.01-.09-.01-.08-.08-.08.06-.08.06-.03.11.01.01.02.03.03.05,0,0,0,0,0,0,0,0,0,0,0,0,.02,0,.05.02.07.03-.03,0-.05-.01-.07-.02.06.05.06.06.05.07-.02-.02-.04-.04-.07-.06,0,0,0,0,0,0-.05-.01-.06-.01-.07,0-.02.07-.04.09-.1.02-.04-.05-.06.02-.08.04-.05.03-.05.05.02.06.07,0,.15.02.14.13,0,0,.03.03.04.03.05,0,.11,0,.16,0,.1,0,.15.06.1.15-.02.05-.04.08,0,.12.02.03.01.04,0,.06-.02.04-.04.09-.05.14,0,.04,0,.1,0,.11-.03.02-.09.02-.13.02-.26,0-.52,0-.78,0-.07,0-.1.02-.09.09,0,0-.01.02-.02.03-.06-.07-.12-.01-.19,0-.03,0-.08-.07-.12-.11.02,0,.05,0,.07-.01,0-.02,0-.05-.02-.07-.03-.04-.07-.08-.11-.11,0,0,0-.03,0-.04.02,0,.04,0,.05,0M16.93,16.69s-.04,0-.06,0c0,0-.01-.02-.02-.03.02,0,.03-.01.05-.01,0,0,.01.02.02.03M16.85,16.59s-.02.01-.03.01c0,0,0,0-.01-.01,0,0,.02,0,.03-.01h.01ZM16.74,16.5s0,0,0,0c0,.01.02.03.02.04-.01-.01-.02-.02-.03-.03M16.75,16.57s-.02-.04-.02-.06c0,0,0,0,0,0,.03.05.02.06.02.07M16.6,16.68s0,0-.01.01c0,0-.01-.02-.01-.03,0,0,0,0,.01-.01,0,0,.01.02.01.03M16.57,17.51s0,.01-.01.01c0,0-.02,0-.03-.01h.01s.02,0,.03,0M16.44,17.52s-.02,0-.05.02c0,0,0-.02-.01-.03.01,0,.02-.01.03-.01.01,0,.02.02.03.03M16.24,17.52s0,0-.01.01c0,0-.01-.02-.01-.03,0,0,0,0,.01-.01,0,0,.01.02.01.03M15.4,17.34s0,.02.01.03c-.02,0-.03-.02-.04-.02,0,0,.02,0,.02,0M15.4,17.52s-.02-.01-.03-.02c0,0,0,0,0,0,0,0,.01.02.02.02M15.32,17.41s.05.03.04.06c0,0,0,0,0,.01-.04-.03-.05-.04-.07-.06.01,0,.02-.01.03-.01M15.32,17.59s0,.02-.01.03c0,0-.01,0-.01-.01,0,0,0-.02.01-.03,0,0,0,0,.01.01M14.98,17.78s.02.01.03.02c-.02,0-.03.02-.04.02-.01,0-.02-.02-.04-.02.02,0,.03-.02.05-.02M15.01,17.96s-.01.01-.02.02c-.03,0-.04-.01-.05-.02.02,0,.03-.01.05-.02,0,0,.02.01.03.02M14.87,18.01s.04.02.05.02c-.01,0-.02.02-.03.02,0,0-.03,0-.03-.01,0-.01,0-.03.01-.04M14.82,18.1s.02.01.04.02c-.02,0-.04.01-.06.02,0,0-.02-.01-.03-.02.02,0,.03-.02.05-.02M14.72,18.18s.03.01.05.02c-.02.02-.04.03-.06.05,0,0-.02-.01-.02-.01,0-.02.02-.04.03-.06M14.77,18.35s-.02.01-.03.01c0,0,0,0-.01-.01,0,0,.02,0,.03-.01h.01ZM14.62,18.26s.02,0,.03.01c0,0,0,0-.01.01,0,0-.02,0-.03-.01,0,0,0-.01.01-.01M14.61,18.46s.01-.03.02-.06c0,.04-.01.07-.02.09,0,0,0,0,0,0,0-.01,0-.03,0-.04M14.59,18.49s.01.03.02.04c-.01.05-.02.06-.03.07-.02-.02-.05-.04-.04-.06,0-.02.03-.04.05-.06M13.91,18.93s-.01,0-.01-.01c0,0,0-.02.01-.03,0,0,0,0,.01.01,0,0,0,.02-.01.03M14.14,18.93s-.06,0-.09-.02c-.01,0-.02-.03-.03-.04.02,0,.04-.02.05-.01.03,0,.06.02.08.04,0,0,0,0,.01.01,0,.02-.02.03-.03.03M15.72,18.93s-.03-.03-.03-.04c.01-.02.03-.03.05-.04,0,0,.02.02.05.05-.03.01-.05.03-.07.03M15.91,18.93s-.02-.03-.02-.05c0,0,.01-.02.02-.03,0,.02.02.03.02.04,0,.01-.02.02-.02.04M15.89,18.03s.02,0,.03-.01c0,0,0,0,.01.01,0,0-.02.01-.03.01,0,0,0,0-.01-.01M16.07,18.89s0-.02-.01-.03c0,0,0,0,.01-.01,0,0,.01.02.01.03,0,0,0,0-.01.01M16.22,18.93s-.01-.02-.01-.03c0-.01.02-.02.02-.03,0,.01,0,.02.02.05,0,0-.02,0-.03.01M16.97,17.93c-.05-.07-.1,0-.15,0-.05,0-.11,0-.16,0-.02,0-.03-.02-.05-.04-.01-.01-.03-.03-.04-.04l-.04-.04c-.13-.1-.13-.1-.24.04-.01.02-.04.03-.06.03-.05.02-.11.04-.16.04-.04,0-.08.05-.13,0-.02-.02-.09.02-.14.04-.02,0-.03.04-.03.06-.03.16-.05.31-.1.46-.03.09-.04.18-.06.28.01,0,.03,0,.04,0,.01,0,.03.01.06.02-.03,0-.05,0-.07,0,.02.02.01.02,0,.02,0,0-.01-.01-.02-.02-.06,0-.05.03-.04.05,0,.01.02.03.03.04-.02,0-.04,0-.07,0-.03,0-.06-.02-.09-.03,0,.04-.01.11-.04.07-.06-.07-.12,0-.18-.03-.05-.03-.14-.01-.21,0-.11,0-.22-.03-.32.04,0,0-.01,0-.02,0-.07.02-.14-.02-.2-.04-.05.07-.12.04-.18.04-.04,0-.08-.02-.12-.04.01-.06.06-.04.09-.04.03,0,.05.05.09,0,0-.01.05,0,.08,0,0-.02-.02-.05,0-.07.01-.02.05-.02.06-.03.04-.03.11-.04.15-.01.01,0,.03.01.04.02,0-.01.01-.03,0-.04-.09-.11-.02-.19.05-.26.05-.05.11-.1.04-.18.02-.01.03-.03.05-.03.02,0,.06.08.06-.01,0-.08.04-.13.09-.18.02-.02.02-.06.03-.09,0,0,0,0-.01,0,.06-.02.11-.03.06-.1-.03-.03,0-.08.06-.11.16-.1.35-.11.52-.19.1.07.2-.01.31,0,.17.01.33,0,.5,0,.16,0,.32-.02.47-.07.03-.01.1.04.12.03.09-.09.12.01.17.05,0,0-.01.04-.02.05-.03.03-.03,0-.04-.02,0-.01-.02-.03-.03-.04-.04-.02-.06.09-.12.03-.05-.06-.07.05-.11.02-.02.03-.04.04-.07,0,0,0-.03,0-.05,0,0,.01,0,.03.02.04.01.02.03.03.04.04.02.03.04.03.06,0,.02-.02.05-.05.05-.04.03.03.01.05,0,.08-.01.01,0,.05,0,.07.02.03.06.06.08.09,0,0,0,.02.01.03-.01,0-.03.01-.03.01M17.06,16.66s.02,0,.04,0c0,.03-.02.03-.03.03,0,0,0-.02,0-.03M16.98,17.81s-.01-.03-.02-.05c0,0,.01-.02.02-.03,0,0,.01.02.02.03-.02.03-.02.04-.03.05M17.01,17.71s.04-.04.05-.05c-.01.02-.02.04-.03.06,0,0-.02,0-.02-.01M17.19,17.77s-.04.04-.05.03c-.03-.02-.06-.04-.09-.06.07-.06.11-.05.14-.03,0,0,0,.05,0,.06M17.27,16.69s-.1-.03-.14-.06c-.02-.01-.02-.04-.04-.07,0,.03,0,.05,0,.07-.05-.05-.07-.05-.09-.04-.05.03-.04-.03-.07-.03.02,0,.03-.02.05-.03.02-.01.04-.02.07-.03.02,0,.05,0,.07,0,.03.02.06.05.08.08.02.03.08.04.06.1M17.23,16.53s-.01-.02-.02-.03c.02,0,.03-.01.05-.01,0,0,.01.02.02.03-.02,0-.04,0-.06,0M17.32,16.61s-.02-.01-.03-.02c.02,0,.03-.02.05-.02,0,0,.02.01.04.02-.02,0-.04.01-.06.02M17.37,16.51s.03-.01.05-.01c0,0,.01.02.02.03-.02,0-.04,0-.06,0,0,0-.01-.02-.02-.03M17.42,16.73s-.01-.03-.01-.05c0,0,.02-.01.03-.02,0,.02,0,.04,0,.06,0,0-.02.01-.03.02M17.51,16.61s0,0-.01-.01c0,0,0-.02.01-.03,0,0,.01,0,.01.01,0,0,0,.02-.01.03M17.59,16.73s-.02-.02-.02-.03c0,0,0-.02.01-.03.01,0,.03.01.03.01-.01.03-.02.04-.02.05M17.74,16.69s0,0-.01-.01c0,0,.02-.01.03-.01,0,0,0,0,.01.01,0,0-.02.01-.03.01M17.81,12.99c-.09-.04-.12-.02-.13.05,0,0-.02,0-.03,0-.08-.08-.18-.06-.27-.06-.02,0-.03-.01-.05-.02.01,0,.03-.02.04-.02.08.01.15-.02.22-.04.02.06.09-.12.1.02,0,.02.08.03.11.04,0,0,0,.02,0,.04M17.84,13.05s-.01-.01-.02-.03c.05.02.03.03.02.03M17.97,13s0,0,0,0c-.05-.02-.06-.04-.07-.05.01,0,.02-.01.03-.01.05,0,.05.03.04.06M17.98,11.51s.06.01.08.02c.02.01.04.03.05.05,0,0,0,.02,0,.03-.01,0-.03,0-.04,0-.02-.01-.04-.03-.06-.04-.02-.01-.04-.02-.05-.04,0,0,0-.03.01-.03M18.08,11.96s0,0-.01.01c0,0-.01-.02-.01-.03,0,0,0,0,.01-.01,0,0,0,.02.01.03M18,13.05s-.01-.01-.02-.02c.05.02.03.03.02.02M18.03,11.7s-.01-.02-.01-.03c0,0,0,0,.01-.01,0,0,0,.02.01.03,0,0,0,0-.01.01M18.11,13.14s-.01,0-.01-.01c0,0,0-.02.01-.03,0,0,0,0,.01.01,0,0,0,.02-.01.03M18.11,12.97s-.03,0-.05-.01c0,0,0-.02.02-.03.02,0,.04,0,.06,0,0,.01-.02.03-.02.03M18.18,13.41s0,0-.01-.01c0,0,.02-.01.03-.01,0,0,0,0,.01.01,0,0-.02.01-.03.01M18.18,13.05s-.03-.01-.05-.02c.01,0,.02-.01.04-.02.01,0,.03.02.04.02-.01,0-.02.02-.03.02M18.27,13.14s-.01-.02-.01-.03c0,0,0,0,.01-.01,0,0,.01.02.01.03,0,0,0,0-.01.01M18.23,11.62s-.07-.07-.1-.1c0,0,.03-.02.03-.02.04.03.08.07.13.1-.01,0-.02,0-.05.02M18.35,16.61s0-.02-.01-.03c0,0,0,0,.01-.01,0,0,.01.02.01.03,0,0,0,0-.01.01M18.35,13.05s-.02,0-.03-.01c0,0,0-.01.01-.01,0,0,.02,0,.03.01,0,0,0,0-.01.01M18.33,11.52s.01-.02.02-.03l.1.1s-.04.02-.04.02c-.03-.03-.05-.06-.08-.09M18.41,16.69s.02-.02.03-.03c.01.02.03.04.04.06-.06-.01-.07-.02-.07-.03M18.65,16.8s-.08-.02-.13-.03c-.01,0-.02-.01-.03-.02,0,0,0,0,0-.01.12.02.19.03.25.04-.03.02-.05.06-.1.02M18.79,16.78s0,0,0,0c0,0-.02,0-.03,0-.1-.02-.17-.03-.22-.04.11,0,.22,0,.33,0,0,0,.02.03.03.06-.04,0-.07-.01-.11-.02M19.03,16.81s-.03-.05-.05-.07c.01,0,.02,0,.05-.02,0,.02.02.04.02.06,0,0-.01.02-.02.03M19.17,16.79s0,0,.01-.01c0,0,0,.02.01.03h-.01s-.01,0-.01-.01"/>
      <polygon class="cls-5" points="11.54 20.47 9.35 20.47 9.26 20.62 11.54 20.62 11.54 20.47"/>
      <polygon class="cls-5" points="10.77 20.16 10.52 19.73 10.27 20.16 10.77 20.16"/>
      <polygon class="cls-5" points="17.58 7.22 17.33 6.79 17.08 7.22 17.58 7.22"/>
      <rect class="cls-5" x="16.94" y="7.62" width=".03" height=".35" transform="translate(5.58 22.59) rotate(-77.12)"/>
      <polygon class="cls-5" points="15.96 9.86 15.62 9.78 15.63 9.75 15.97 9.83 15.96 9.86"/>
      <polygon class="cls-5" points="16.03 9.75 15.69 9.67 15.69 9.64 16.03 9.72 16.03 9.75"/>
      <polygon class="cls-5" points="16.09 9.63 15.75 9.56 15.76 9.53 16.1 9.61 16.09 9.63"/>
      <polygon class="cls-5" points="16.16 9.52 15.82 9.44 15.82 9.42 16.16 9.5 16.16 9.52"/>
      <polygon class="cls-5" points="16.22 9.41 15.88 9.33 15.89 9.31 16.23 9.38 16.22 9.41"/>
      <rect class="cls-5" x="16.1" y="9.07" width=".03" height=".35" transform="translate(3.51 22.9) rotate(-77.12)"/>
      <rect class="cls-5" x="16.17" y="8.96" width=".03" height=".35" transform="translate(3.67 22.87) rotate(-77.12)"/>
      <polygon class="cls-5" points="16.41 9.08 16.07 9 16.08 8.97 16.42 9.05 16.41 9.08"/>
      <polygon class="cls-5" points="16.48 8.96 16.14 8.89 16.14 8.86 16.48 8.94 16.48 8.96"/>
      <polygon class="cls-5" points="16.54 8.85 16.2 8.77 16.21 8.75 16.55 8.83 16.54 8.85"/>
      <polygon class="cls-5" points="16.61 8.74 16.27 8.66 16.27 8.64 16.61 8.71 16.61 8.74"/>
      <rect class="cls-5" x="16.49" y="8.4" width=".03" height=".35" transform="translate(4.47 22.75) rotate(-77.12)"/>
      <rect class="cls-5" x="16.56" y="8.29" width=".03" height=".35" transform="translate(4.62 22.73) rotate(-77.12)"/>
      <rect class="cls-5" x="16.62" y="8.18" width=".03" height=".35" transform="translate(4.79 22.71) rotate(-77.13)"/>
      <polygon class="cls-5" points="16.87 8.29 16.53 8.22 16.53 8.19 16.87 8.27 16.87 8.29"/>
      <polygon class="cls-5" points="16.93 8.18 16.59 8.1 16.6 8.08 16.94 8.16 16.93 8.18"/>
      <rect class="cls-5" x="16.81" y="7.84" width=".03" height=".35" transform="translate(5.26 22.64) rotate(-77.13)"/>
      <polygon class="cls-5" points="17.06 7.96 16.72 7.88 16.73 7.85 17.07 7.93 17.06 7.96"/>
      <rect class="cls-5" x="17.62" y="7.78" width=".35" height=".03" transform="translate(-1.29 4.16) rotate(-12.88)"/>
      <polygon class="cls-5" points="18.79 9.86 19.13 9.78 19.12 9.75 18.78 9.83 18.79 9.86"/>
      <polygon class="cls-5" points="18.73 9.75 19.07 9.67 19.06 9.64 18.72 9.72 18.73 9.75"/>
      <rect class="cls-5" x="18.65" y="9.57" width=".35" height=".03" transform="translate(-1.66 4.44) rotate(-12.88)"/>
      <rect class="cls-5" x="18.59" y="9.46" width=".35" height=".03" transform="translate(-1.64 4.42) rotate(-12.88)"/>
      <rect class="cls-5" x="18.52" y="9.35" width=".35" height=".03" transform="translate(-1.62 4.4) rotate(-12.88)"/>
      <polygon class="cls-5" points="18.47 9.3 18.81 9.22 18.8 9.2 18.46 9.27 18.47 9.3"/>
      <rect class="cls-5" x="18.4" y="9.12" width=".35" height=".03" transform="translate(-1.57 4.37) rotate(-12.88)"/>
      <polygon class="cls-5" points="18.34 9.08 18.68 9 18.67 8.97 18.33 9.05 18.34 9.08"/>
      <polygon class="cls-5" points="18.27 8.96 18.61 8.89 18.61 8.86 18.27 8.94 18.27 8.96"/>
      <rect class="cls-5" x="18.2" y="8.79" width=".35" height=".03" transform="translate(-1.5 4.32) rotate(-12.88)"/>
      <rect class="cls-5" x="18.14" y="8.67" width=".35" height=".03" transform="translate(-1.48 4.3) rotate(-12.88)"/>
      <rect class="cls-5" x="18.07" y="8.56" width=".35" height=".03" transform="translate(-1.45 4.28) rotate(-12.88)"/>
      <rect class="cls-5" x="18.01" y="8.45" width=".35" height=".03" transform="translate(-1.43 4.27) rotate(-12.88)"/>
      <rect class="cls-5" x="17.94" y="8.34" width=".35" height=".03" transform="translate(-1.41 4.25) rotate(-12.87)"/>
      <polygon class="cls-5" points="17.89 8.29 18.23 8.22 18.22 8.19 17.88 8.27 17.89 8.29"/>
      <rect class="cls-5" x="17.81" y="8.12" width=".35" height=".03" transform="translate(-1.36 4.21) rotate(-12.87)"/>
      <rect class="cls-5" x="17.75" y="8" width=".35" height=".03" transform="translate(-1.34 4.19) rotate(-12.87)"/>
      <rect class="cls-5" x="17.69" y="7.89" width=".35" height=".03" transform="translate(-1.31 4.18) rotate(-12.87)"/>
      <polygon class="cls-5" points="23.19 20.47 25.38 20.47 25.46 20.62 23.19 20.62 23.19 20.47"/>
      <polygon class="cls-5" points="23.96 20.16 24.21 19.73 24.46 20.16 23.96 20.16"/>
      <polygon class="cls-5" points="24.91 20.16 25.25 20.09 25.25 20.06 24.91 20.14 24.91 20.16"/>
      <polygon class="cls-5" points="24.85 20.05 25.19 19.97 25.18 19.95 24.84 20.03 24.85 20.05"/>
      <polygon class="cls-5" points="24.79 19.94 25.13 19.86 25.12 19.84 24.78 19.91 24.79 19.94"/>
      <rect class="cls-5" x="24.71" y="19.76" width=".35" height=".03" transform="translate(-3.78 6.04) rotate(-12.88)"/>
      <path class="cls-5" d="M21.29,18.88l-.79-1.07-.86-.18-.93-4.17c.42-.02.7-.03.7-.07v-.23s.27,0,.27,0l-.36-2.83c0-.06-.31-.12-.78-.15l-.04,1.04c-.19-.02-.46-.02-.69-.03l-.07-1.08c-.12,0-.68,0-.8,0l-.09,1.08c-.23,0-.44.02-.63.04l-.04-1.06c-.47.03-.78.09-.78.15l-.39,2.83h.29v.21s.25.07.65.09c0,0,.01,0,.02,0,0-.03,0-.06,0-.09-.01-.02-.02-.05-.03-.07,0,0,0,0,0,0,0-.02,0-.03,0-.05,0,0,0,0,0,0,0,0,0,0,0,0-.2-.07-.24-.43.02-.52.07-.03.14-.05.21-.06,0,0,0-.02.01-.02-.08-.03-.14-.08-.15-.17,0-.01,0-.03,0-.04-.08-.02-.14-.08-.17-.17-.08-.15-.02-.3.11-.4.02-.02.05-.05.07-.06-.06-.16.02-.38.24-.37.74.03,1.48.04,2.22.04.33,0,.34.49.04.53,0,.13-.09.27-.25.28-.22.02-.44.06-.65.08.01.03.02.06.02.1.04,0,.09,0,.13,0,.22-.02.3.2.23.37.14-.03.28-.06.42-.09.07-.01.12,0,.17.02.04-.06.11-.1.21-.1,0,0,.01,0,.02,0,.03-.01.07-.02.11-.02.08,0,.14.03.18.07.23.1.19.51-.11.51-.05,0-.1-.01-.13-.03-.02,0-.04,0-.06,0-.04,0-.07,0-.1-.02-.03.04-.08.07-.14.08-.06.01-.12.03-.17.04.02.1,0,.21-.11.29-.21.15-.48.15-.73.17-.38.03-.75.03-1.13.03-.08,0-.14-.03-.18-.07,0,0,0,0-.01,0-.08,0-.14-.03-.18-.07-.03-.02-.04-.05-.06-.08-.01.01-.02.03-.03.05l-.92,4.04-.86.18-.79,1.07-1.6.29h11.11l-1.6-.29ZM18.91,17c-.21,0-.43-.05-.64,0-.08.01-.15,0-.21-.04,0,0,0,0,0,0-.05.25-.21.43-.4.59.29.31-.11.64-.41.76-.08.03-.16.06-.24.08,0,0,0,0,0,0,.12-.02.22.03.28.11.12,0,.24-.02.36-.03.34-.05.48.47.14.51-.27.04-.54.06-.81.06-.22,0-.46-.05-.67.01-.12.03-.21-.01-.27-.08-.01,0-.03.02-.04.03-.12.15-.29.09-.38-.03-.1,0-.21,0-.31.02-.03,0-.07.01-.1.01-.01,0-.02,0-.03,0-.03.04-.04.03-.03.01-.12.08-.27.04-.36-.04-.08.09-.19.14-.34.16-.05,0-.09,0-.13-.03-.09,0-.15-.06-.19-.12-.01,0-.03,0-.04,0-.01,0-.03,0-.04,0-.01,0-.03,0-.04,0,0,0-.01,0-.02,0,0,0,0,0,0,0,0,0,0,0,0,0-.03,0-.05,0-.08.01-.04,0-.08-.01-.1-.06-.01-.04.01-.09.06-.1.08-.02.15-.02.23-.03,0-.12.09-.23.24-.24,0-.02.02-.04.03-.05.01-.02.03-.03.05-.05.01,0,.02-.02.03-.03,0-.01.01-.03.02-.04.05-.11.18-.19.21-.32.02-.09.08-.15.14-.17.02-.02.04-.04.06-.06.03-.02.06-.03.1-.03,0,0-.01,0-.02-.01.02,0,.05-.02.07-.03.02-.02.04-.04.06-.07.03-.03.06-.05.08-.07,0-.1-.02-.2-.03-.3-.01-.14.13-.27.27-.27.01,0,.02,0,.04,0,0-.1.07-.2.18-.23.02-.02.03-.05.05-.07,0-.04-.01-.08,0-.12.01-.23.14-.38.32-.49.07-.21.21-.4.39-.51.09-.08.19-.14.3-.17,0,0,0-.02,0-.02-.02-.15.07-.31.25-.31.02,0,.05,0,.07,0,.15-.05.33-.02.48.12.14.13.24.31.31.5.03,0,.06.01.09.03.13.08.16.23.1.36,0,0,0,.02,0,.03.02,0,.03,0,.05,0,.16,0,.25.12.26.24.21-.02.41,0,.62.01.34,0,.34.54,0,.53"/>
      <path class="cls-5" d="M11.85,19.83c0-.26,0-.3,0-.36,0-.06-.02-.08-.07-.09-.01,0-.04,0-.05,0,0,0-.01,0-.01,0,0,0,0-.01.02-.01.07,0,.17,0,.18,0,.02,0,.14,0,.18,0,.1,0,.2,0,.28.07.04.03.11.11.11.22,0,.12-.05.24-.19.38.13.17.23.32.32.42.08.09.15.11.19.12.03,0,.05,0,.06,0,0,0,.01,0,.01,0,0,0,0,.01-.04.01h-.11c-.09,0-.13,0-.17-.03-.07-.04-.12-.12-.21-.24-.07-.09-.14-.2-.17-.24,0,0-.01,0-.02,0h-.19s-.01,0-.01,0v.04c0,.16,0,.29,0,.36,0,.05.01.08.06.09.02,0,.06,0,.07,0,0,0,.01,0,.01,0,0,0,0,.01-.02.01-.09,0-.18,0-.19,0,0,0-.1,0-.15,0-.02,0-.02,0-.02-.01,0,0,0,0,.01,0,.01,0,.03,0,.05,0,.03,0,.04-.04.05-.09,0-.07,0-.2,0-.36v-.29ZM11.97,19.98s0,.01.01.02c.02.01.09.03.16.03.04,0,.08,0,.12-.03.05-.04.09-.13.09-.25,0-.21-.1-.33-.27-.33-.05,0-.09,0-.1,0,0,0-.01,0-.01.02v.54Z"/>
      <path class="cls-5" d="M13.73,20.12c0,.16,0,.29,0,.36,0,.05.01.08.06.09.02,0,.06,0,.07,0,0,0,.01,0,.01,0,0,0,0,.01-.02.01-.09,0-.18,0-.19,0s-.11,0-.15,0c-.02,0-.02,0-.02-.01,0,0,0,0,.01,0,.01,0,.03,0,.05,0,.03,0,.04-.04.05-.09,0-.07,0-.2,0-.36v-.17s0,0,0,0h-.66s0,0,0,0v.17c0,.16,0,.29,0,.36,0,.05.01.08.06.09.02,0,.06,0,.07,0,0,0,.01,0,.01,0,0,0,0,.01-.02.01-.09,0-.18,0-.19,0s-.11,0-.15,0c-.02,0-.02,0-.02-.01,0,0,0,0,.01,0,.01,0,.03,0,.05,0,.03,0,.04-.04.05-.09,0-.07,0-.2,0-.36v-.29c0-.26,0-.3,0-.36,0-.06-.02-.08-.07-.09-.01,0-.04,0-.05,0,0,0-.01,0-.01,0,0,0,0-.01.02-.01.07,0,.17,0,.18,0s.11,0,.15,0c.02,0,.02,0,.02.01,0,0,0,0-.01,0-.01,0-.02,0-.04,0-.04,0-.05.04-.06.09,0,.05,0,.1,0,.36v.03s0,0,0,0h.66s0,0,0,0v-.03c0-.26,0-.3,0-.36,0-.06-.02-.08-.07-.09-.01,0-.04,0-.05,0,0,0-.01,0-.01,0,0,0,0-.01.02-.01.07,0,.17,0,.18,0s.11,0,.15,0c.02,0,.02,0,.02.01,0,0,0,0-.01,0-.01,0-.02,0-.04,0-.04,0-.05.04-.06.09,0,.05,0,.1,0,.36v.29Z"/>
      <path class="cls-5" d="M14.45,19.33c.35,0,.61.23.61.62s-.25.68-.62.68c-.43,0-.6-.35-.6-.65,0-.27.18-.65.61-.65M14.48,20.56c.14,0,.43-.09.43-.57,0-.4-.23-.61-.47-.61-.26,0-.45.18-.45.54,0,.38.22.63.5.63"/>
      <path class="cls-5" d="M15.15,19.83c0-.26,0-.3,0-.36,0-.06-.02-.08-.07-.09-.01,0-.04,0-.05,0,0,0-.01,0-.01,0,0,0,0-.01.02-.01.07,0,.17,0,.18,0,.02,0,.12,0,.21,0,.15,0,.44-.01.62.19.08.09.15.22.15.42,0,.21-.08.37-.17.47-.07.07-.21.19-.47.19-.07,0-.15,0-.22,0-.07,0-.12,0-.13,0,0,0-.03,0-.06,0-.03,0-.07,0-.09,0-.02,0-.02,0-.02-.01,0,0,0,0,.01,0,.01,0,.03,0,.05,0,.03,0,.04-.04.05-.09,0-.07,0-.2,0-.36v-.29ZM15.29,20.01c0,.17,0,.33,0,.36,0,.04,0,.11.02.13.02.03.08.07.26.07.14,0,.28-.06.37-.15.08-.08.12-.24.12-.39,0-.21-.09-.35-.15-.42-.15-.16-.32-.19-.51-.19-.03,0-.09,0-.1.01-.01,0-.02.01-.02.03,0,.06,0,.22,0,.35v.2Z"/>
      <path class="cls-5" d="M16.33,19.83c0-.26,0-.3,0-.36,0-.06-.02-.08-.07-.09-.01,0-.04,0-.05,0,0,0-.01,0-.01,0,0,0,0-.01.02-.01.04,0,.08,0,.11,0h.06s.32,0,.36,0c.03,0,.05,0,.07,0,0,0,.01,0,.02,0,0,0,0,0,0,.01,0,.01,0,.03-.01.08,0,.02,0,.09,0,.11,0,0,0,.02-.01.02,0,0-.01,0-.01-.02,0-.01,0-.04,0-.06-.01-.03-.03-.05-.11-.06-.03,0-.2,0-.21,0,0,0,0,0,0,.02v.46s0,.02,0,.02c.02,0,.21,0,.25,0,.04,0,.06,0,.07-.02.01-.01.02-.02.02-.02,0,0,0,0,0,.01s0,.04-.01.09c0,.03,0,.09,0,.11,0,.01,0,.03-.01.03,0,0-.01,0-.01-.01,0-.02,0-.03,0-.05,0-.02-.02-.05-.08-.06-.04,0-.2,0-.22,0,0,0-.01,0-.01.01v.15c0,.06,0,.25,0,.28,0,.11.03.14.18.14.04,0,.11,0,.15-.02.04-.02.06-.05.07-.12,0-.02,0-.02.01-.02,0,0,0,.01,0,.02,0,.01-.01.13-.02.16-.01.04-.02.04-.08.04-.12,0-.2,0-.26,0-.06,0-.1,0-.12,0,0,0-.03,0-.06,0-.03,0-.07,0-.09,0-.02,0-.02,0-.02-.01,0,0,0,0,.01,0,.01,0,.03,0,.05,0,.03,0,.04-.04.05-.09,0-.07,0-.2,0-.36v-.29Z"/>
      <path class="cls-5" d="M16.95,20.58s-.02-.02-.02-.06c0-.08,0-.15,0-.18,0-.02,0-.03.01-.03,0,0,.01,0,.01.02,0,.01,0,.04,0,.06.02.12.13.17.23.17.15,0,.22-.11.22-.22,0-.11-.05-.18-.18-.3l-.07-.06c-.16-.14-.2-.25-.2-.36,0-.18.12-.3.32-.3.06,0,.11,0,.14.02.03,0,.04,0,.05,0s.02,0,.02.01,0,.06,0,.18c0,.03,0,.04-.01.04,0,0-.01,0-.01-.02,0-.02-.01-.06-.02-.08,0-.02-.05-.09-.19-.09-.11,0-.19.07-.19.19,0,.09.04.15.19.28l.04.04c.18.15.23.26.23.39,0,.07-.02.19-.13.27-.07.05-.15.07-.23.07-.07,0-.14-.01-.21-.04"/>
      <path class="cls-5" d="M18.11,20.12c0,.16,0,.29,0,.36,0,.05.01.08.06.09.02,0,.06,0,.07,0,0,0,.01,0,.01,0,0,0,0,.01-.02.01-.09,0-.18,0-.19,0s-.11,0-.15,0c-.02,0-.02,0-.02-.01,0,0,0,0,.01,0,.01,0,.03,0,.05,0,.03,0,.04-.04.05-.09,0-.07,0-.2,0-.36v-.29c0-.26,0-.3,0-.36,0-.06-.02-.08-.05-.09-.02,0-.04,0-.05,0,0,0-.01,0-.01,0,0,0,0-.01.02-.01.05,0,.15,0,.16,0s.11,0,.15,0c.02,0,.02,0,.02.01,0,0,0,0-.01,0-.01,0-.02,0-.04,0-.04,0-.05.04-.06.09,0,.05,0,.1,0,.36v.29Z"/>
      <path class="cls-5" d="M18.33,20.58s-.02-.02-.02-.06c0-.08,0-.15,0-.18,0-.02,0-.03.01-.03,0,0,.01,0,.01.02,0,.01,0,.04,0,.06.02.12.13.17.23.17.15,0,.22-.11.22-.22,0-.11-.05-.18-.18-.3l-.07-.06c-.16-.14-.2-.25-.2-.36,0-.18.12-.3.32-.3.06,0,.11,0,.14.02.03,0,.04,0,.05,0s.02,0,.02.01,0,.06,0,.18c0,.03,0,.04-.01.04,0,0-.01,0-.01-.02,0-.02-.01-.06-.02-.08,0-.02-.05-.09-.19-.09-.11,0-.19.07-.19.19,0,.09.04.15.19.28l.04.04c.18.15.23.26.23.39,0,.07-.02.19-.13.27-.07.05-.15.07-.23.07-.07,0-.14-.01-.21-.04"/>
      <path class="cls-5" d="M19.21,20.13c0,.24,0,.35.03.38.02.03.07.04.19.04.08,0,.15,0,.19-.05.02-.03.04-.07.04-.1,0-.01,0-.02.01-.02,0,0,0,0,0,.02s-.01.12-.02.17c-.01.04-.02.04-.1.04-.11,0-.19,0-.26,0-.07,0-.11,0-.16,0,0,0-.03,0-.06,0-.03,0-.07,0-.09,0-.02,0-.02,0-.02-.01,0,0,0,0,.01,0,.01,0,.03,0,.05,0,.03,0,.04-.04.05-.09,0-.07,0-.2,0-.36v-.29c0-.26,0-.3,0-.36,0-.06-.02-.08-.07-.09-.01,0-.04,0-.05,0,0,0-.01,0-.01,0,0,0,0-.01.02-.01.07,0,.17,0,.18,0s.12,0,.17,0c.02,0,.02,0,.02.01,0,0,0,0-.01,0-.01,0-.03,0-.05,0-.05,0-.06.04-.06.09,0,.05,0,.1,0,.36v.29Z"/>
      <path class="cls-5" d="M20.01,19.4c.02-.05.02-.06.03-.06s.02,0,.03.06c.02.06.27.74.36,1,.06.15.1.17.13.18.02,0,.05,0,.06,0,0,0,.02,0,.02,0,0,0-.01.01-.03.01-.02,0-.14,0-.24,0-.03,0-.05,0-.05-.01,0,0,0,0,.01-.01,0,0,.02-.02,0-.04l-.14-.41s0,0-.01,0h-.33s-.01,0-.02.01l-.09.29s-.02.08-.02.11c0,.03.03.05.06.05h.02s.02,0,.02,0c0,0,0,.01-.02.01-.04,0-.1,0-.12,0s-.1,0-.18,0c-.02,0-.03,0-.03-.01,0,0,0,0,.01,0,.01,0,.03,0,.05,0,.07,0,.1-.07.13-.16l.35-1.03ZM20.17,20.06s0,0,0-.01l-.15-.45s-.02-.02-.02,0l-.14.45s0,.01,0,.01h.3Z"/>
      <path class="cls-5" d="M20.68,20.38c0,.14.02.18.06.19.03,0,.06,0,.08,0,0,0,.01,0,.01,0,0,0,0,.01-.03.01-.09,0-.15,0-.16,0s-.08,0-.15,0c-.02,0-.02,0-.02-.01,0,0,0,0,.01,0,.01,0,.04,0,.06,0,.04-.01.05-.06.05-.21v-.95c0-.06,0-.08.02-.08s.04.04.05.05c.02.03.26.29.49.57.15.17.32.38.37.43l-.02-.84c0-.11-.01-.14-.06-.16-.03,0-.06,0-.08,0-.01,0-.01,0-.01-.01,0,0,.01-.01.03-.01.07,0,.14,0,.16,0s.07,0,.13,0c.02,0,.03,0,.03.01,0,0,0,.01-.02.01,0,0-.02,0-.04,0-.05.01-.06.05-.06.15v.97c0,.11,0,.12-.02.12-.01,0-.03-.02-.11-.11-.02-.02-.24-.26-.41-.45-.18-.21-.36-.41-.41-.47l.02.79Z"/>
      <path class="cls-5" d="M21.88,19.83c0-.26,0-.3,0-.36,0-.06-.02-.08-.07-.09-.01,0-.04,0-.05,0,0,0-.01,0-.01,0,0,0,0-.01.02-.01.07,0,.17,0,.18,0,.02,0,.12,0,.21,0,.15,0,.44-.01.62.19.08.09.15.22.15.42,0,.21-.08.37-.17.47-.07.07-.21.19-.47.19-.07,0-.15,0-.22,0-.07,0-.12,0-.13,0,0,0-.03,0-.06,0-.03,0-.07,0-.09,0-.02,0-.02,0-.02-.01,0,0,0,0,.01,0,.01,0,.03,0,.05,0,.03,0,.04-.04.05-.09,0-.07,0-.2,0-.36v-.29ZM22.01,20.01c0,.17,0,.33,0,.36,0,.04,0,.11.02.13.02.03.08.07.26.07.14,0,.28-.06.37-.15.08-.08.12-.24.12-.39,0-.21-.09-.35-.15-.42-.15-.16-.32-.19-.51-.19-.03,0-.09,0-.1.01-.01,0-.02.01-.02.03,0,.06,0,.22,0,.35v.2Z"/>
      <path class="cls-5" d="M9.75,19.97s0,0,0,0c0,0,0,0,.01,0h.2s-.11-.15-.11-.15c0,0,0,0,0,0,0,0,0,0,.01,0l.18.07s.03,0,.04,0c0,0,.01-.01.01-.02,0,0,0,0,0,0,0,0,0,0,0,0,0,0-.03.05-.03.06,0,0,0,0,0,0,0,0,0,0,0,0,0,0,0,0-.01,0l-.13-.05h0s.09.13.09.13c0,.01.01.02,0,.02,0,0,0,0-.02,0-.02,0-.07,0-.08,0,0,0-.05,0-.08,0h0s.1.08.1.08c0,0,0,0,.01,0,0,0,0,0,.01,0,0,0,0,0,0-.01,0,0,0,0,0,0,0,0,0,0,0,0,0,.01-.01.02-.02.03,0,0,0,.02-.01.03,0,0,0,0,0,0,0,0,0,0,0,0,0,0,0,0,0,0,0,0,0-.02-.02-.02l-.16-.13Z"/>
      <path class="cls-5" d="M10.07,19.72s0,0,0,0l.03.04s.01.01.01.01c0,0,.01,0,.02,0h0s0,0,0,0c0,0,0,0,0,0,0,0-.01.02-.02.03,0,0,0,.02-.02.03,0,0,0,0,0,0,0,0,0,0,0,0,0,0,0,0,0,0,0-.01,0-.02-.01-.04l-.13-.17s0-.01,0-.01c0,0,0,0,.01,0,.02,0,.16.02.21.03.03,0,.04,0,.04,0,0,0,0,0,0-.01,0,0,0,0,0,0,0,0,0,0,0,.01,0,.01-.02.03-.03.05,0,0,0,0,0,0,0,0,0,0,0,0,0,0,0,0,0,0h-.07s0-.01,0,0l-.04.06ZM10.09,19.66s0,0,0,0h-.08s0-.02,0-.01c0,0,0,0,0,0l.05.06s0,0,0,0l.03-.05Z"/>
      <path class="cls-5" d="M10.19,19.5s-.02,0-.03-.01c0,0-.09,0-.11,0-.01,0-.03,0-.03,0,0,0,0,0-.01,0,0,0,0,0,0,0,0,0,0,0,0,0,0,0,.02-.03.02-.03,0,0,0-.02.02-.03,0,0,0,0,0,0,0,0,0,0,0,0,0,0,0,0,0,0,0,0,0,0,.01,0,.01,0,.1,0,.11,0,0,0-.05-.08-.05-.09,0,0,0-.01-.01-.01,0,0,0,0-.01,0,0,0,0,0,0,0,0,0,0,0,0,0,0,0,.01-.02.02-.03,0,0,.01-.02.02-.03,0,0,0,0,0,0,0,0,0,0,0,0,0,0,0,0,0,.01,0,0,0,.01,0,.02,0,.02.05.09.06.1,0,0,.02.01.03.02h.02s.02.02.03.03c0,0,.02,0,.02,0,0,0,0,0,0-.01,0,0,0,0,0,0,0,0,0,0,0,0-.01.02-.02.03-.03.04,0,0-.01.02-.02.04,0,0,0,0,0,0,0,0,0,0,0,0,0,0,0,0,0-.01,0,0,0-.01-.01-.02-.01,0-.02-.01-.03-.02h-.02Z"/>
      <path class="cls-5" d="M10.27,19.23s-.05-.03-.06-.03c0,0-.02,0-.02,0,0,0,0,0,0,0,0,0,0,0,0,0,0,0,0,0,0,0,0-.01.02-.03.02-.04,0,0,.01-.02.02-.03,0,0,0,0,0,0,0,0,0,0,0,0,0,0,0,0,0,0,0,0,0,.01,0,.02,0,0,.02.01.06.03l.05.03s.05.03.06.03c0,0,.01,0,.02,0,0,0,0,0,0-.01,0,0,0,0,0,0,0,0,0,0,0,0-.01.02-.02.04-.03.04,0,0-.01.02-.02.04,0,0,0,0,0,0,0,0,0,0,0,0,0,0,0,0,0-.01,0,0,0-.01,0-.02-.01,0-.03-.02-.06-.04l-.05-.03Z"/>
      <path class="cls-5" d="M10.39,19.02s-.05-.03-.06-.03c0,0-.02,0-.02,0,0,0,0,0,0,.01,0,0,0,0,0,0,0,0,0,0,0,0,0,0,0-.02.01-.02,0,0,0-.01.01-.02,0,0,.04-.06.04-.07,0,0,0-.01,0-.01,0,0,0,0,0,0,0,0,0,0,0,0,0,0,0,0,.02.01,0,0,.01,0,.02.01,0,0,0,0,0,0,0,0,0,0,0,0,0,0,0,0-.01,0,0,0-.01,0-.02.01,0,0-.02.03-.02.04,0,0,0,0,0,0l.07.04s0,0,0,0c0,0,.02-.04.02-.04,0,0,0-.01,0-.02,0,0,0,0,0,0,0,0,0,0,0,0,0,0,0,0,.02.01,0,0,.02.01.02.01,0,0,0,0,0,0,0,0,0,0,0,0,0,0,0,0-.01,0,0,0-.01,0-.02,0,0,0-.02.03-.02.04,0,0,0,0,0,0h.02s.03.03.04.04c.02.01.03,0,.04-.02,0,0,.01-.02.01-.03,0,0,0-.02-.01-.02,0,0,0,0,0,0,0,0,0,0,0,0,0,0,.02.02.03.02,0,0,0,0,0,.02-.01.02-.02.04-.03.05,0,.01-.01.02-.02.03,0,0,0,0,0,.02,0,0,0,.01-.01.02,0,0,0,0,0,0,0,0,0,0,0,0,0,0,0,0,0-.01,0,0,0-.01-.01-.02-.01,0-.03-.02-.06-.04l-.05-.03Z"/>
      <path class="cls-5" d="M10.6,18.88s.03.01.04,0c0,0,0,0,.01-.01,0,0,0,0,0,0,0,0,0,0,0,0-.01.02-.02.03-.02.03,0,0,0,.02-.02.03,0,0,0,0,0,0,0,0,0,0,0,0,0,0,0,0,0-.01,0,0,0-.01-.03-.03l-.16-.1s0,0,0,0c0,0,0,0,.01,0,0,0,.07-.02.14-.04.03,0,.09-.02.1-.02h0s-.13-.07-.13-.07c-.02,0-.02,0-.03,0,0,0,0,0-.01.01,0,0,0,0,0,0,0,0,0,0,0,0,0-.01.02-.03.02-.03,0,0,0-.01.01-.03,0,0,0,0,0,0,0,0,0,0,0,0,0,0,0,0,0,0,0,0,0,.01.02.02l.17.1s0,0,0,0c0,0,0,0-.01,0-.03,0-.08.02-.13.04-.05.01-.1.02-.11.03h0s.12.06.12.06Z"/>
      <path class="cls-5" d="M10.65,18.57s-.05-.03-.06-.03c0,0-.02,0-.02,0,0,0,0,0,0,.01,0,0,0,0,0,0,0,0,0,0,0,0,0-.01.02-.03.02-.04,0,0,.01-.02.02-.04,0,0,0,0,0,0,0,0,0,0,0,0,0,0,0,0,0,0,0,0,0,.01,0,.02,0,0,.02.01.06.03l.05.03s.03.01.04.02c.02,0,.03.02.05.03.01.02.02.04.03.08,0,0,0,.01,0,.02,0,0,0,0,0,0,0,0,0,0,0,0,0,0,0,0,0,0,0,0,0-.01,0-.02,0-.03-.04-.05-.09-.08l-.08-.05Z"/>
      <path class="cls-5" d="M10.73,18.5s-.09-.09-.04-.18c.04-.07.1-.09.17-.05.06.04.09.11.05.18-.05.08-.12.08-.17.05M10.84,18.31c-.06-.04-.12-.02-.15.02-.02.03-.02.08.05.12.06.03.12.03.15-.03.01-.02.03-.07-.05-.12"/>
      <path class="cls-5" d="M10.94,18.2s-.02,0-.03-.01c0,0-.09,0-.11,0-.01,0-.03,0-.03,0,0,0,0,0-.01,0,0,0,0,0,0,0,0,0,0,0,0,0,0,0,.02-.03.02-.03,0,0,0-.02.02-.03,0,0,0,0,0,0,0,0,0,0,0,0,0,0,0,0,0,0,0,0,0,0,.01,0,.01,0,.1,0,.11,0,0,0-.05-.08-.05-.09,0,0,0-.01-.01-.01,0,0,0,0-.01,0,0,0,0,0,0,0,0,0,0,0,0,0,0,0,.01-.02.02-.03,0,0,.01-.02.02-.03,0,0,0,0,0,0,0,0,0,0,0,0,0,0,0,0,0,.01,0,0,0,.01,0,.02,0,.02.05.09.06.1,0,0,.02.01.03.02h.02s.02.02.03.03c0,0,.02,0,.02,0,0,0,0,0,0-.01,0,0,0,0,0,0,0,0,0,0,0,0-.01.02-.02.03-.03.04,0,0-.01.02-.02.04,0,0,0,0,0,0,0,0,0,0,0,0,0,0,0,0,0-.01,0,0,0-.01-.01-.02-.01,0-.02-.01-.03-.02h-.02Z"/>
      <path class="cls-5" d="M10.95,17.87s0,0,0,0c0,0,0,0,.01,0h.2s-.11-.15-.11-.15c0,0,0,0,0,0,0,0,0,0,.01,0l.18.07s.03,0,.04,0c0,0,.01-.01.01-.02,0,0,0,0,0,0,0,0,0,0,0,0,0,0-.03.05-.03.06,0,0,0,0,0,0,0,0,0,0,0,0,0,0,0,0-.01,0l-.13-.05h0s.09.13.09.13c0,.01.01.02,0,.02,0,0,0,0-.02,0-.02,0-.07,0-.08,0,0,0-.05,0-.08,0h0s.1.08.1.08c0,0,0,0,.01,0,0,0,0,0,.01,0,0,0,0,0,0-.01,0,0,0,0,0,0,0,0,0,0,0,0,0,.01-.01.02-.02.03,0,0,0,.02-.01.03,0,0,0,0,0,0,0,0,0,0,0,0,0,0,0,0,0,0,0,0,0-.02-.02-.02l-.16-.13Z"/>
      <path class="cls-5" d="M11.27,17.64s-.02,0-.03-.01c0,0-.09,0-.11,0-.01,0-.03,0-.03,0,0,0,0,0-.01,0,0,0,0,0,0,0,0,0,0,0,0,0,0,0,.02-.03.02-.03,0,0,0-.02.02-.03,0,0,0,0,0,0,0,0,0,0,0,0,0,0,0,0,0,0,0,0,0,0,.01,0,.01,0,.1,0,.11,0,0,0-.05-.08-.05-.09,0,0,0-.01-.01-.01,0,0,0,0-.01,0,0,0,0,0,0,0,0,0,0,0,0,0,0,0,.01-.02.02-.03,0,0,.01-.02.02-.03,0,0,0,0,0,0,0,0,0,0,0,0,0,0,0,0,0,.01,0,0,0,.01,0,.02,0,.02.05.09.06.1,0,0,.02.01.03.02h.02s.02.02.03.03c0,0,.02,0,.02,0,0,0,0,0,0-.01,0,0,0,0,0,0,0,0,0,0,0,0-.01.02-.02.03-.03.04,0,0-.01.02-.02.04,0,0,0,0,0,0,0,0,0,0,0,0,0,0,0,0,0-.01,0,0,0-.01-.01-.02-.01,0-.02-.01-.03-.02h-.02Z"/>
      <path class="cls-5" d="M11.41,17.36s.05.03.06.03c0,0,.01,0,.03-.03,0-.01.01-.03.01-.04,0,0,0-.01-.01-.02,0,0,0,0,0,0,0,0,0,0,0,0,0,0,.02.02.03.02,0,0,0,0,0,.02-.01.02-.02.03-.03.05,0,.01-.01.02-.02.03,0,0,0,0,0,.02,0,0,0,.01-.01.02,0,0,0,0,0,0,0,0,0,0,0,0,0,0,0,0,0-.01,0,0,0-.01-.01-.02-.01,0-.03-.02-.06-.04l-.05-.03s-.05-.03-.06-.03c0,0-.02,0-.02,0,0,0,0,0,0,0,0,0,0,0,0,0,0,0,0,0,0,0,0-.01.02-.03.02-.04,0,0,.01-.03.02-.04,0,0,0,0,0,0,0,0,0,0,0,0,0,0,0,0,0,.01,0,0,0,.01,0,.02,0,0,.02.01.06.03l.05.03Z"/>
      <path class="cls-5" d="M11.45,17.19s-.05-.03-.06-.03c0,0-.02,0-.02,0,0,0,0,0,0,0,0,0,0,0,0,0,0,0,0,0,0,0,0-.01.02-.03.02-.04,0,0,.01-.02.02-.03,0,0,0,0,0,0,0,0,0,0,0,0,0,0,0,0,0,0,0,0,0,.01,0,.02,0,0,.02.01.06.03l.05.03s.05.03.06.03c0,0,.01,0,.02,0,0,0,0,0,0-.01,0,0,0,0,0,0,0,0,0,0,0,0-.01.02-.02.04-.03.04,0,0-.01.02-.02.04,0,0,0,0,0,0,0,0,0,0,0,0,0,0,0,0,0-.01,0,0,0-.01,0-.02-.01,0-.03-.02-.06-.04l-.05-.03Z"/>
      <path class="cls-5" d="M11.59,17.05s.05.03.06.03c0,0,.02,0,.02,0,0,0,0,0,0-.01,0,0,0,0,0,0,0,0,0,0,0,0-.01.02-.02.03-.03.04,0,0-.01.03-.02.04,0,0,0,0,0,0,0,0,0,0,0,0,0,0,0,0,0-.01,0,0,0-.01-.01-.02-.01,0-.03-.02-.06-.04l-.05-.03s-.05-.03-.06-.03c0,0-.02,0-.02,0,0,0,0,0,0,.01,0,0,0,0,0,0,0,0,0,0,0,0,0,0,0-.02.01-.02,0,0,0-.01.01-.02,0-.01.04-.07.04-.07,0,0,0,0,0-.01,0,0,0,0,0,0,0,0,0,0,0,0,0,0,0,0,.01,0,0,0,.02.01.02.01,0,0,0,0,0,0,0,0,0,0,0,0,0,0,0,0-.01,0,0,0-.01,0-.02.01l-.03.04s0,0,0,0l.07.04s0,0,0,0l.02-.04s0,0,0-.01c0,0,0,0,0-.01,0,0,0,0,0,0,0,0,0,0,0,0,0,0,0,0,.02.01,0,0,.02.01.02.01,0,0,0,0,0,0,0,0,0,0,0,0,0,0,0,0,0,0,0,0-.01,0-.02,0,0,0-.02.04-.02.04,0,0,0,0,0,0h.02Z"/>
      <path class="cls-5" d="M11.62,16.88s-.05-.03-.06-.03c0,0-.02,0-.02,0,0,0,0,0,0,.01,0,0,0,0,0,0,0,0,0,0,0,0,0,0,0-.02.01-.02,0,0,0-.01.01-.02,0,0,.04-.06.04-.07,0,0,0-.01,0-.01,0,0,0,0,0,0,0,0,0,0,0,0,0,0,0,0,.02.01,0,0,.01,0,.02.01,0,0,0,0,0,0,0,0,0,0,0,0,0,0,0,0-.01,0,0,0-.01,0-.02.01,0,0-.02.03-.02.04,0,0,0,0,0,0l.07.04s0,0,0,0c0,0,.02-.04.02-.04,0,0,0-.01,0-.02,0,0,0,0,0,0,0,0,0,0,0,0,0,0,0,0,.02.01,0,0,.02.01.02.01,0,0,0,0,0,0,0,0,0,0,0,0,0,0,0,0-.01,0,0,0-.01,0-.02,0,0,0-.02.03-.02.04,0,0,0,0,0,0h.02s.03.03.04.04c.02.01.03,0,.04-.02,0,0,.01-.02.01-.03,0,0,0-.02-.01-.02,0,0,0,0,0,0,0,0,0,0,0,0,0,0,.02.02.03.02,0,0,0,0,0,.02-.01.02-.02.04-.03.05,0,.01-.01.02-.02.03,0,0,0,0,0,.02,0,0,0,.01-.01.02,0,0,0,0,0,0,0,0,0,0,0,0,0,0,0,0,0-.01,0,0,0-.01-.01-.02-.01,0-.03-.02-.06-.04l-.05-.03Z"/>
      <path class="cls-5" d="M11.84,16.64s0,0,0,0l.03.04s.01.01.01.01c0,0,.01,0,.02,0h0s0,0,0,0c0,0,0,0,0,0,0,0-.01.02-.02.03,0,0,0,.02-.02.03,0,0,0,0,0,0,0,0,0,0,0,0,0,0,0,0,0,0,0-.01,0-.02-.01-.04l-.13-.17s0-.01,0-.01c0,0,0,0,.01,0,.02,0,.16.02.21.03.03,0,.04,0,.04,0,0,0,0,0,0-.01,0,0,0,0,0,0,0,0,0,0,0,.01,0,0-.02.03-.03.05,0,0,0,0,0,0,0,0,0,0,0,0,0,0,0,0,0,0h-.07s0-.01,0,0l-.04.06ZM11.86,16.58s0,0,0,0h-.08s0-.02,0-.01,0,0,0,0l.05.06s0,0,0,0l.03-.05Z"/>
      <path class="cls-5" d="M12,16.44s.03.01.04,0c0,0,0,0,.01-.01,0,0,0,0,0,0,0,0,0,0,0,0-.01.02-.02.03-.02.03,0,0,0,.02-.02.03,0,0,0,0,0,0,0,0,0,0,0,0,0,0,0,0,0-.01,0,0,0-.01-.03-.03l-.16-.1s0,0,0,0c0,0,0,0,.01,0,0,0,.07-.02.14-.04.03,0,.09-.02.1-.02h0s-.13-.07-.13-.07c-.02,0-.02,0-.03,0,0,0,0,0-.01.01,0,0,0,0,0,0,0,0,0,0,0,0,0-.01.02-.03.02-.03,0,0,0-.01.01-.03,0,0,0,0,0,0,0,0,0,0,0,0,0,0,0,0,0,0,0,0,0,.01.02.02l.17.1s0,0,0,0c0,0,0,0-.01,0-.03,0-.08.02-.13.04-.05.01-.1.02-.11.03h0s.12.06.12.06Z"/>
      <path class="cls-5" d="M12.05,16.13s-.05-.03-.06-.03c0,0-.02,0-.02,0,0,0,0,0,0,.01,0,0,0,0,0,0,0,0,0,0,0,0,0-.01.02-.03.02-.04,0,0,.01-.03.02-.04.02-.03.05-.08.1-.09.02,0,.05,0,.09.01.03.02.05.05.06.07,0,.02,0,.06-.02.11,0,.01-.01.02-.02.03,0,.01-.01.02-.02.03,0,0,0,0,0,.02,0,0,0,.01-.01.02,0,0,0,0,0,0,0,0,0,0,0,0,0,0,0,0,0-.01,0,0,0-.01-.01-.02-.01,0-.03-.02-.06-.04l-.05-.03ZM12.1,16.11s.05.03.06.03c0,0,.02,0,.02,0,0,0,.02,0,.03-.03.02-.03.02-.05.02-.08,0-.03-.03-.05-.06-.06-.04-.02-.07-.02-.08-.01-.04.01-.06.04-.07.06,0,0,0,.02,0,.02,0,0,0,0,0,0,0,0,.03.02.06.03l.04.02Z"/>
      <path class="cls-5" d="M12.25,15.79s-.05-.03-.06-.03c0,0-.02,0-.02,0,0,0,0,0,0,.01,0,0,0,0,0,0,0,0,0,0,0,0,0-.01.02-.03.02-.04,0-.01.01-.03.02-.04.02-.03.04-.04.05-.04,0,0,.03,0,.04,0,.04.02.05.07.03.11,0,0,0,0,0,0,0,0,0,0,0,0,0,0,0,0,0,0,0-.02,0-.05-.02-.06,0,0-.03-.02-.05,0-.01,0-.02.02-.03.02,0,0,0,0,0,.01,0,0,0,0,0,0l.11.06s.05.03.06.03c0,0,.02,0,.02,0,0,0,0,0,0-.01,0,0,0,0,0,0,0,0,0,0,0,0-.01.02-.02.04-.03.04,0,0-.01.02-.02.04,0,0,0,0,0,0,0,0,0,0,0,0,0,0,0,0,0-.01,0,0,0-.01-.01-.02-.01,0-.03-.02-.06-.04l-.05-.03Z"/>
      <path class="cls-5" d="M12.35,15.61s-.05-.03-.06-.03c0,0-.02,0-.02,0,0,0,0,0,0,.01,0,0,0,0,0,0,0,0,0,0,0,0,0-.01.02-.03.02-.04,0,0,.02-.03.02-.04.01-.02.02-.04.04-.04,0,0,.03,0,.05,0,.02.01.03.03.04.07.05,0,.08-.01.11-.02.03,0,.03-.02.04-.02,0,0,0,0,0,0,0,0,0,0,0,0,0,0,0,0,0,0l-.02.03s-.01.02-.02.03c-.01,0-.03.01-.06.01-.02,0-.05,0-.05,0,0,0,0,0,0,0v.02s-.02,0-.01,0h0s.05.03.06.03c0,0,.02,0,.02,0,0,0,0,0,0-.01,0,0,0,0,0,0,0,0,0,0,0,0,0,.02-.02.04-.02.04,0,0-.01.02-.02.03,0,0,0,0,0,0,0,0,0,0,0,0,0,0,0,0,0-.01,0,0,0-.01-.01-.02-.01,0-.03-.02-.06-.04l-.05-.03ZM12.39,15.59s0,0,0,0c0,0,.01-.01.01-.02,0-.01,0-.02,0-.02,0-.01,0-.03-.03-.04-.04-.02-.07,0-.08.01,0,0,0,.01,0,.02,0,0,0,0,0,0l.08.05Z"/>
      <path class="cls-5" d="M12.56,15.38s0,0,0,0l.03.04s.01.01.01.01c0,0,.01,0,.02,0h0s0,0,0,0c0,0,0,0,0,0,0,0-.01.02-.02.03,0,0,0,.02-.02.03,0,0,0,0,0,0,0,0,0,0,0,0,0,0,0,0,0,0,0-.01,0-.02-.01-.04l-.13-.17s0-.01,0-.01c0,0,0,0,.01,0,.02,0,.16.02.21.03.03,0,.04,0,.04,0,0,0,0,0,0-.01,0,0,0,0,0,0,0,0,0,0,0,.01,0,0-.02.03-.03.05,0,0,0,0,0,0,0,0,0,0,0,0,0,0,0,0,0,0h-.07s0-.01,0,0l-.04.06ZM12.58,15.31s0,0,0,0h-.08s0-.02,0-.01c0,0,0,0,0,0l.05.06s0,0,0,0l.03-.05Z"/>
      <path class="cls-5" d="M12.71,15.21s-.07,0-.1-.01c-.02-.01-.05-.04-.06-.08,0-.03,0-.06.02-.1,0-.02.02-.03.03-.04,0,0,.02-.02.02-.03,0,0,0,0,0,0,0,0,0,0,.01.01,0,0,.02.01.03.02,0,0,0,0,0,0,0,0,0,0,0,0,0,0-.02,0-.03,0-.01,0-.03.02-.05.05-.01.02-.02.04-.01.06,0,.03.03.05.06.07.07.04.13,0,.15-.03.01-.02.02-.04.01-.06,0,0,0-.02-.01-.02,0,0,0,0,0,0,0,0,0,0,0,0,0,0,.03.02.03.03,0,0,0,0,0,.01,0,.01-.01.04-.02.05-.02.04-.05.07-.09.08"/>
      <path class="cls-5" d="M12.7,14.85l-.02.04s-.01.02,0,.03c0,0,0,0,0,.01,0,0,0,0,0,0,0,0,0,0,0,0,0,0-.03-.02-.03-.02,0,0,0,0,0,0,0,0,0,0,.01-.01,0,0,.01-.02.02-.03l.06-.11s0-.02,0-.02c0,0,0,0,0,0,0,0,0,0,0,0,0,0,.02.02.03.02,0,0,0,0,0,0,0,0,0,0,0,0h0s-.02,0-.03.02l-.02.03.11.07s.05.03.06.03c0,0,.02,0,.02,0,0,0,0,0,0-.01,0,0,0,0,0,0,0,0,0,0,0,0-.01.02-.02.04-.03.04,0,0-.01.02-.02.04,0,0,0,0,0,0,0,0,0,0,0,0,0,0,0,0,0-.01,0,0,0-.01-.01-.02-.01,0-.03-.02-.06-.04l-.11-.07Z"/>
      <path class="cls-5" d="M12.86,14.72s-.05-.03-.06-.03c0,0-.02,0-.02,0,0,0,0,0,0,0,0,0,0,0,0,0,0,0,0,0,0,0,0-.01.02-.03.02-.04,0,0,.01-.02.02-.03,0,0,0,0,0,0,0,0,0,0,0,0,0,0,0,0,0,0,0,0,0,.01,0,.02,0,0,.02.01.06.03l.05.03s.05.03.06.03c0,0,.01,0,.02,0,0,0,0,0,0-.01,0,0,0,0,0,0,0,0,0,0,0,0-.01.02-.02.04-.03.04,0,0-.01.02-.02.04,0,0,0,0,0,0,0,0,0,0,0,0,0,0,0,0,0-.01,0,0,0-.01,0-.02-.01,0-.03-.02-.06-.04l-.05-.03Z"/>
      <path class="cls-5" d="M13.04,14.65s-.07,0-.1-.01c-.02-.01-.05-.04-.06-.08,0-.03,0-.06.02-.1,0-.02.02-.03.03-.04,0,0,.02-.02.02-.03,0,0,0,0,0,0,0,0,0,0,.01.01,0,0,.02.01.03.02,0,0,0,0,0,0,0,0,0,0,0,0,0,0-.02,0-.03,0-.01,0-.03.02-.05.05-.01.02-.02.04-.01.06,0,.03.03.05.06.07.07.04.13,0,.15-.03.01-.02.02-.04.01-.06,0,0,0-.02-.01-.02,0,0,0,0,0,0,0,0,0,0,0,0,0,0,.03.02.03.03,0,0,0,0,0,.01,0,.01-.01.04-.02.05-.02.04-.05.07-.09.08"/>
      <path class="cls-5" d="M13.07,14.36s-.05-.03-.06-.03c0,0-.02,0-.02,0,0,0,0,0,0,.01,0,0,0,0,0,0,0,0,0,0,0,0,0,0,0-.02.01-.02,0,0,0-.01.01-.02,0,0,.04-.06.04-.07,0,0,0-.01,0-.01,0,0,0,0,0,0,0,0,0,0,0,0,0,0,0,0,.02.01,0,0,.01,0,.02.01,0,0,0,0,0,0,0,0,0,0,0,0,0,0,0,0-.01,0,0,0-.01,0-.02.01,0,0-.02.03-.02.04,0,0,0,0,0,0l.07.04s0,0,0,0c0,0,.02-.04.02-.04,0,0,0-.01,0-.02,0,0,0,0,0,0,0,0,0,0,0,0,0,0,0,0,.02.01,0,0,.02.01.02.01,0,0,0,0,0,0,0,0,0,0,0,0,0,0,0,0-.01,0,0,0-.01,0-.02,0,0,0-.02.03-.02.04,0,0,0,0,0,0h.02s.03.03.04.04c.02.01.03,0,.04-.02,0,0,.01-.02.01-.03,0,0,0-.02-.01-.02,0,0,0,0,0,0,0,0,0,0,0,0,0,0,.02.02.03.02,0,0,0,0,0,.02-.01.02-.02.04-.03.05,0,.01-.01.02-.02.03,0,0,0,0,0,.02,0,0,0,.01-.01.02,0,0,0,0,0,0,0,0,0,0,0,0,0,0,0,0,0-.01,0,0,0-.01-.01-.02-.01,0-.03-.02-.06-.04l-.05-.03Z"/>
      <path class="cls-5" d="M13.14,14.05s0,0,0,0c0,0,0,0,.01,0h.2s-.11-.15-.11-.15c0,0,0,0,0,0,0,0,0,0,.01,0l.18.07s.03,0,.04,0c0,0,.01-.01.01-.02,0,0,0,0,0,0,0,0,0,0,0,0,0,0-.03.05-.03.06,0,0,0,0,0,0,0,0,0,0,0,0,0,0,0,0-.01,0l-.13-.05h0s.09.13.09.13c0,.01.01.02,0,.02,0,0,0,0-.02,0-.02,0-.07,0-.08,0,0,0-.05,0-.08,0h0s.1.08.1.08c0,0,0,0,.01,0,0,0,0,0,.01,0,0,0,0,0,0-.01,0,0,0,0,0,0,0,0,0,0,0,0,0,.01-.01.02-.02.03,0,0,0,.02-.01.03,0,0,0,0,0,0,0,0,0,0,0,0,0,0,0,0,0,0,0,0,0-.02-.02-.02l-.16-.13Z"/>
      <path class="cls-5" d="M13.46,13.81s-.02,0-.03-.01c0,0-.09,0-.11,0-.01,0-.03,0-.03,0,0,0,0,0-.01,0,0,0,0,0,0,0,0,0,0,0,0,0,0,0,.02-.03.02-.03,0,0,0-.02.02-.03,0,0,0,0,0,0,0,0,0,0,0,0,0,0,0,0,0,0,0,0,0,0,.01,0,.01,0,.1,0,.11,0,0,0-.05-.08-.05-.09,0,0,0-.01-.01-.01,0,0,0,0-.01,0,0,0,0,0,0,0,0,0,0,0,0,0,0,0,.01-.02.02-.03,0,0,.01-.02.02-.03,0,0,0,0,0,0,0,0,0,0,0,0,0,0,0,0,0,.01,0,0,0,.01,0,.02,0,.02.05.09.06.1,0,0,.02.01.03.02h.02s.02.02.03.03c0,0,.02,0,.02,0,0,0,0,0,0-.01,0,0,0,0,0,0,0,0,0,0,0,0-.01.02-.02.03-.03.04,0,0-.01.02-.02.04,0,0,0,0,0,0,0,0,0,0,0,0,0,0,0,0,0-.01,0,0,0-.01-.01-.02-.01,0-.02-.01-.03-.02h-.02Z"/>
      <path class="cls-5" d="M13.6,13.56s0,0,0,0l.03.04s.01.01.01.01c0,0,.01,0,.02,0h0s0,0,0,0c0,0,0,0,0,0,0,0-.01.02-.02.03,0,0,0,.02-.02.03,0,0,0,0,0,0,0,0,0,0,0,0,0,0,0,0,0,0,0-.01,0-.02-.01-.04l-.13-.17s0-.01,0-.01c0,0,0,0,.01,0,.02,0,.16.02.21.03.03,0,.04,0,.04,0,0,0,0,0,0-.01,0,0,0,0,0,0,0,0,0,0,0,.01,0,.01-.02.03-.03.05,0,0,0,0,0,0,0,0,0,0,0,0,0,0,0,0,0,0h-.07s0-.01,0,0l-.04.06ZM13.62,13.5s0,0,0,0h-.08s0-.02,0-.01c0,0,0,0,0,0l.05.06s0,0,0,0l.03-.05Z"/>
      <path class="cls-5" d="M13.66,13.33s-.05-.03-.06-.03c0,0-.02,0-.02,0,0,0,0,0,0,.01,0,0,0,0,0,0,0,0,0,0,0,0,0-.01.02-.03.02-.04,0,0,.02-.03.02-.04.01-.02.02-.04.04-.04,0,0,.03,0,.05,0,.02.01.03.03.04.07.05,0,.08-.01.11-.02.03,0,.03-.02.04-.02,0,0,0,0,0,0,0,0,0,0,0,0,0,0,0,0,0,0l-.02.03s-.01.02-.02.03c-.01,0-.03.01-.06.01-.02,0-.05,0-.05,0,0,0,0,0,0,0v.02s-.02,0-.01,0h0s.05.03.06.03c0,0,.02,0,.02,0,0,0,0,0,0-.01,0,0,0,0,0,0,0,0,0,0,0,0,0,.02-.02.04-.02.04,0,0-.01.02-.02.03,0,0,0,0,0,0,0,0,0,0,0,0,0,0,0,0,0-.01,0,0,0-.01-.01-.02-.01,0-.03-.02-.06-.04l-.05-.03ZM13.7,13.31s0,0,0,0c0,0,.01-.01.01-.02,0-.01,0-.02,0-.02,0-.01,0-.03-.03-.04-.04-.02-.07,0-.08.01,0,0,0,.01,0,.02,0,0,0,0,0,0l.08.05Z"/>
      <path class="cls-5" d="M13.74,13.04l-.02.04s-.01.02,0,.03c0,0,0,0,0,.01,0,0,0,0,0,0,0,0,0,0,0,0,0,0-.03-.02-.03-.02,0,0,0,0,0,0,0,0,0,0,.01-.01,0,0,.01-.02.02-.03l.06-.11s0-.02,0-.02c0,0,0,0,0,0,0,0,0,0,0,0,0,0,.02.02.03.02,0,0,0,0,0,0,0,0,0,0,0,0h0s-.02,0-.03.02l-.02.03.11.07s.05.03.06.03c0,0,.02,0,.02,0,0,0,0,0,0-.01,0,0,0,0,0,0,0,0,0,0,0,0-.01.02-.02.04-.03.04,0,0-.01.02-.02.04,0,0,0,0,0,0,0,0,0,0,0,0,0,0,0,0,0-.01,0,0,0-.01-.01-.02-.01,0-.03-.02-.06-.04l-.11-.07Z"/>
      <path class="cls-5" d="M20.84,12.97s.05-.03.06-.04c0,0,.01-.01,0-.02,0,0,0,0,0-.01,0,0,0,0,0,0,0,0,0,0,0,0,0,.02.02.03.02.04,0,0,.02.03.02.04.01.02.02.04.02.06,0,.01,0,.03-.03.04-.02.01-.05.02-.09,0-.02.04-.03.08-.04.11,0,.03,0,.04,0,.04,0,0,0,0,0,0,0,0,0,0,0,0,0,0,0,0,0,0l-.02-.03s-.01-.02-.01-.03c0-.02,0-.03.02-.06,0-.02.02-.05.02-.05,0,0,0,0,0,0v-.03s-.02,0-.02,0h0s-.05.03-.06.04c0,0-.01.01,0,.02,0,0,0,.01,0,.01,0,0,0,0,0,0,0,0,0,0,0,0,0-.02-.02-.04-.02-.04,0,0-.01-.02-.02-.03,0,0,0,0,0,0,0,0,0,0,0,0,0,0,0,0,0,0,0,0,.01,0,.02,0,.01,0,.04-.02.06-.03l.05-.03ZM20.84,13.02s0,0,0,0c0,0,0,.02,0,.02,0,.01.01.01.02.02.01,0,.03,0,.05,0,.04-.02.04-.06.03-.07,0,0,0-.01-.01-.01,0,0,0,0,0,0l-.09.05Z"/>
      <path class="cls-5" d="M20.98,13.2s.05-.03.06-.04c0,0,.01-.01,0-.02,0,0,0,0,0-.01,0,0,0,0,0,0,0,0,0,0,0,0,0,0,0,.02.01.02,0,0,0,.01.01.02,0,0,.04.07.04.07,0,0,0,0,0,.01,0,0,0,0,0,0,0,0,0,0,0,0,0,0,0,0-.02,0,0,0-.02,0-.02,0,0,0,0,0,0,0,0,0,0,0,0,0,0,0,0,0,0,0,0,0,0,0,0-.03,0,0-.02-.04-.02-.04,0,0,0,0,0,0l-.07.04s0,0,0,0c0,0,.02.04.03.05,0,0,0,.01.01.01,0,0,0,0,0,0,0,0,0,0,0,0,0,0,0,0-.02,0,0,0-.02,0-.02.01,0,0,0,0,0,0,0,0,0,0,0,0,0,0,0,0,0,0,0,0,0-.01,0-.02,0,0-.02-.03-.02-.04,0,0,0,0,0,0h-.02s-.04.03-.04.04c-.02.01-.02.02,0,.05,0,0,.01.02.02.02,0,0,.02,0,.03,0,0,0,0,0,0,0,0,0,0,0,0,0,0,0-.03.01-.03.01,0,0-.01,0-.02-.01-.01-.02-.02-.04-.03-.05,0-.01-.01-.02-.02-.03,0,0,0,0,0-.02,0,0,0-.01-.01-.02,0,0,0,0,0,0,0,0,0,0,0,0,0,0,0,0,0,0,0,0,.01,0,.02,0,.01,0,.04-.02.06-.03l.05-.03Z"/>
      <path class="cls-5" d="M20.95,13.44s0,0,0-.01c.02,0,.03-.02.04-.02,0,0,0,0,0,0,0,0,0,0,0,0,0,0,0,0-.01.01-.02.02-.02.04,0,.06.02.03.04.03.06.02.01,0,.02-.02.03-.05v-.02s.02-.07.05-.08c.03-.02.07,0,.09.03.01.02.02.03.02.04,0,0,0,0,0,0,0,0-.01,0-.03.02,0,0,0,0-.01,0,0,0,0,0,0,0,0,0,.01,0,.01-.02,0,0,0-.02,0-.04-.01-.02-.03-.03-.05-.02-.01,0-.02.02-.02.05h0c0,.06-.02.09-.05.1-.02,0-.04.02-.07,0-.02,0-.03-.02-.04-.04,0-.02-.02-.03-.02-.05"/>
      <path class="cls-5" d="M21.18,13.54s.05-.03.06-.04c0,0,.01-.01,0-.02,0,0,0,0,0-.01,0,0,0,0,0,0,0,0,0,0,0,0,0,.02.02.03.02.04,0,.01.02.03.03.04.02.04.02.06.02.06,0,0-.01.03-.03.03-.04.02-.09.01-.11-.03,0,0,0,0,0,0,0,0,0,0,0,0,0,0,0,0,0,0,0,.02.04.03.07.01,0,0,.03-.02.03-.04,0-.02,0-.03,0-.04,0,0,0,0,0-.01,0,0,0,0,0,0l-.11.07s-.05.03-.06.04c0,0-.01.01,0,.02,0,0,0,.01,0,.02,0,0,0,0,0,0,0,0,0,0,0,0-.01-.02-.02-.04-.03-.04,0,0-.02-.02-.02-.04,0,0,0,0,0,0,0,0,0,0,0,0,0,0,0,0,0,0,0,0,.01,0,.02,0,.01,0,.04-.02.06-.03l.05-.03Z"/>
      <path class="cls-5" d="M21.28,13.71s.05-.03.06-.04c0,0,.01-.01,0-.02,0,0,0,0,0-.01,0,0,0,0,0,0,0,0,0,0,0,0,0,0,0,.02.01.02,0,0,0,.01.01.02,0,0,.04.07.04.07,0,0,0,0,0,.01,0,0,0,0,0,0,0,0,0,0,0,0,0,0,0,0-.02,0,0,0-.02,0-.02,0,0,0,0,0,0,0,0,0,0,0,0,0,0,0,0,0,0,0,0,0,0,0,0-.03,0,0-.02-.04-.02-.04,0,0,0,0,0,0l-.07.04s0,0,0,0c0,0,.02.04.03.05,0,0,0,.01.01.01,0,0,0,0,0,0,0,0,0,0,0,0,0,0,0,0-.02,0,0,0-.02,0-.02.01,0,0,0,0,0,0,0,0,0,0,0,0,0,0,0,0,0,0,0,0,0-.01,0-.02,0,0-.02-.03-.02-.04,0,0,0,0,0,0h-.02s-.04.03-.04.04c-.02.01-.02.02,0,.05,0,0,.01.02.02.02,0,0,.02,0,.03,0,0,0,0,0,0,0,0,0,0,0,0,0,0,0-.03.01-.03.01,0,0-.01,0-.02-.01-.01-.02-.02-.04-.03-.05,0-.01-.01-.02-.02-.03,0,0,0,0,0-.02,0,0,0-.01-.01-.02,0,0,0,0,0,0,0,0,0,0,0,0,0,0,0,0,0,0,0,0,.01,0,.02,0,.01,0,.04-.02.06-.03l.05-.03Z"/>
      <path class="cls-5" d="M21.28,13.95s.04-.07.06-.08c.02-.01.06-.03.1-.01.03,0,.06.03.08.07.01.02.02.03.02.04,0,.01,0,.02.01.03,0,0,0,0,0,0,0,0,0,0-.02,0,0,0-.03.01-.03.02,0,0,0,0,0,0,0,0,0,0,0,0,0,0,.02-.02.02-.03,0-.02,0-.04-.02-.07-.01-.02-.03-.04-.05-.04-.03,0-.06,0-.09.02-.07.04-.07.11-.05.15.01.03.03.04.05.04,0,0,.02,0,.02,0,0,0,0,0,0,0,0,0,0,0,0,0,0,0-.03.01-.04.02,0,0,0,0-.01,0-.01,0-.03-.03-.04-.05-.02-.04-.03-.08-.03-.12"/>
      <path class="cls-5" d="M21.61,14.12l-.03-.04s-.02-.02-.02-.02c0,0-.01,0-.01,0,0,0,0,0,0,0,0,0,0,0,0,0,0,0,.03-.01.04-.01,0,0,0,0,0,0,0,0,0,0,0,.01,0,0,0,.02.02.03l.07.11s0,.01.01.02c0,0,0,0,0,0,0,0,0,0,0,0,0,0-.03.01-.03.02,0,0,0,0,0,0,0,0,0,0,0,0h0s.01-.02,0-.05l-.02-.04-.12.07s-.05.03-.06.04c0,0-.01.01,0,.02,0,0,0,.01,0,.02,0,0,0,0,0,0,0,0,0,0,0,0-.01-.02-.02-.04-.03-.05,0,0-.02-.02-.02-.04,0,0,0,0,0,0,0,0,0,0,0,0,0,0,0,0,0,0,0,0,.01,0,.02,0,.01,0,.04-.02.06-.03l.12-.07Z"/>
      <path class="cls-5" d="M21.65,14.33s.05-.03.06-.04c0,0,.01-.01,0-.02,0,0,0,0,0-.01,0,0,0,0,0,0,0,0,0,0,0,0,0,0,0,.02.01.02,0,0,0,.01.01.02,0,0,.04.07.04.07,0,0,0,0,0,.01,0,0,0,0,0,0,0,0,0,0,0,0,0,0,0,0-.02,0,0,0-.02,0-.02,0,0,0,0,0,0,0,0,0,0,0,0,0,0,0,0,0,0,0,0,0,0,0,0-.03,0,0-.02-.04-.02-.04,0,0,0,0,0,0l-.07.04s0,0,0,0c0,0,.02.04.03.05,0,0,0,.01.01.01,0,0,0,0,0,0,0,0,0,0,0,0,0,0,0,0-.02,0,0,0-.02,0-.02.01,0,0,0,0,0,0,0,0,0,0,0,0,0,0,0,0,0,0,0,0,0-.01,0-.02,0,0-.02-.03-.02-.04,0,0,0,0,0,0h-.02s-.04.03-.04.04c-.02.01-.02.02,0,.05,0,0,.01.02.02.02,0,0,.02,0,.03,0,0,0,0,0,0,0,0,0,0,0,0,0,0,0-.03.01-.03.01,0,0-.01,0-.02-.01-.01-.02-.02-.04-.03-.05,0-.01-.01-.02-.02-.03,0,0,0,0,0-.02,0,0,0-.01-.01-.02,0,0,0,0,0,0,0,0,0,0,0,0,0,0,0,0,0,0,0,0,.01,0,.02,0,.01,0,.04-.02.06-.03l.05-.03Z"/>
      <path class="cls-5" d="M21.75,14.5s.05-.03.06-.04c0,0,.01-.01,0-.02,0,0,0,0,0-.01,0,0,0,0,0,0,0,0,0,0,0,0,0,.02.02.03.02.04,0,0,.02.03.03.04.02.04.05.08.03.13,0,.02-.02.05-.06.07-.04.02-.07.02-.1.02-.02,0-.06-.02-.09-.08,0-.01-.01-.02-.02-.03,0-.01-.01-.02-.01-.03,0,0,0,0,0-.02,0,0,0-.01-.01-.02,0,0,0,0,0,0,0,0,0,0,0,0,0,0,0,0,0,0,0,0,.01,0,.02,0,.01,0,.04-.02.06-.03l.05-.03ZM21.74,14.55s-.05.03-.06.03c0,0-.02.01-.02.02,0,0,0,.02.01.04.02.03.03.05.06.05.03,0,.06,0,.09-.02.04-.02.05-.05.06-.07,0-.04,0-.08-.02-.1,0,0-.01-.02-.01-.02,0,0,0,0,0,0,0,0-.03.02-.06.03l-.04.02Z"/>
      <path class="cls-5" d="M21.96,14.85s.05-.03.06-.04c0,0,.01-.01,0-.02,0,0,0,0,0-.01,0,0,0,0,0,0,0,0,0,0,0,0,0,.02.02.03.02.04,0,.01.02.02.02.03.03.05,0,.08,0,.09-.02.01-.05,0-.07,0,0,.03,0,.07-.03.09-.03.02-.08.01-.11-.04,0,0,0-.01-.01-.02,0,0,0-.02-.01-.02,0,0,0,0,0-.02,0,0,0-.01-.01-.02,0,0,0,0,0,0,0,0,0,0,0,0,0,0,0,0,0,0,0,0,.01,0,.02,0,.01,0,.04-.02.06-.03l.05-.03ZM21.97,14.89s0,0,0,0c0,0,0,0,0,.01,0,0,.01.01.02.02.01,0,.02,0,.04,0,.02-.01.04-.04.02-.06,0,0,0,0,0,0,0,0,0,0,0,0l-.07.04ZM21.97,14.94s0-.02,0-.03c0,0,0,0,0-.01,0,0,0,0,0,0l-.07.04s-.02.01-.02.03c0,0,0,.02,0,.02,0,.01.03.03.06.01.02-.01.04-.03.04-.06"/>
      <path class="cls-5" d="M22.03,15.11s.02-.02.03-.02c0,0,.04-.08.05-.1,0-.01,0-.02,0-.03,0,0,0-.01,0-.01,0,0,0,0,0,0,0,0,0,0,0,0,0,0,.01.03.02.04,0,0,.01.02.02.03,0,0,0,0,0,0,0,0,0,0,0,0,0,0,0,0,0,0s0,0,0,0c0,0-.05.09-.06.1,0,0,.09,0,.1,0,0,0,.01,0,.02,0,0,0,0,0,0-.01,0,0,0,0,0,0,0,0,0,0,0,0,0,0,.01.02.01.03,0,0,.02.02.02.03,0,0,0,0,0,0,0,0,0,0,0,0,0,0,0,0-.01-.01,0,0-.01,0-.02,0-.02,0-.11,0-.12,0-.01,0-.02,0-.03.01h-.02s-.02.02-.03.03c0,0-.01.01,0,.02,0,0,0,.01,0,.01,0,0,0,0,0,0,0,0,0,0,0,0-.01-.02-.02-.04-.02-.04,0,0-.02-.02-.02-.04,0,0,0,0,0,0,0,0,0,0,0,0,0,0,0,0,0,0,0,0,.01,0,.02,0,.01,0,.02-.01.03-.02h.02Z"/>
      <path class="cls-5" d="M22.18,15.37s0,0,0,0h-.05s-.02.01-.02.01c0,0,0,0,0,.02h0s0,0,0,0c0,0,0,0,0,0,0,0-.01-.02-.02-.03,0,0-.01-.02-.02-.03,0,0,0,0,0,0,0,0,0,0,0,0,0,0,0,0,0,0,0,.01.02.01.04,0l.22-.03s.01,0,.02,0c0,0,0,0,0,.01-.01.02-.1.13-.13.17-.02.03-.02.04-.02.04,0,0,0,0,0,.01,0,0,0,0,0,0,0,0,0,0-.01-.01,0-.01-.02-.03-.03-.05,0,0,0,0,0,0,0,0,0,0,0,0,0,0,0,0,0,0l.05-.06s0,0,0,0l-.04-.06ZM22.23,15.42s0,0,0,0l.05-.07s0,0,0,0,0,0,0,0h-.09s0,.02,0,.02l.03.05Z"/>
      <path class="cls-5" d="M22.33,15.6s-.06.03-.06.04c0,0,0,.02.01.04,0,.02.02.03.03.03,0,0,.02,0,.02,0,0,0,0,0,0,0,0,0,0,0,0,0,0,0-.03.01-.04.02,0,0,0,0-.02-.01-.01-.02-.02-.04-.03-.05,0-.01-.01-.02-.02-.04,0,0,0,0,0-.02,0,0,0-.01-.01-.02,0,0,0,0,0,0,0,0,0,0,0,0,0,0,0,0,0,0,0,0,.01,0,.02,0,.01,0,.04-.02.06-.03l.05-.03s.05-.03.06-.04c0,0,.01-.01,0-.02,0,0,0,0,0,0,0,0,0,0,0,0,0,0,0,0,0,0,0,.01.02.03.02.04,0,0,.02.03.02.04,0,0,0,0,0,0,0,0,0,0,0,0,0,0,0,0,0-.01,0,0-.01,0-.02,0,0,0-.02,0-.06.04l-.05.03Z"/>
      <path class="cls-5" d="M22.43,15.77s-.06.03-.06.04c0,0,0,.02.01.04,0,.02.02.03.03.03,0,0,.02,0,.02,0,0,0,0,0,0,0,0,0,0,0,0,0,0,0-.03.01-.04.02,0,0,0,0-.02-.01-.01-.02-.02-.04-.03-.05,0-.01-.01-.02-.02-.04,0,0,0,0,0-.02,0,0,0-.01-.01-.02,0,0,0,0,0,0,0,0,0,0,0,0,0,0,0,0,0,0,0,0,.01,0,.02,0,.01,0,.04-.02.06-.03l.05-.03s.05-.03.06-.04c0,0,.01-.01,0-.02,0,0,0,0,0,0,0,0,0,0,0,0,0,0,0,0,0,0,0,.01.02.03.02.04,0,0,.02.03.02.04,0,0,0,0,0,0,0,0,0,0,0,0,0,0,0,0,0-.01,0,0-.01,0-.02,0,0,0-.02,0-.06.04l-.05.03Z"/>
      <path class="cls-5" d="M22.7,15.93s0,0,.01,0c0,0,0,0,0,.01l-.11.17.21-.02s0,0,.01,0c0,0,0,0,0,.01l-.16.13s-.02.02-.02.03c0,0,0,.02,0,.02,0,0,0,0,0,0,0,0,0,0,0,0,0,0-.03-.05-.03-.06,0,0,0,0,0-.01,0,0,0,0,0,0,0,0,0,0,.01,0l.11-.09h0s-.16.01-.16.01c-.02,0-.02,0-.02,0,0,0,0,0,0-.02,0-.01.04-.06.05-.07,0,0,.03-.04.04-.07h0s-.12.05-.12.05c0,0,0,0-.01,0,0,0,0,0,0,.01,0,0,0,0,0,.01,0,0,0,0,0,0,0,0,0,0,0,0,0-.01-.01-.03-.02-.03,0,0-.01-.02-.02-.03,0,0,0,0,0,0,0,0,0,0,0,0,0,0,0,0,0,0,0,0,.02,0,.03,0l.2-.08Z"/>
      <path class="cls-5" d="M22.79,16.27s.05-.03.06-.04c0,0,.01-.01,0-.02,0,0,0,0,0-.01,0,0,0,0,0,0,0,0,0,0,0,0,0,0,0,.02.01.02,0,0,0,.01.01.02,0,0,.04.07.04.07,0,0,0,0,0,.01,0,0,0,0,0,0,0,0,0,0,0,0,0,0,0,0-.02,0,0,0-.02,0-.02,0,0,0,0,0,0,0,0,0,0,0,0,0,0,0,0,0,0,0,0,0,0,0,0-.03,0,0-.02-.04-.02-.04,0,0,0,0,0,0l-.07.04s0,0,0,0c0,0,.02.04.03.05,0,0,0,.01.01.01,0,0,0,0,0,0,0,0,0,0,0,0,0,0,0,0-.02,0,0,0-.02,0-.02.01,0,0,0,0,0,0,0,0,0,0,0,0,0,0,0,0,0,0,0,0,0-.01,0-.02,0,0-.02-.03-.02-.04,0,0,0,0,0,0h-.02s-.04.03-.04.04c-.02.01-.02.02,0,.05,0,0,.01.02.02.02,0,0,.02,0,.03,0,0,0,0,0,0,0,0,0,0,0,0,0,0,0-.03.01-.03.01,0,0-.01,0-.02-.01-.01-.02-.02-.04-.03-.05,0-.01-.01-.02-.02-.03,0,0,0,0,0-.02,0,0,0-.01-.01-.02,0,0,0,0,0,0,0,0,0,0,0,0,0,0,0,0,0,0,0,0,.01,0,.02,0,.01,0,.04-.02.06-.03l.05-.03Z"/>
      <path class="cls-5" d="M22.81,16.52s-.03.02-.03.03c0,0,0,.01,0,.02,0,0,0,0,0,0,0,0,0,0,0,0-.01-.02-.02-.03-.02-.04,0,0-.01-.02-.02-.03,0,0,0,0,0,0,0,0,0,0,0,0,0,0,0,0,0,.01,0,0,.02,0,.04-.01l.17-.1s.01,0,.01,0c0,0,0,0,0,.02,0,0-.02.08-.04.14,0,.03-.03.09-.03.1h0s.13-.08.13-.08c.02-.01.02-.02.02-.02,0,0,0-.01,0-.02,0,0,0,0,0,0,0,0,0,0,0,0,0,.01.02.03.02.04,0,0,0,.01.02.03,0,0,0,0,0,0,0,0,0,0,0,0,0,0,0,0,0,0,0,0-.01,0-.03,0l-.18.1s0,0-.01,0c0,0,0,0,0-.01,0-.03.02-.09.03-.13.01-.05.03-.1.03-.11h0s-.12.07-.12.07Z"/>
      <path class="cls-5" d="M23.05,16.85s0,0,0,0h-.05s-.02.01-.02.01c0,0,0,0,0,.02h0s0,0,0,0c0,0,0,0,0,0,0,0-.01-.02-.02-.03,0,0-.01-.02-.02-.03,0,0,0,0,0,0,0,0,0,0,0,0,0,0,0,0,0,0,0,.01.02.01.04,0l.22-.03s.01,0,.02,0c0,0,0,0,0,.01-.01.02-.1.13-.13.17-.02.03-.02.04-.02.04,0,0,0,0,0,.01,0,0,0,0,0,0,0,0,0,0-.01-.01,0-.01-.02-.03-.03-.05,0,0,0,0,0,0,0,0,0,0,0,0,0,0,0,0,0,0l.05-.06s0,0,0,0l-.04-.06ZM23.1,16.9s0,0,0,0l.05-.07s0,0,0,0c0,0,0,0,0,0h-.09s0,.02,0,.02l.03.05Z"/>
      <path class="cls-5" d="M23.15,17.09s-.03.02-.03.03c0,0,0,.01,0,.02,0,0,0,0,0,0,0,0,0,0,0,0-.01-.02-.02-.03-.02-.04,0,0-.01-.02-.02-.03,0,0,0,0,0,0,0,0,0,0,0,0,0,0,0,0,0,.01,0,0,.02,0,.04-.01l.17-.1s.01,0,.01,0c0,0,0,0,0,.02,0,0-.02.08-.04.14,0,.03-.03.09-.03.1h0s.13-.08.13-.08c.02-.01.02-.02.02-.02,0,0,0-.01,0-.02,0,0,0,0,0,0,0,0,0,0,0,0,0,.01.02.03.02.04,0,0,0,.01.02.03,0,0,0,0,0,0,0,0,0,0,0,0,0,0,0,0,0,0,0,0-.01,0-.03,0l-.18.1s0,0-.01,0c0,0,0,0,0-.01,0-.03.02-.09.03-.13.01-.05.03-.1.03-.11h0s-.12.07-.12.07Z"/>
      <path class="cls-5" d="M23.39,17.29s.05-.03.06-.04c0,0,.01-.01,0-.02,0,0,0,0,0-.01,0,0,0,0,0,0,0,0,0,0,0,0,0,.02.02.03.02.04,0,0,.02.03.03.04.02.04.05.08.03.13,0,.02-.02.05-.06.07-.04.02-.07.02-.1.02-.02,0-.06-.02-.09-.08,0-.01-.01-.02-.02-.03,0-.01-.01-.02-.01-.03,0,0,0,0,0-.02,0,0,0-.01-.01-.02,0,0,0,0,0,0,0,0,0,0,0,0,0,0,0,0,0,0,0,0,.01,0,.02,0,.01,0,.04-.02.06-.03l.05-.03ZM23.38,17.34s-.05.03-.06.03c0,0-.02.01-.02.02,0,0,0,.02.01.04.02.03.03.05.06.05.03,0,.06,0,.09-.02.04-.02.05-.05.06-.07,0-.04,0-.08-.02-.1,0,0-.01-.02-.01-.02,0,0,0,0,0,0,0,0-.03.02-.06.03l-.04.02Z"/>
      <path class="cls-5" d="M23.6,17.64s.05-.03.06-.04c0,0,.01-.01.01-.02,0,0,0,0,0-.01,0,0,0,0,0,0,0,0,0,0,0,0,0,.01.02.03.02.04,0,0,.02.02.02.03,0,0,0,0,0,0,0,0,0,0,0,0s0,0,0,0c0,0-.01,0-.02,0,0,0-.02,0-.06.04l-.05.03s-.05.03-.06.04c0,0-.01.01,0,.02,0,0,0,.01,0,.02,0,0,0,0,0,0,0,0,0,0,0,0-.01-.02-.02-.04-.03-.04,0,0-.02-.02-.02-.04,0,0,0,0,0,0,0,0,0,0,0,0,0,0,0,0,0,0,0,0,.01,0,.02,0,.01,0,.04-.02.06-.04l.05-.03Z"/>
      <path class="cls-5" d="M23.59,17.84s-.03.02-.03.03c0,0,0,.01,0,.02,0,0,0,0,0,0,0,0,0,0,0,0-.01-.02-.02-.03-.02-.04,0,0-.01-.02-.02-.03,0,0,0,0,0,0,0,0,0,0,0,0,0,0,0,0,0,.01,0,0,.02,0,.04-.01l.17-.1s.01,0,.01,0c0,0,0,0,0,.02,0,0-.02.08-.04.14,0,.03-.03.09-.03.1h0s.13-.08.13-.08c.02-.01.02-.02.02-.02,0,0,0-.01,0-.02,0,0,0,0,0,0,0,0,0,0,0,0,0,.01.02.03.02.04,0,0,0,.01.02.03,0,0,0,0,0,0,0,0,0,0,0,0,0,0,0,0,0,0,0,0-.01,0-.03,0l-.18.1s0,0-.01,0c0,0,0,0,0-.01,0-.03.02-.09.03-.13.01-.05.03-.1.03-.11h0s-.12.07-.12.07Z"/>
      <path class="cls-5" d="M23.83,18.17s0,0,0,0h-.05s-.02.01-.02.01c0,0,0,0,0,.02h0s0,0,0,0c0,0,0,0,0,0,0,0-.01-.02-.02-.03,0,0-.01-.02-.02-.03,0,0,0,0,0,0,0,0,0,0,0,0,0,0,0,0,0,0,0,.01.02.01.04,0l.22-.03s.01,0,.02,0c0,0,0,0,0,.01-.01.02-.1.13-.13.17-.02.03-.02.04-.02.04,0,0,0,0,0,.01,0,0,0,0,0,0,0,0,0,0-.01-.01,0-.01-.02-.03-.03-.05,0,0,0,0,0,0,0,0,0,0,0,0,0,0,0,0,0,0l.05-.06s0,0,0,0l-.04-.06ZM23.88,18.22s0,0,0,0l.05-.07s0,0,0,0c0,0,0,0,0,0h-.09s0,.02,0,.02l.03.05Z"/>
      <path class="cls-5" d="M23.98,18.4s-.06.03-.06.04c0,0,0,.02.01.04,0,.02.02.03.03.03,0,0,.02,0,.02,0,0,0,0,0,0,0,0,0,0,0,0,0,0,0-.03.01-.04.02,0,0,0,0-.02-.01-.01-.02-.02-.04-.03-.05,0-.01-.01-.02-.02-.04,0,0,0,0,0-.02,0,0,0-.01-.01-.02,0,0,0,0,0,0,0,0,0,0,0,0,0,0,0,0,0,0,0,0,.01,0,.02,0,.01,0,.04-.02.06-.03l.05-.03s.05-.03.06-.04c0,0,.01-.01,0-.02,0,0,0,0,0,0,0,0,0,0,0,0,0,0,0,0,0,0,0,.01.02.03.02.04,0,0,.02.03.02.04,0,0,0,0,0,0,0,0,0,0,0,0,0,0,0,0,0-.01,0,0-.01,0-.02,0,0,0-.02,0-.06.04l-.05.03Z"/>
      <path class="cls-5" d="M24.09,18.58s-.06.03-.06.04c0,0,0,.02.01.04,0,.02.02.03.03.03,0,0,.02,0,.02,0,0,0,0,0,0,0,0,0,0,0,0,0,0,0-.03.01-.04.02,0,0,0,0-.02-.01-.01-.02-.02-.04-.03-.05,0-.01-.01-.02-.02-.04,0,0,0,0,0-.02,0,0,0-.01-.01-.02,0,0,0,0,0,0,0,0,0,0,0,0,0,0,0,0,0,0,0,0,.01,0,.02,0,.01,0,.04-.02.06-.03l.05-.03s.05-.03.06-.04c0,0,.01-.01,0-.02,0,0,0,0,0,0,0,0,0,0,0,0,0,0,0,0,0,0,0,.01.02.03.02.04,0,0,.02.03.02.04,0,0,0,0,0,0,0,0,0,0,0,0,0,0,0,0,0-.01,0,0-.01,0-.02,0,0,0-.02,0-.06.04l-.05.03Z"/>
      <path class="cls-5" d="M24.36,18.77l-.03-.04s-.02-.02-.02-.02c0,0-.01,0-.01,0,0,0,0,0,0,0,0,0,0,0,0,0,0,0,.03-.01.04-.01,0,0,0,0,0,0,0,0,0,0,0,.01,0,0,0,.02.02.03l.07.11s0,.01.01.02c0,0,0,0,0,0,0,0,0,0,0,0,0,0-.03.01-.03.02,0,0,0,0,0,0,0,0,0,0,0,0h0s.01-.02,0-.05l-.02-.04-.12.07s-.05.03-.06.04c0,0-.01.01,0,.02,0,0,0,.01,0,.02,0,0,0,0,0,0,0,0,0,0,0,0-.01-.02-.02-.04-.03-.05,0,0-.02-.02-.02-.04,0,0,0,0,0,0,0,0,0,0,0,0,0,0,0,0,0,0,0,0,.01,0,.02,0,.01,0,.04-.02.06-.03l.12-.07Z"/>
      <path class="cls-5" d="M24.39,18.97s.05-.03.06-.04c0,0,.01-.01.01-.02,0,0,0,0,0-.01,0,0,0,0,0,0,0,0,0,0,0,0,0,.01.02.03.02.04,0,0,.01.02.02.03,0,0,0,0,0,0,0,0,0,0,0,0s0,0,0,0c0,0-.01,0-.02,0,0,0-.02,0-.06.04l-.05.03s-.05.03-.06.04c0,0-.01.01,0,.02,0,0,0,.01,0,.02,0,0,0,0,0,0,0,0,0,0,0,0-.01-.02-.02-.04-.03-.04,0,0-.02-.02-.02-.04,0,0,0,0,0,0,0,0,0,0,0,0,0,0,0,0,0,0,0,0,.01,0,.02,0,.01,0,.04-.02.06-.04l.05-.03Z"/>
      <path class="cls-5" d="M24.55,19.07s0,0,.01,0c0,0,0,0,0,.01l-.11.17.21-.02s0,0,.01,0c0,0,0,0,0,.01l-.16.13s-.02.02-.02.03c0,0,0,.02,0,.02,0,0,0,0,0,0,0,0,0,0,0,0,0,0-.03-.05-.03-.06,0,0,0,0,0-.01,0,0,0,0,0,0,0,0,0,0,.01,0l.11-.09h0s-.16.01-.16.01c-.02,0-.02,0-.02,0,0,0,0,0,0-.02,0-.01.04-.06.05-.07,0,0,.03-.04.04-.07h0s-.12.05-.12.05c0,0,0,0-.01,0,0,0,0,0,0,.01,0,0,0,0,0,.01,0,0,0,0,0,0,0,0,0,0,0,0,0-.01-.01-.03-.02-.03,0,0-.01-.02-.02-.03,0,0,0,0,0,0,0,0,0,0,0,0,0,0,0,0,0,0,0,0,.02,0,.03,0l.2-.08Z"/>
      <path class="cls-5" d="M24.65,19.41s.05-.03.06-.04c0,0,.01-.01,0-.02,0,0,0,0,0-.01,0,0,0,0,0,0,0,0,0,0,0,0,0,0,0,.02.01.02,0,0,0,.01.01.02,0,0,.04.07.04.07,0,0,0,0,0,.01,0,0,0,0,0,0,0,0,0,0,0,0,0,0,0,0-.02,0,0,0-.02,0-.02,0,0,0,0,0,0,0,0,0,0,0,0,0,0,0,0,0,0,0,0,0,0,0,0-.03,0,0-.02-.04-.02-.04,0,0,0,0,0,0l-.07.04s0,0,0,0c0,0,.02.04.03.05,0,0,0,.01.01.01,0,0,0,0,0,0,0,0,0,0,0,0,0,0,0,0-.02,0,0,0-.02,0-.02.01,0,0,0,0,0,0,0,0,0,0,0,0,0,0,0,0,0,0,0,0,0-.01,0-.02,0,0-.02-.03-.02-.04,0,0,0,0,0,0h-.02s-.04.03-.04.04c-.02.01-.02.02,0,.05,0,0,.01.02.02.02,0,0,.02,0,.03,0,0,0,0,0,0,0,0,0,0,0,0,0,0,0-.03.01-.03.01,0,0-.01,0-.02-.01-.01-.02-.02-.04-.03-.05,0-.01-.01-.02-.02-.03,0,0,0,0,0-.02,0,0,0-.01-.01-.02,0,0,0,0,0,0,0,0,0,0,0,0,0,0,0,0,0,0,0,0,.01,0,.02,0,.01,0,.04-.02.06-.03l.05-.03Z"/>
      <path class="cls-5" d="M24.61,19.65s0,0,0-.01c.02,0,.03-.02.04-.02,0,0,0,0,0,0,0,0,0,0,0,0,0,0,0,0-.01.01-.02.02-.02.04,0,.06.02.03.04.03.06.02.01,0,.02-.02.03-.05v-.02s.02-.07.05-.08c.03-.02.07,0,.09.03.01.02.02.03.02.04,0,0,0,0,0,0,0,0-.01,0-.03.02,0,0,0,0-.01,0,0,0,0,0,0,0,0,0,.01,0,.01-.02,0,0,0-.02,0-.04-.01-.02-.03-.03-.05-.02-.01,0-.02.02-.02.05h0c0,.06-.02.09-.05.1-.02,0-.04.02-.07,0-.02,0-.03-.02-.04-.04,0-.02-.02-.03-.02-.05"/>
    </g>
  </g>
</svg>