<?xml version="1.0" encoding="UTF-8"?><svg xmlns="http://www.w3.org/2000/svg" viewBox="0 0 1182.13 1299"><defs><style>.cls-1{fill:#040000;}</style></defs><g id="_图层_1"><path d="M90.94,1150V149.25h189.02v38.26h-148.15v924.23h148.15v38.26H90.94Z"/><path d="M1091.76,148.87v999.9h-187.58v-38.23h147.02V187.1h-147.02v-38.23h187.58Z"/></g><g id="_图层_2"><path class="cls-1" d="M807.48,960.1c-26.43-27.62-65.62-46.46-77.29-81.15-5.69-6.01-6.06-13.11-3.35-19.08-.14-4.69.16-9.63.99-14.89,1-6.31,4.2-10.29,8.33-12.35-1.52-11.96-.83-23.87-2.18-35.79-1.48-13.13-5.4-26.24-7.7-39.25-.06-.36-.06-.7-.11-1.06-3.77-2.18-6.85-5.84-8.36-11.25-11.39-40.76-19.22-82.35-28.88-123.52-2.3-1.5-4.39-3.63-6.09-6.51-9.85-16.63-13.23-45.66,1.87-60.47,2.71-2.65,5.73-4.46,8.92-5.81,1.62-5.39,5.81-9.92,13.15-11.55,5.3-1.17,13.5-1.39,22.02-1.93-.72-5.05.37-10.32,3.13-14.51-3.1-11.93-5.56-24.06-7.92-36.04-2-3.02-3.16-6.57-3.03-10.34.05-1.27.19-2.51.3-3.75-4.74-25.16-7.8-50.58-9.06-76.14-.36,0-.72,0-1.08,0-34.43.16-68.78,2.68-103.19,3.41-32.91.69-65.62.48-98.46,3.01-11.71.9-23.75,1.93-35.55,1.35-1.28,16.25-5.37,32.06-8.73,48.05-3.61,17.16-6.86,34.3-12.17,50.95-.12,3.18-.23,6.38-.25,9.63-.03,4.59.24,9.91,1.14,15.12,1.85,1.55,3.28,3.48,4.37,5.6.54.23,1.06.47,1.47.64.29.12,1.88.7,2.65,1.13.14.08.27.16.4.25,1.01.63,3.23,2.39,4.13,3.18.24.22.46.44.67.69.37.43.78.92,1.18,1.4,1.87.07,3.55.42,5.13.89,9.9,1.27,15.2,9.1,15.87,17.41,1.09-.28,2.26-1.09,3.05-2.82,1.6-3.53,5.19-6.29,8.28-8.95,1.4-1.2,3.72-1.34,5.62-1.96-2.28-.35-4.56-.92-6.85-1-4.37-.16-8.75,0-13.12-.09-.84-.02-1.67-.63-2.5-.96.9-.64,1.98-1.98,2.66-1.8,7.99,2.09,15.91-5.16,23.88-.15.22.14,1.04-.19,1.18-.49.77-1.62,1.41-3.3,2.1-4.96,1.72,1.49,3.25,3.34,5.22,4.33,1.32.67,3.25.12,4.91.12-.13-6.04,6.22-3.33,7.56-5.21,3.63-5.13,6.46,2.29,10.83-.59,4.49-2.95,11.95-2.17,18.01-1.7,5.7.45,12.47-7.36,17.22,1.85.09.17,1.49-.02,1.95-.42,1.47-1.26,2.78-2.71,4.16-4.08,1.03,1.69,1.73,3.88,3.22,4.88.82.55,4.3-.84,4.31-1.42.08-3.2,2.41-5.39,4.23-3.7,3.76,3.49,6.27,3.24,9.57-.11.42-.43,2.45.73,3.73,1.15-.62,1.52-.8,3.62-1.93,4.46-4.99,3.72-11.22,2.02-16.75,2.67-14.08,1.64-28.28.66-42.58,2.57-11.69,1.57-23.32,7.54-35.67,3.69-.41-.13-1.21,1.01-1.83,1.56.8.42,1.57.91,2.4,1.25s1.72.55,2.58.81c-.72.71-1.33,1.81-2.18,2.06q-7.46,2.18-15.41,10.94c-.51.57-1.73.44-2.56.8-3.15,1.35-4.68,3.47-5.29,6.59,1.42,1.98,2.51,4.41,3.12,7.37,4.52,21.92-2.41,43.88-9.47,64.54-.73,2.13-1.46,4.26-2.19,6.4.02.39.05.78.04,1.18-.22,19.86-5.17,38.47-10.65,57.43-1.23,4.27-2.35,8.58-3.43,12.89.98,2.16,1.61,4.62,1.76,7.4,1.26,23.77-1.76,50.01-10.91,72.14-4.11,9.94-10.14,17.82-17.42,25.64-5.95,6.39-13.35,11.37-13.23,20.74.14,10.24-6.27,16.29-13.92,18.16-.59,1.15-1.29,2.24-2.09,3.26-.03.23-.04.45-.08.69-2.62,16-15.82,25.7-29.29,33.3-.38,2.04-.97,4.06-1.92,5.98-2.16,4.38-5.1,8.35-8.55,11.93-.51,2.13-1.46,4.33-2.99,6.54-7.78,11.23-20.67,18.26-33.35,23.91-10.11,11.48-23.57,17.16-38.14,18.19-.01,2.36-.42,4.67-1.31,6.78,98.65.05,197.29.06,295.94.06,74.74,0,149.48-.01,224.22-.02.52-1.84,1.11-3.62,1.66-5.44-3.49-.61-6.98-2.38-10.13-5.67ZM723.89,522.79c1.09.17,2.12.72,2.56.9-.95,2.28-1.29,3.09-1.62,3.89-.64-.83-1.57-1.59-1.82-2.53-.18-.67.68-2.29.88-2.26ZM711.97,522.31c.68-.07,1.46.87,2.61,1.62-1.54.46-2.78,1.06-4.03,1.1-.72.02-1.47-.88-2.21-1.37,1.21-.49,2.39-1.22,3.63-1.36ZM699.23,521.98c.97.5,2.12,1.1,3.27,1.69-.74.49-1.52,1.43-2.2,1.36-1.24-.14-2.42-.87-3.63-1.36.74-.49,1.47-.97,2.56-1.69ZM686.02,522.76c1.27-.11,2.56-.14,3.82,0,.14.02.13,1.23.23,2.23-1.52-.12-2.8-.17-4.04-.41-.13-.02-.07-1.82,0-1.82ZM467.29,524.58c-.24.05-.63-.59-.96-.91.63-.35,1.27-.7,1.88-1.04.39.39.71.71,1.04,1.04-.65.32-1.27.76-1.96.91ZM577.05,414.43c.94.25,1.7,1.18,2.53,1.82-.8.33-1.6.67-3.83,1.59-.19-.45-.64-1.49-1.08-2.52.8-.33,1.71-1.07,2.38-.9ZM539.47,414.38c3.98-1.08,8.74,2,12.17-2.26,3.66,2.65,6.98,2.79,10.58-.49.52-.47,3.75,2.03,5.8,3.21-19.17,1.17-29.45,1.76-35.22,2.07,2.19-.95,4.38-1.92,6.66-2.53ZM496.95,417.24l1.04,1.04c-.34.61-.69,1.24-1.04,1.88-.32-.32-.97-.72-.91-.96.15-.69.59-1.31.91-1.96ZM496.45,516.92c.69.15,1.31.59,1.96.91-.32.32-.65.65-1.04,1.04-.61-.34-1.24-.69-1.88-1.04.32-.32.72-.97.96-.91ZM485.28,516.38c.32.32.65.65,1.04,1.04-.34.61-.69,1.24-1.04,1.88-.32-.32-.97-.72-.91-.96.15-.69.59-1.31.91-1.96ZM493.93,531c-1.39-.28-2.88-.04-6.72-.04,5.13-.2,9.01-.32,12.01-.39-1.62.57-3.34.83-5.29.44ZM500.16,530.18c-14.19.56-16.51.17-18.79-.22,2.64-1.01,5.76-1.44,7.82-3.15,2.96-2.45,4.48-.63,7.2.18,3.09.92,6.84-4.26,10.76-.38-2.4.98-4.6,2.55-6.99,3.58ZM507.77,529.84c-.21-.17-.41-.33-.62-.5l1.3-1.3c.46.57.92,1.13,1.38,1.7-.73.04-1.37.07-2.06.1ZM508.19,518.87c-.39-.39-.71-.71-1.04-1.04.65-.32,1.27-.76,1.96-.91.24-.05.63.59.96.91-.63.35-1.27.7-1.88,1.04ZM507.7,429.86c-.05-.24.59-.63.91-.96.35.63.7,1.27,1.04,1.88l-1.04,1.04c-.32-.65-.76-1.27-.91-1.96ZM523.09,519.2c-1.29-.09-2.55-.57-3.82-.9.37-.64.7-1.8,1.1-1.82,1.28-.08,2.58.27,4.16.5-.67,1.07-1.09,2.25-1.44,2.22ZM524.65,417.24c-1.69,0-2.69,0-3.27-.01.48.01,1.15.03,1.85.08.5.03.95.88,1.42,1.35-.73.5-1.44,1.4-2.19,1.43-3.77.15-7.56.17-11.33.01-1.26-.05-2.5-.76-3.74-1.17,1.5-.56,2.97-1.31,4.53-1.63,1.36-.28,2.82-.06,4.24-.06,9.71-.97,10.92-1.94,12.13-2.92.68.91,1.37,1.81,2.05,2.72-3.98.2-4.83.2-5.68.2ZM534.85,519.29c-.32-.65-.76-1.27-.91-1.96-.05-.24.59-.63.91-.96.35.63.7,1.27,1.04,1.88-.39.39-.71.71-1.04,1.04ZM532.79,420.15c-.81-.41-1.54-.96-2.31-1.45.49-.48.88-1.17,1.47-1.42.07-.03.15-.06.22-.09,35.3-1.27,35.11-.08,34.79-.07-4.35.14-8.75-.24-13.06.24-3.52.39-8.46,3.66-10.11,2.34-4.47-3.58-7.43,2.26-11.01.45ZM552.35,525.13c-.35-.63-.7-1.27-1.04-1.88.39-.39.71-.71,1.04-1.04.32.65.76,1.27.91,1.96.05.24-.59.63-.91.96ZM566.83,525.03c-1.29-.09-2.55-.57-3.82-.9.37-.64.7-1.8,1.1-1.82,1.28-.08,2.58.27,4.16.5-.67,1.07-1.09,2.25-1.44,2.22ZM575.78,525.03c-.4-.02-.74-1.18-1.1-1.82,1.27-.33,2.53-.81,3.82-.9.35-.02.77,1.15,1.44,2.22-1.58.23-2.88.57-4.16.5ZM583.14,519.24c-6.76.09-13.53.05-20.3.05-1.93,0-3.93.31-5.79-.06-4.84-.96-10.17,2.36-14.61-1.71,5.24-1.36,10.43-3.05,15.75-3.82,1.31-.19,2.2,1.89,5.24.94,5.35-1.68,11.78,4.29,17.52-1.1.13-.12,1.51.9,2.13,1.55.91.94,1.66,2.03,2.48,3.05-.81.38-1.61,1.09-2.42,1.1ZM692.3,787.54c.32.32.65.65,1.04,1.04-.34.61-.69,1.24-1.04,1.88-.32-.32-.97-.72-.91-.96.15-.69.59-1.31.91-1.96ZM680.64,787.54c.32.65.76,1.27.91,1.96.05.24-.59.63-.91.96-.32-.65-.76-1.27-.91-1.96-.05-.24.59-.63.91-.96ZM680.64,417.24c.35.63.7,1.27,1.04,1.88-.39.39-.71.71-1.04,1.04-.32-.65-.76-1.27-.91-1.96-.05-.24.59-.63.91-.96ZM675.31,522.76c.24-.05.63.59.96.91-.65.32-1.27.76-1.96.91-.24.05-.63-.59-.96-.91.65-.32,1.27-.76,1.96-.91ZM645.15,406.13c.69.15,1.31.59,1.96.91-.32.32-.65.65-1.04,1.04-.61-.34-1.24-.69-1.88-1.04.32-.32.72-.96.96-.91ZM626.67,412.93c2.19.97,4.24,2.23,5.86,3.12,0,1.61.19,2.28-.04,2.51-.51.5-1.42,1.23-1.85,1.06-2.01-.8-4.12-1.62-5.78-2.94-.82-.66-.75-2.43-1.08-3.71.97-.03,2.09-.39,2.89-.04ZM619.41,405.58c.32.32.97.72.91.96-.15.69-.59,1.31-.91,1.96l-1.04-1.04c.34-.61.69-1.24,1.04-1.88ZM619.25,417.24c.46.57.92,1.13,1.38,1.7-.85-.28-1.59-.55-2.27-.8l.89-.89ZM614.17,412l3.78,5.24h-1.81c-3.04-1.34-3.64-2.24-3.89-3.22-.12-.48,1.24-1.33,1.92-2.02ZM608.17,406l1.04,1.04c-.65.32-1.27.76-1.96.91-.24.05-.63-.59-.96-.91.63-.35,1.27-.7,1.88-1.04ZM601.45,411.87c.64.37,1.8.7,1.82,1.1.08,1.27-.27,2.56-.5,4.16-1.07-.67-2.24-1.09-2.22-1.44.09-1.29.57-2.55.9-3.82ZM587.42,525.73c-.19-.45-.64-1.49-1.08-2.52.8-.33,1.71-1.07,2.38-.9.94.25,1.7,1.18,2.53,1.82-.8.33-1.6.67-3.83,1.59ZM607.74,775.88c.35.63.7,1.27,1.04,1.88l-1.04,1.04c-.32-.65-.76-1.27-.91-1.96-.05-.24.59-.63.91-.96ZM564.43,709.24c.39.39.71.71,1.04,1.04-.65.32-1.27.76-1.96.91-.24.05-.63-.59-.96-.91.63-.35,1.27-.7,1.88-1.04ZM565.05,734.02c-.39.39-.71.71-1.04,1.04-.32-.65-.76-1.27-.91-1.96-.05-.24.59-.63.91-.96.35.63.7,1.27,1.04,1.88ZM546.93,554.7c.39.39.71.71,1.04,1.04-.65.32-1.27.76-1.96.91-.24.05-.63-.59-.96-.91.63-.35,1.27-.7,1.88-1.04ZM547.43,567.9c.05.24-.59.63-.91.96-.32-.65-.76-1.27-.91-1.96-.05-.24.59-.63.91-.96.32.65.76,1.27.91,1.96ZM529.75,548.52c1.39-.24,2.9.18,4.26-.12,2.7-.58,4.64-5.55,8.1-1.32.23.28.1.94.02,1.4-.94,5.64-5.34,1.81-7.95,2.89-1.43,0-2.88.16-4.28-.07-.81-.13-1.53-.87-2.28-1.34.7-.51,1.36-1.32,2.13-1.45ZM541.68,561.11c-.83.64-1.59,1.57-2.53,1.82-.67.18-1.58-.56-2.38-.9.44-1.03.88-2.06,1.08-2.52,2.23.93,3.03,1.26,3.83,1.59ZM535.35,566.49c.24-.05.63.59.96.91-.65.32-1.27.76-1.96.91-.24.05-.63-.59-.96-.91.65-.32,1.27-.76,1.96-.91ZM532.02,557.8c-.19-.45-.64-1.49-1.08-2.52.8-.33,1.71-1.07,2.38-.9.94.25,1.7,1.18,2.53,1.82-.8.33-1.6.67-3.83,1.59ZM523.14,554.32c2.41,2.33,4.75,4.73,7.12,7.12-4.38-3.3-6.97-5.29-8.54-6.54.03-.21.06-.42.08-.61,0-.04,1.1-.21,1.34.03ZM529.64,562.36c-.83.32-2.16.93-2.53.59-1.93-1.79-3.73-3.75-5.31-5.85-.32-.42-.24-1.14-.13-1.86,8.37,6.51,8.25,7.01,7.97,7.12ZM520.85,552.07c.46.61.61,1.45.88,2.21h-.78c-1.41-1.15-1.64-1.44-1.86-1.73.61-.18,1.63-.66,1.77-.48ZM514.86,560.54c.39.39.71.71,1.04,1.04-.65.32-1.27.76-1.96.91-.24.05-.63-.59-.96-.91.63-.35,1.27-.7,1.88-1.04ZM508.61,775.88c.35.63.7,1.27,1.04,1.88l-1.04,1.04c-.32-.65-.76-1.27-.91-1.96-.05-.24.59-.63.91-.96ZM502.78,560.11c.32.65.76,1.27.91,1.96.05.24-.59.63-.91.96-.35-.63-.7-1.27-1.04-1.88.39-.39.71-.71,1.04-1.04ZM453.21,819.62c.35.63.7,1.27,1.04,1.88-.39.39-.71.71-1.04,1.04-.32-.65-.76-1.27-.91-1.96-.05-.24.59-.63.91-.96ZM451.02,826.3c1.22.65,1.99,2.13,3.16,2.94.83.58,2.01.65,3.04.95-1.19-7.78,11.55-1.64,9.89-9.89,5.04,2.79,9.67-1.91,14.73-.76,4.46,1.02,12.02-.89,17.1-1.67,5.23-.81,10.21-7.16,16.17-1.32.42.41,3.19-1.24,4.62-2.29,2.49-1.82,9.88,1.98,7.43-4.76-1.85-5.08-5.16,1.18-8,1.37-.48.03-1.08.19-1.43-.02-9.37-5.53-18.71,1.96-28.06.03-.5.22-.91.39-1.34.56.45.27.9.6,1.34.82-1.54.68-3.09,1.35-4.61,2.02.68-.87,1.34-1.63,1.99-2.34-3.9,1.46-4.91,1.06-5.89.63,1.91-.57,3.8-1.34,5.75-1.6.28-.04.58.06.88.2,4.46-4.59,7.87-5.96,8.51-10.58.88-6.44,6.57-12.62,13.05-15.71,3.83-1.83,5.31-3.95,7.05-7.56,1.65-3.43,3.28-4.61-1.83-4.35,0-1-.4-2.24.04-2.97,1.9-3.13,4.15-6.04,6.06-9.17.68-1.11,1.33-3.56.98-3.77-7.1-4.41.15-8.28.77-12.09.44-2.7,3.84-5.52,6.99-1.16,4.53-3.12,10.32,1.97,13.31-.38,4.43-3.48,9.09-1.59,13.37-3.22,3.82-1.45,7.78,1.51,6.32,4.5-2.84,5.79-5.4,11.52-5.68,18.05-5.57.87-4.68,3.49-3.24,7.89,1.01,3.06-1.53.93-3.15.49-5.39-1.45-6.8-7.12-11.06-9.66-.86-.51-1.29-1.76-1.93-2.66-.34,1.32-.83,2.61-.99,3.95-.17,1.44-.04,2.91-.04,4.36l5.83,5.83c-4.77.88-6.72-1.06-5.83-5.83-5.65,4.17-5.61,4.14-2.06,8.19.87,1,1.39,2.3,2.06,3.47.27.2.47.35.72.53.25-.28.48-.5.62-.46,1.7.52,3.33,1.27,5.05,1.97-2.23-.58-4-1.02-5.44-1.35,4.42,3.31,4.14,4.05,3.8,4.76-1.58-1.37-3.16-2.73-4.74-4.1.2-.2.42-.48.63-.73-3.39-.76-4.72-.86-4.81-.58-1.61,5.16-3.2,6.5-7.5,1.67-3.13-3.52-4.12,1.7-5.93,2.94-3.37,2.3-3.63,3.74,1.41,4.24,5.35.53,11.21,1.55,10.51,9.47-.05.58,1.93,1.87,3.02,1.94,3.85.24,7.73-.03,11.59.12,7.61.3,10.61,4.05,7.45,10.9-1.54,3.35-2.86,6.16-.68,8.9,1.66,2.08.75,2.57-.23,4.3-1.74,3.07-2.91,6.57-3.71,10.02-.63,2.73.69,7.21-.72,8.17-2.38,1.62-6.23,1.35-9.47,1.37-18.85.1-37.71.26-56.55-.09-5.16-.1-7.25,1.1-6.33,6.36.12.69-.78,1.56-1.21,2.35-4.55-4.97-8.81-1.08-13.55-.4-2.39.34-5.63-5.26-8.49-8.18,1.79-.34,3.59-.67,5.38-1.01-.38-1.65-.28-3.71-1.24-4.88-2.45-2.97-5.45-5.48-8.05-8.34-.61-.67-.49-2-.71-3.02,1.31.18,2.79.03,3.89.61ZM559.52,789.86c-1.58.23-2.88.57-4.16.5-.4-.02-.74-1.18-1.1-1.82,1.27-.33,2.53-.81,3.82-.9.35-.02.77,1.15,1.44,2.22ZM553.8,783.17c-.65.32-1.27.76-1.96.91-.24.05-.63-.59-.96-.91.63-.35,1.27-.7,1.88-1.04l1.04,1.04ZM545.72,776.48c.24-.2.51-.41.7-.6.62,1.05,1.25,2.11,1.77,2.99-.99-.96-1.8-1.74-2.47-2.39ZM546.76,781.46c-.57-1.41-1.23-2.79-1.63-4.25-.04-.14.14-.34.38-.55,1.97,3.39,1.63,4.12,1.25,4.8ZM535.76,789.5c.05.24-.59.63-.91.96-.32-.65-.76-1.27-.91-1.96-.05-.24.59-.63.91-.96.32.65.76,1.27.91,1.96ZM533.39,850.23c-.32.32-.72.97-.96.91-.69-.15-1.31-.59-1.96-.91l1.04-1.04c.61.34,1.24.69,1.88,1.04ZM524.18,850.7c-.8.33-1.6.67-3.83,1.59-.19-.45-.64-1.49-1.08-2.52.8-.33,1.71-1.07,2.38-.9.94.25,1.7,1.18,2.53,1.82ZM509.52,850.73c.05.24-.59.63-.91.96-.32-.65-.76-1.27-.91-1.96-.05-.24.59-.63.91-.96.32.65.76,1.27.91,1.96ZM447.96,837.82c.46.61.61,1.45.88,2.21-1.75-.58-2.2-1.15-2.65-1.73.61-.18,1.63-.66,1.77-.48ZM448.6,850.47c-.71-.41-1.34-.79-1.92-1.15.18-.18.36-.36.54-.54.46.57.92,1.13,1.38,1.7ZM442.73,842.99c3.38-.28,3.36,2.11,3.13,4.42-.03.32-.31.62-.65.96-2.78-1.89-3.77-3.11-4.76-4.34.76-.36,1.49-.98,2.28-1.04ZM442.58,855.64c-.34.61-.69,1.24-1.04,1.88-.32-.32-.96-.72-.91-.96.15-.69.59-1.31.91-1.96.32.32.65.65,1.04,1.04ZM417.48,869.28c.68-.07,1.46.87,2.2,1.36-1.15.59-2.3,1.18-3.28,1.69-1.08-.72-1.82-1.2-2.56-1.69,1.21-.49,2.39-1.22,3.63-1.36ZM419.68,882.41c-.5.37-1.03.76-1.58,1.16-2.51-.38-3.26-.94-4-1.51,1.19-.4,2.37-1.05,3.58-1.11.64-.03,1.34.94,2.01,1.46ZM409.5,886.06c2.28.95,3.09,1.29,3.89,1.62-.83.64-1.59,1.57-2.53,1.82-.67.18-2.29-.68-2.26-.88.17-1.09.72-2.12.9-2.56ZM405.82,892.61c.68-.07,1.46.87,2.61,1.62-1.54.46-2.78,1.07-4.03,1.1-.72.02-1.47-.88-2.21-1.37,1.21-.49,2.39-1.22,3.63-1.36ZM398.64,898.48c.41-.38,2.28.8,3.49,1.27-1.37,1.23-2.74,2.47-4.24,3.82-.28-.17-1.49-.78-1.45-.9.59-1.49,1.1-3.16,2.2-4.19ZM402.18,911.46c-.65.32-1.27.76-1.96.91-.24.05-.63-.59-.96-.91.63-.35,1.27-.7,1.88-1.04l1.04,1.04ZM391.48,904.72c.69.15,1.31.59,1.96.91-.32.32-.65.65-1.04,1.04-.61-.34-1.24-.69-1.88-1.04.32-.32.72-.96.96-.91ZM390.56,918.96c.25-1.06.79-2.04,1.73-4.31-.41,2.68-.77,4.84-1.1,6.61-.23.13-.47.26-.67.4,0-.9-.16-1.85.04-2.71ZM389.07,921.67c.45.91.91,1.84,1.45,2.93-.86,3.83-1.44,4.56-2.02,5.26-1.18-1.37-3.49-2.97-3.26-4.04.33-1.58,2.47-2.78,3.83-4.15ZM339.5,953.74c-.32-.32-.97-.72-.91-.96.15-.69.59-1.31.91-1.96.32.32.65.65,1.04,1.04-.34.61-.69,1.24-1.04,1.88ZM356.17,953.65c-2.23-.29-4.51-.73-6.56-1.6-1.07-.46-1.7-1.95-2.53-2.98,1.29-.39,2.73-1.33,3.84-1.04,2.12.56,4.08,1.79,6.07,2.82.39.2.73.51,1.08.82-.65,1.35-1.32,2.06-1.89,1.98ZM471.49,953.57c-.74,0-2.3-2.33-2.1-2.61.87-1.22,2.14-2.37,3.51-2.89.49-.19,1.68,1.47,3.73,3.38-2.4,1.07-3.77,2.11-5.14,2.12ZM485.28,953.74c-.49-1.21-1.22-2.39-1.36-3.63-.07-.68.87-1.46,1.36-2.2.59,1.15,1.18,2.3,1.69,3.27-.72,1.08-1.2,1.82-1.69,2.56ZM483.83,888.14c.63-.35,1.27-.7,1.88-1.04.39.39.71.71,1.04,1.04-.65.32-1.27.76-1.96.91-.24.05-.63-.59-.96-.91ZM496.95,950.83c-.35-.63-.7-1.27-1.04-1.88.39-.39.71-.71,1.04-1.04.32.65.76,1.27.91,1.96.05.24-.59.63-.91.96ZM508.15,953.28c-.33-.8-1.07-1.71-.9-2.38.25-.94,1.18-1.7,1.82-2.53.33.8.67,1.6,1.6,3.83-.45.19-1.49.64-2.52,1.08ZM562.43,880.78c-3.67-4.78-7.16.52-10.75.15-3.84-.39-7.76.16-11.6-.22-1.33-.13-2.51-1.81-3.76-2.78-.97-.97-1.94-1.94-2.92-2.92l-2.92-2.92c-9.56-7.19-9.51-7.16-17.55,3.22-.93,1.2-2.58,2.1-4.07,2.54-3.9,1.17-7.88,2.62-11.88,2.78-3.04.12-5.52,3.88-9.53.58-1.6-1.31-6.77,1.28-10.06,2.7-1.17.5-1.97,2.73-2.24,4.29-1.99,11.37-3.31,22.82-7.45,33.8-2.38,6.33-2.92,13.35-4.28,20.06.91,0,1.85-.16,2.71.04,1.05.25,2.04.79,4.31,1.73-2.04-.3-3.67-.46-4.97-.51,1.8,1.35.82,1.78.02,1.51-.55-.18-.94-.82-1.32-1.51-4.09.15-3.76,1.84-3.16,3.54.38,1.09,1.25,2.01,1.89,3.01-1.62-.03-3.28.17-4.84-.14-2.14-.42-4.2-1.22-6.29-1.85-.22,2.58-.88,8.1-3.22,5.43-4.42-5.05-8.57.65-13.02-1.95-3.94-2.31-10.3-.86-15.55-.48-7.81.56-16.08-2.46-23.34,2.81-.31.23-.96-.06-1.42.04-5.32,1.15-9.9-1.34-14.66-2.93-3.56,4.81-8.74,2.82-13.21,2.74-2.86-.05-5.7-1.63-8.54-2.61.79-4.63,4.23-3.07,6.27-2.83,2.21.26,3.91,3.89,6.56.04.64-.92,3.64-.22,5.56-.26-.21-1.66-1.16-3.83-.45-4.85.86-1.23,3.34-1.2,4.72-2.24,2.62-1.97,8.12-2.66,11.15-1.03,1,.54,2.05,1,3.08,1.5.22-.88.93-2.14.59-2.57-6.25-7.97-1.18-13.73,3.85-19.27,3.57-3.93,8.17-7.32,2.82-13.04,1.12-.74,2.3-2.17,3.34-2.07,1.77.16,4.42,6.07,4.6-.97.14-5.56,3.23-9.36,6.64-13.28,1.35-1.55,1.47-4.18,2.15-6.32-.28-.03-.52-.06-.77-.09,4.73-1.57,8.32-2.12,4.07-7.33-1.91-2.34-.14-5.5,4.24-8.04,11.98-6.95,25.8-7.9,37.97-13.71,7.43,5.15,14.78-.8,22.3-.24,12.04.9,24.2.06,36.3.29,11.72.23,23-1.5,34.13-5.29,2.37-.81,7.39,3.11,8.47,2.06,6.74-6.56,8.87.85,12.38,3.63.3.24-.74,2.92-1.73,3.89-2.54,2.51-2.36.05-2.92-1.67-.34-1.05-1.46-2.17-2.5-2.6-3.19-1.33-4.7,6.37-8.5,1.87-3.61-4.29-4.97,3.83-8.09,1.21-1.62,2.24-3.13,2.98-5.26.32-.49-.62-2.5-.03-3.82,0,.43,1.03.69,2.18,1.33,3.05.86,1.15,2.17,1.97,3,3.14,1.53,2.14,2.65,1.85,4.2-.05,1.1-1.35,3.64-3.46,3.91-3.24,2.53,2.07.94,3.82-.59,5.91-.77,1.05-.63,3.63.16,4.77,1.63,2.35,4.02,4.16,6.01,6.28.48.51.62,1.34.92,2.03-.85.29-2.28,1.03-2.46.81ZM569.09,788.29c.91-.18,1.82-.39,2.73-.53-.29,2.26-1.26,2.36-2.23,2.37-.16,0-.33-1.19-.5-1.83ZM563.76,871.85c-.4-1.19-1.05-2.37-1.11-3.58-.03-.64.94-1.34,1.46-2.01.5.68,1.02,1.39,1.62,2.2-1.14,2.29-1.56,2.85-1.97,3.38ZM565.47,864.84c1.36-1.32,2.72-2.65,3.58-3.48-.78,1.73-1.4,3.08-1.95,4.25-.54-.26-1.09-.5-1.63-.77ZM578.72,868.83c-.69,1.17-3.02,2.61-3.81,2.23-2.28-1.1-4.19-2.97-6.27-4.52,4.94-4.01,7.83-3.39,10.54-2.32.44.17.28,3.34-.47,4.61ZM584.54,790.33c-3.44-1.41-7.07-2.52-10.25-4.38-1.36-.8-1.8-3.17-2.87-5.24.32,2.25.46,3.94.47,5.25-3.94-3.79-5.37-3.42-6.52-2.62-3.38,2.33-3.28-2.03-5.16-2.48,1.25-.69,2.47-1.44,3.76-2.04,1.62-.75,3.25-1.63,4.97-1.95,1.58-.3,3.7-.52,4.85.28,2.34,1.63,4.52,3.74,6.14,6.09,1.6,2.3,6.17,2.78,4.6,7.11ZM581.61,778.7c-.4-.02-.74-1.18-1.1-1.82,1.27-.33,2.53-.81,3.82-.9.35-.02.77,1.15,1.44,2.22-1.58.23-2.88.57-4.16.5ZM588.09,784.54c-.72.02-1.47-.88-2.21-1.37,1.21-.49,2.39-1.22,3.63-1.36.68-.07,1.46.87,2.61,1.62-1.54.46-2.78,1.07-4.03,1.1ZM592.17,776.88c1.27-.33,2.53-.81,3.82-.9.35-.02.77,1.15,1.44,2.22-1.58.23-2.88.57-4.16.5-.4-.02-.74-1.18-1.1-1.82ZM595.62,792.91c-.33-1.27-.81-2.53-.9-3.82-.02-.35,1.15-.77,2.22-1.44.23,1.58.57,2.88.5,4.16-.02.4-1.18.74-1.82,1.1ZM601.91,784.63c-.32-.32-.65-.65-1.04-1.04.34-.61.69-1.24,1.04-1.88.32.32.97.72.91.96-.15.69-.59,1.31-.91,1.96ZM608.21,792.91c-.64-.83-1.57-1.59-1.82-2.53-.18-.67.56-1.58.9-2.38,1.03.44,2.06.88,2.52,1.08-.93,2.23-1.26,3.03-1.59,3.83ZM618.91,789.91c-.24.05-.63-.59-.96-.91.65-.32,1.27-.76,1.96-.91.24-.05.63.59.96.91-.65.32-1.27.76-1.96.91ZM623.75,520.65c-6.6-2.7-8.5-1.52-9.34,3.65-.68-.12-1.59,0-2-.4-5.64-5.51-12.76-4.48-19.65-4.65-1.27-.03-2.52-.79-3.78-1.21,1.08-.55,2.24-1.68,3.23-1.55,5.72.76,10.81-1.39,16.03-3.01,1.47,4.25,6.32-8.92,7.17,1.4.1,1.24,5.48,1.95,8.32,3.15.33.14.21,1.71.01,2.63ZM625.84,524.98c-.64-.21-1.07-1.05-1.52-1.86,3.56,1.61,2.41,2.15,1.52,1.86ZM635.39,520.84c-.01.13-.07.26-.15.39-3.44-1.58-4.38-2.68-5.26-3.77.76-.36,1.49-.98,2.28-1.04,3.38-.28,3.36,2.11,3.13,4.42ZM636.31,412.09c1.97.44,4.08.75,5.79,1.74,1.57.9,2.77,2.5,3.98,3.92.35.41.17,1.27.23,1.92-1.06.19-2.11.73-2.76.42-1.58-.74-3-1.83-4.43-2.85-1.25-.89-2.57-1.75-3.57-2.88-.27-.31.66-2.28.77-2.26ZM643.77,445.36c-.39.39-.71.71-1.04,1.04-.32-.65-.76-1.27-.91-1.96-.05-.24.59-.63.91-.96.35.63.7,1.27,1.04,1.88ZM637.5,524.98c-.59-.19-1.01-.93-1.42-1.69,3.4,1.45,2.29,1.97,1.42,1.69ZM639.82,425.99c-.32-.65-.76-1.27-.91-1.96-.05-.24.59-.63.91-.96.35.63.7,1.27,1.04,1.88-.39.39-.71.71-1.04,1.04ZM645.65,530.96c-.32-.32-.97-.72-.91-.96.15-.69.59-1.31.91-1.96.32.32.65.65,1.04,1.04-.34.61-.69,1.24-1.04,1.88ZM645.56,519.2c-1.29-.09-2.55-.57-3.82-.9.37-.64.7-1.8,1.1-1.82,1.28-.08,2.58.27,4.16.5-.67,1.07-1.09,2.25-1.44,2.22ZM650.98,550.82c-.24.05-.63-.59-.96-.91.65-.32,1.27-.76,1.96-.91.24-.05.63.59.96.91-.65.32-1.27.76-1.96.91ZM650.74,525.03c-1.24-.14-2.42-.87-3.63-1.36.74-.49,1.47-.97,2.56-1.69.97.5,2.12,1.1,3.27,1.69-.74.49-1.53,1.43-2.2,1.36ZM657.31,530.96c-.32-.65-.76-1.27-.91-1.96-.05-.24.59-.63.91-.96.32.65.76,1.27.91,1.96.05.24-.59.63-.91.96ZM654.83,420.59c-2.34-2.34-4.99-4.99-7.64-7.64.7-.51,1.85-1.6,2.03-1.46,3.11,2.45,6.1,5.06,9.12,7.63-.83.34-1.66.69-3.51,1.46ZM663.14,784.63c-.35-.63-.7-1.27-1.04-1.88.39-.39.71-.71,1.04-1.04.32.65.76,1.27.91,1.96.05.24-.59.63-.91.96ZM663.57,524.71c-.61-.34-1.24-.69-1.88-1.04.32-.32.72-.97.96-.91.69.15,1.31.59,1.96.91-.32.32-.65.65-1.04,1.04ZM661.77,413.52c-.17-.22.88-1.39,1.37-2.11l7.57,7.57c-1.67.6-2.96,1.36-3.21,1.1-2.05-2.05-3.96-4.26-5.73-6.56ZM667.65,790.15c-.12-.48,1.24-1.33,1.92-2.02,1.06,1.47,2.12,2.94,3.18,4.41-4.61-1.09-4.93-1.72-5.11-2.4ZM684.94,798.08c-2-1.81-6.15-1.19-9.29-1.84-.83-.17-1.53-.93-2.3-1.42.22-.22.44-.53.66-.8,8.41,1.18,14.16,2.04,18.09,2.65-2.04,1.44-3.82,4.44-7.17,1.4ZM695.49,796.48c-.17-.08-.35-.14-.51-.21-.67-.32-1.26-.32-1.82-.14-7.31-1.11-12.55-1.99-16.24-2.7,7.99-.07,15.98-.11,23.97.1.68.02,1.31,2.11,2.48,4.12-2.88-.42-5.45-.79-7.88-1.16ZM712.71,799.21c-1.27-1.65-2.53-3.3-3.8-4.95.81-.29,1.62-.59,3.57-1.3.55,1.31,1.34,2.64,1.59,4.07.11.63-.87,1.45-1.36,2.18ZM723.46,797.25c-.05-.24.59-.63.91-.96.35.63.7,1.27,1.04,1.88l-1.04,1.04c-.32-.65-.76-1.27-.91-1.96Z"/><path class="cls-1" d="M877.64,949.84l-57.62-77.75-62.9-13.25-67.56-303.81c30.64-1.69,51.34-2.22,51.34-4.97l-.97-16.45,20.67-.73-26.51-206.2c0-4.57-22.49-8.4-56.9-10.94l-2.67,75.62c-13.96-1.49-33.56-1.31-50.12-1.98l-5.32-79.01c-8.97-.18-49.54-.04-58.32.13l-6.73,78.87c-16.56.66-32.06,1.78-46.02,3.27l-3.15-77.21c-34.4,2.54-56.67,6.6-56.67,11.18l-28.51,206.34,21.08,1v14.23c0,2.67,18.26,5.07,47.37,6.76.48-.12.88-.29,1.29-.45-.23-2.18-.13-4.4.28-6.55-.83-1.67-1.51-3.43-1.89-5.26-.22-.02-.44-.03-.67-.05-.03-1.22-.05-2.45-.08-3.67.09,0,.18-.02.27-.02,0-.01,0-.03,0-.04-14.39-4.99-17.44-31.03,1.46-37.97,4.97-1.83,10-3.33,15.05-4.72.27-.61.6-1.2.93-1.79-5.55-1.95-10.07-6.18-11.1-12.66-.15-.92-.25-1.84-.37-2.77-5.69-1.77-10.47-5.94-12.06-12.53-6.18-10.96-1.4-21.86,7.71-29.15,1.54-1.81,3.3-3.36,5.23-4.58-4.59-11.66,1.12-27.5,17.21-26.9,54.02,2.03,108.06,3.03,162.12,3.08,23.96.02,24.97,35.53,3.17,38.66-.3,9.54-6.51,19.5-18.56,20.77-15.91,1.68-31.76,4.36-47.69,6.01.87,2.25,1.33,4.63,1.41,7.02,3.12-.2,6.23-.37,9.35-.63,16.32-1.35,21.83,14.75,16.83,26.67,10.09-2.31,20.22-4.46,30.33-6.73,4.76-1.07,8.97-.49,12.51,1.15,3.1-4.27,8.09-7.23,14.98-7.23.42,0,.81.04,1.21.06,2.31-1.01,4.98-1.6,8.03-1.6,5.69,0,10.08,2.02,13.18,5.12,16.5,7.41,13.75,37.25-8.18,37.25-3.81,0-7.03-.91-9.68-2.43-1.42.31-2.93.5-4.56.5-2.62,0-4.94-.44-7.01-1.2-2.27,2.75-5.6,4.87-10.13,5.89-4.23.95-8.46,1.88-12.7,2.8,1.63,7.34-.34,15.58-8.05,21.02-15.23,10.74-34.95,11.29-52.91,12.66-27.42,2.09-54.86,2.3-82.34,2.31-5.68,0-10.06-2.01-13.17-5.1-.37.02-.69.1-1.07.1-5.63,0-9.98-1.97-13.08-5.02-1.83-1.69-3.26-3.73-4.26-5.99-.83,1.07-1.67,2.14-2.51,3.34l-67.31,294.5-62.9,13.25-57.62,77.75-116.48,21.46h809.82l-116.48-21.46ZM704.31,812.87c-15.3-.22-31.23-3.55-46.39-.69-5.54,1.05-11.12.12-15.59-2.57-.03.18-.04.34-.07.52-3.34,18.41-15.49,31.61-29.45,42.77,21.12,22.88-8.07,46.33-29.59,55.18-5.69,2.34-11.59,4.27-17.64,5.95.13-.03.28-.04.41-.07,8.87-1.76,15.87,2.05,20.05,7.83,8.76-.53,17.51-1.28,26.12-2.45,24.52-3.31,35.04,34.18,10.34,37.52-19.63,2.65-39.17,4.18-58.98,4.46-15.72.23-33.51-3.45-48.76.92-8.62,2.47-15.46-.73-19.6-6.18-1.03.55-1.95,1.17-2.6,1.95-8.95,10.79-21.44,6.89-27.96-1.98-7.47.21-14.98.44-22.41,1.24-2.34.25-5.2,1.05-7.51,1.05-.74,0-1.38.1-1.93.25-2.5,2.62-3.07,1.84-1.9.91-8.57,5.69-19.85,3.21-26.37-3.14-5.76,6.47-13.66,10.35-24.44,11.73-3.38.43-6.58-.46-9.39-2.17-6.64-.68-11.22-4.3-13.84-9.06-1.02.09-2-.02-2.89-.35-.94.1-1.89.21-2.83.31-1.01.11-2.01.23-3.02.35-.46.06-.92.12-1.38.17-.05,0-.06,0-.1.01-.06,0-.09.01-.18.03-1.96.29-3.92.6-5.86.99-3.21.63-6.15-.88-7.18-4.08-.92-2.84,1.07-6.59,4.08-7.18,5.57-1.1,11.21-1.71,16.85-2.31.7-8.73,6.46-16.96,17.31-17.61.62-1.33,1.38-2.58,2.39-3.69.91-1.4,2.08-2.53,3.38-3.54.78-.64,1.5-1.34,2.23-2.03.38-.94.78-1.88,1.22-2.81,3.95-8.22,13.15-14.17,15.34-22.97,1.65-6.64,5.65-10.67,10.46-12.57,1.32-1.56,2.81-3.01,4.64-4.19,2.17-1.4,4.6-2.22,7.12-2.52-.46-.32-.92-.65-1.39-.94,1.71-.71,3.49-1.52,5.28-2.36,1.5-1.63,3.05-3.23,4.67-4.76,2.2-2.08,4.14-3.75,5.88-5.24-.31-7.3-1.81-14.76-2.46-21.76-.98-10.52,9.69-19.45,19.45-19.45.9,0,1.74.11,2.57.24.6-7.62,5.09-14.85,13.43-17.01,1.11-1.68,2.26-3.33,3.49-4.93-.49-2.69-.76-5.5-.62-8.5.74-16.8,10.29-28.02,23-35.45,4.91-15.27,15.4-29.18,28.65-37.38,6.66-6.1,14.02-9.98,21.62-12.09.2-.55.4-1.1.62-1.63-1.34-10.58,4.83-22.29,18.57-22.29,1.71,0,3.29.19,4.76.53,11.2-3.6,24.12-1.58,34.95,8.59,10.32,9.68,17.5,22.95,22.9,36.76,2.32.36,4.54,1.06,6.46,2.18,9.71,5.68,11.33,17.06,6.98,26.62-.28.61-.45,1.25-.69,1.87,1.23-.22,2.52-.36,3.91-.36,11.79,0,18.02,8.6,18.72,17.71,15.06-1.14,29.76.53,45.15.76,25.05.36,25.04,39.27,0,38.91Z"/></g></svg>